<svg width="34" height="34" viewBox="0 0 34 34" fill="none" xmlns="http://www.w3.org/2000/svg">
<g clip-path="url(#clip0_1_156)">
<path d="M16.9859 33.9952C26.2888 33.9952 33.8304 26.3851 33.8304 16.9976C33.8304 7.61009 26.2888 0 16.9859 0C7.6829 0 0.141357 7.61009 0.141357 16.9976C0.141357 26.3851 7.6829 33.9952 16.9859 33.9952Z" fill="#00B0CB"/>
<path d="M16.9858 34C26.2916 34 33.8304 26.3879 33.8304 17.0023C33.8304 16.0847 33.755 15.1861 33.6183 14.3065C33.0718 14.1971 32.5393 14.0355 32.0399 13.7787C30.9609 13.2272 30.1128 12.3096 29.2835 11.4205C28.4495 10.5314 27.5826 9.63275 26.4753 9.13352C25.3681 8.63429 23.964 8.62003 23.0452 9.41404C22.0274 10.2889 21.9049 11.8769 22.3196 13.1559C22.4939 13.7027 22.7295 14.3636 22.3525 14.7915C21.9992 15.1956 21.3631 15.0863 20.8354 15.1623C19.9401 15.2907 19.2522 16.0229 18.7575 16.7884C17.947 18.0388 17.4476 19.5936 17.834 21.039C18.0696 21.9138 18.6161 22.8172 18.2816 23.6588C17.9282 24.5526 16.8162 24.7904 15.9681 25.2325C14.7807 25.8459 13.9044 27.277 14.3331 28.556C14.5028 29.06 14.8514 29.4879 14.9928 30.0014C15.3414 31.2899 14.2954 32.4405 13.7347 33.6862C14.7855 33.8954 15.8739 34.0047 16.9858 34.0047V34Z" fill="#0B93C1"/>
<path d="M19.125 8.27296C19.0638 7.67863 19.2004 7.0748 19.1297 6.48048C19.0308 5.63892 18.5219 4.91147 17.9848 4.26009C17.4476 3.60871 16.8587 2.97635 16.5336 2.1966C16.3262 1.70213 16.2744 1.16961 16.3734 0.641856C16.411 0.442164 16.4959 0.228208 16.5288 0.0142517C7.43987 0.251981 0.136658 7.76422 0.136658 16.9976C0.136658 19.8218 0.824573 22.4844 2.03078 24.8284C2.72812 24.6715 3.39248 24.2816 4.01443 23.9013C4.74004 23.4543 5.46565 23.0074 6.18655 22.5605C7.27967 21.8853 8.48117 21.0628 8.71204 19.7885C8.99946 18.2005 7.63777 16.5412 8.25501 15.053C8.49059 14.4919 8.97119 14.0735 9.48006 13.7455C10.2811 13.2272 11.2517 12.8611 12.1846 13.0656C13.518 13.3508 14.3661 14.6631 15.5394 15.3668C16.298 15.8232 17.2026 16.0134 18.079 15.9088C18.569 15.8518 19.0543 15.6996 19.4548 15.4143C20.1616 14.9151 20.5527 14.0403 20.6092 13.1749C20.6658 12.3048 20.4207 11.4395 20.0532 10.655C19.6951 9.88 19.2051 9.13354 19.1203 8.28246L19.125 8.27296Z" fill="#00C3DF"/>
<path d="M33.755 15.3763C33.7644 15.4999 31.875 15.4001 31.6771 15.3715C29.2458 14.9769 28.0585 12.6709 25.8157 11.9815C25.3021 11.8246 24.7037 11.7961 24.2608 12.1051C22.6305 13.2367 26.0795 15.576 23.7284 16.2939C23.1253 16.4794 22.5127 16.3082 21.9238 16.4366C21.3914 16.5554 20.8165 16.9263 20.4066 17.2734C19.5443 18.0056 18.9648 19.1086 18.9695 20.2593C18.9789 22.7126 21.005 25.2278 23.3609 25.7413C23.898 25.8601 24.4587 25.8934 24.9629 26.1121C26.1078 26.6114 26.2256 28.071 25.6932 29.0837C25.1278 30.163 23.653 30.0537 23.1912 31.2043C23.064 31.5181 22.9415 32.217 23.1912 32.5118C23.4834 32.8589 24.0723 32.6782 24.4681 32.488C25.2597 32.1029 26.0371 31.6655 26.758 31.1615C28.1621 30.1773 29.472 28.9078 30.518 27.548C32.5912 24.8474 33.7361 21.4622 33.934 18.0484C33.9859 17.1783 34.1037 16.3177 33.7503 15.3811L33.755 15.3763Z" fill="#1EB400"/>
<path d="M19.2051 9.58045C18.8989 8.46313 19.0261 7.23169 18.5502 6.17617C18.0696 5.10164 17.0424 4.3837 16.3592 3.42327C15.676 2.46285 15.3603 1.25043 15.4687 0.0760498C6.87918 0.841537 0.136658 8.12555 0.136658 16.9976C0.136658 18.8138 0.419363 20.5588 0.942367 22.1991C1.48893 21.9519 1.98838 21.6048 2.29935 21.2149C2.98256 20.3496 3.01554 19.1562 3.1192 18.0579C3.26997 16.4556 3.65634 14.8438 4.5233 13.4982C5.39026 12.1527 6.78965 11.0877 8.3728 10.9117C9.15966 10.8262 9.95595 10.9545 10.7287 11.14C11.5532 11.3396 12.3731 11.6107 13.094 12.0576C13.8855 12.5521 14.5358 13.2415 15.2284 13.8691C15.921 14.4967 16.7032 15.0767 17.6125 15.2764C18.5219 15.4761 19.5868 15.1956 20.0909 14.4064C20.548 13.6884 20.449 12.7422 20.1616 11.9435C19.8742 11.14 19.4266 10.403 19.2004 9.58045H19.2051Z" fill="#0B93C1"/>
<path d="M19.7328 13.3889C19.9307 12.3714 19.4878 11.3064 18.9883 10.384C18.6303 9.71834 18.225 9.06696 17.9847 8.34427C17.7492 7.63584 17.9753 6.87035 17.7727 6.15241C17.5277 5.29183 16.8068 4.67849 16.3545 3.93677C15.8032 3.0334 15.332 2.08724 15.0352 1.06976C14.9692 0.841542 14.941 0.484948 14.8891 0.137864C13.8997 -0.118883 12.3306 0.337556 11.1621 0.755959C3.83536 3.37573 -1.03188 10.7881 0.188464 18.2956C0.551269 17.7441 0.848109 17.145 1.06956 16.5221C1.32871 15.8042 1.48891 15.053 1.73392 14.3303C2.14855 13.1226 2.41712 11.8769 3.42544 11.0068C4.00969 10.4981 4.5751 10.4791 5.296 10.2651C6.10171 10.0226 6.86502 9.66129 7.55764 9.18107C7.96285 8.90055 8.35393 8.57724 8.81568 8.40132C9.94179 7.9639 10.4507 8.79595 11.0255 9.58521C12.0432 10.9878 13.4002 11.5393 14.9457 12.1479C15.6147 12.4094 16.2744 12.7565 16.7503 13.308C17.1979 13.8263 17.4759 14.6869 18.2486 14.782C18.9035 14.8628 19.4737 14.2732 19.6668 13.6361C19.6904 13.5553 19.714 13.4697 19.7281 13.3889H19.7328Z" fill="#1EB400"/>
<path d="M19.3464 25.3657C19.304 25.3657 19.2616 25.3657 19.2192 25.3657C18.2863 25.437 16.4958 26.5258 16.2178 27.4339C16.0482 27.9854 16.0953 28.5798 16.1377 29.1598C16.1801 29.7209 16.2508 30.5149 16.8728 30.7193C17.212 30.8287 17.5795 30.7669 17.9282 30.7003C18.7905 30.5339 19.6715 30.7574 20.5385 30.7003C20.9484 30.6718 21.3772 30.6147 21.7306 30.3913C22.2253 30.0774 22.5504 29.583 23.064 29.2929C23.5163 29.0314 24.0582 28.9934 23.9545 28.304C23.8697 27.7572 23.4457 27.7477 23.0028 27.5813C22.0368 27.2199 21.3348 26.4402 20.4773 25.8982C20.1757 25.708 19.7234 25.4037 19.337 25.3704L19.3464 25.3657Z" fill="#00BE1B"/>
<path d="M16.755 28.9268C16.8822 29.4594 17.3816 29.911 17.9235 29.8873C18.2627 29.8682 18.5831 29.6781 18.9224 29.6876C19.1391 29.6923 19.3417 29.7779 19.5537 29.8112C19.7658 29.8445 20.0108 29.8112 20.1474 29.6448C20.2935 29.4546 20.2417 29.1836 20.1616 28.9601C20.0249 28.5845 20.0155 28.4133 20.1239 28.0425C20.2181 27.7192 20.3783 27.5528 20.1663 27.2199C19.926 26.8443 19.1391 26.5495 18.7056 26.5068C17.5795 26.3974 16.5005 27.8713 16.755 28.9268Z" fill="#00CE1D"/>
<path d="M21.4291 29.1598C21.594 29.136 21.7448 29.0647 21.9097 29.0314C22.1405 28.9887 22.4327 29.0029 22.5505 28.7937C22.6635 28.594 22.4986 28.3373 22.3055 28.2184C21.9521 28.0045 21.3207 27.3483 21.0286 27.762C20.7694 28.1328 20.8071 29.2454 21.4338 29.1551L21.4291 29.1598Z" fill="#00CE1D"/>
<path d="M21.283 18.9755C20.1475 20.7727 23.342 20.1832 24.0912 20.1166C25.1184 20.0263 26.4047 19.9882 26.3623 18.6284C26.3151 16.9881 24.4587 17.0357 23.3279 17.3922C22.4939 17.6537 21.7494 18.2338 21.283 18.9755Z" fill="#00CE1D"/>
<path d="M26.5177 15.9754C26.6355 16.0229 26.7721 16.0609 26.8852 16.0039C26.9606 15.9659 27.0077 15.8945 27.0501 15.8232C27.102 15.7281 27.1397 15.6283 27.1632 15.5237C27.2527 15.1576 27.1962 14.7582 27.1397 14.3778C27.1255 14.2875 27.1114 14.1924 27.0548 14.1211C26.4753 13.3889 24.7414 15.2336 26.5224 15.9754H26.5177Z" fill="#00CE1D"/>
<path d="M27.4177 30.6765C28.5108 29.816 29.6746 28.6511 30.5227 27.5433C32.5959 24.8427 33.7409 21.4574 33.9388 18.0436C33.967 17.5491 34.0141 17.0071 34 16.5174C33.2885 16.4794 32.398 16.5554 31.6818 16.5174C30.8196 16.4699 30.1882 16.1561 29.4579 15.7281C29.1987 15.576 28.9113 15.4476 28.6098 15.4571C28.3082 15.4619 27.9972 15.6378 27.903 15.9231C27.8276 16.1561 27.903 16.4128 27.969 16.6505C28.2988 17.92 28.2705 19.8932 27.0737 20.7252C26.1172 21.3956 25.1655 20.7157 24.1383 20.73C23.5965 20.7395 23.0358 20.9201 22.6777 21.3243C21.9097 22.1896 22.5316 22.9836 23.4174 23.2974C24.2561 23.5922 25.1372 23.7967 25.9241 24.2151C26.5649 24.5574 27.1303 25.0424 27.5732 25.6272C27.8559 25.998 28.0868 26.4212 28.1386 26.8871C28.1857 27.3103 28.0726 27.7382 27.9643 28.1471C27.7664 28.8936 27.6203 29.9253 27.4224 30.6718L27.4177 30.6765Z" fill="#00CE1D"/>
<path d="M15.4216 4.80686C15.0917 4.19828 14.7337 3.60395 14.4698 2.96684C14.1447 2.18709 13.9279 0.93188 14.0787 0.0570374C13.1222 0.0713011 12.0574 0.432649 11.1621 0.751206C6.00749 2.59598 2.05904 6.68017 0.593689 11.8246C0.782159 11.7771 1.31459 11.7105 1.47007 11.5964C1.80461 11.3492 1.95067 10.926 2.21924 10.6122C2.82235 9.90853 3.87307 9.85623 4.6882 9.42356C5.31015 9.09074 5.78604 8.53921 6.37972 8.1636C7.59535 7.39811 9.77689 7.08906 11.1009 7.68814C11.6522 7.93538 12.1092 8.35378 12.4767 8.82924C12.8207 9.27617 13.0092 9.9323 13.5557 10.1795C14.5122 10.6122 15.5865 9.92279 16.1283 9.12878C16.7079 8.28246 16.3168 6.88461 15.9776 5.99075C15.8221 5.5771 15.6242 5.18723 15.4169 4.80686H15.4216Z" fill="#00CE1D"/>
<path d="M16.8021 9.5567C16.4205 10.1891 14.9928 10.7929 15.7231 11.3444C16.4534 11.896 18.0696 13.6219 18.423 13.1749C18.7763 12.728 17.8764 7.76898 16.7974 9.5567H16.8021Z" fill="#00CE1D"/>
<path d="M19.1486 0.142639C19.1391 0.24724 19.1344 0.347086 19.125 0.442178C19.0261 1.26947 18.9365 2.09202 18.9789 2.92407C18.9978 3.31394 19.0496 3.71333 19.2192 4.06992C19.4642 4.56915 19.9307 4.92575 20.4302 5.15872C21.773 5.78157 23.3797 5.60565 24.7084 6.26178C25.3728 6.58985 25.9288 7.1081 26.579 7.46469C27.6438 8.0495 28.9302 8.19214 29.9243 8.89582C30.9986 9.65655 31.5876 10.9783 32.6807 11.7153C32.8032 11.8009 32.9351 11.8722 33.0718 11.934C31.14 5.68648 25.7403 0.998463 19.1486 0.142639Z" fill="#00C3DF"/>
<path d="M16.9765 16.5459C16.7362 16.3748 16.4016 16.4413 16.1378 16.584C15.8739 16.7266 15.6477 16.9263 15.3697 17.0166C14.6913 17.2449 13.9892 16.7789 13.2777 16.7076C12.2506 16.603 11.2988 17.3542 10.7805 18.2528C10.2622 19.1514 10.0596 20.1974 9.74863 21.1912C8.84397 24.0819 6.90744 26.6256 4.38666 28.2802C6.28078 30.4341 8.71205 32.0934 11.4637 33.0586C11.6428 31.7653 11.5674 30.377 11.8406 29.0885C12.0433 28.1281 12.4532 27.2152 13.0327 26.4259C13.4285 25.8839 13.8997 25.4037 14.2719 24.8474C14.6441 24.2911 14.9127 23.6255 14.8326 22.9599C14.7761 22.4987 14.5546 22.066 14.5028 21.6048C14.4321 20.9867 14.6677 20.3686 14.9834 19.8313C15.3462 19.2085 15.8221 18.6475 16.3781 18.191C16.6419 17.9723 16.9293 17.7679 17.0942 17.4683C17.2592 17.1688 17.2497 16.7361 16.9765 16.5364V16.5459Z" fill="#00C3DF"/>
<g style="mix-blend-mode:multiply" opacity="0.13">
<path d="M33.9387 18.0436C33.9576 17.6918 33.9906 17.3399 33.9953 16.9834C34 16.8265 34.0047 16.6696 33.9953 16.5174C33.9623 16.1465 33.8963 15.7709 33.7503 15.3763C33.7361 15.2765 33.7267 15.1766 33.7173 15.0768C33.7032 14.9627 33.689 14.8485 33.6749 14.7344C33.5477 13.774 33.3451 12.8326 33.0671 11.9292C32.9964 11.6963 32.9163 11.468 32.8362 11.2398C32.8079 11.1637 32.7797 11.0877 32.7514 11.0116C32.6901 10.8499 32.6289 10.6883 32.5629 10.5266C32.5346 10.4506 32.5017 10.3792 32.4734 10.3032C32.3792 10.0845 32.2849 9.8705 32.1813 9.65654C32.1577 9.609 32.1341 9.5567 32.1059 9.50915C32.0211 9.33799 31.9362 9.17158 31.8514 9.00517C31.8137 8.9386 31.776 8.86728 31.7384 8.80072C31.3284 10.2984 30.8902 11.7866 30.2683 13.2082C29.1752 15.7044 27.3894 18.0484 24.8686 19.0326C22.5646 19.9312 19.959 19.5984 17.589 20.2925C14.5169 21.1912 12.1139 23.7349 9.03713 24.624C6.85088 25.2611 4.51856 25.0043 2.2475 25.2183C2.8506 26.3166 3.56679 27.3483 4.38663 28.2802C4.8531 28.8127 5.35254 29.312 5.88497 29.7779C5.90382 29.7922 5.91795 29.8065 5.9368 29.8207C6.19595 30.0489 6.4598 30.2676 6.73309 30.4816C7.2985 30.919 7.88746 31.3184 8.5047 31.6845C8.51413 31.6845 8.51884 31.694 8.52826 31.6988C10.5637 32.8922 12.8678 33.6719 15.3273 33.9144C15.365 33.9144 15.4074 33.9192 15.4451 33.9239C15.676 33.9429 15.9069 33.9667 16.1425 33.9762C16.4204 33.9905 16.6984 34 16.9811 34C19.2899 34 21.4856 33.5293 23.4881 32.683C23.7896 32.7543 24.1807 32.6212 24.4681 32.4833C25.2597 32.0982 26.0371 31.6607 26.758 31.1568C26.9795 30.9999 27.1962 30.8382 27.413 30.6718C27.4507 30.6433 27.4884 30.61 27.5308 30.5814C28.5014 29.8112 29.4013 28.9173 30.1835 27.9664C30.3013 27.8238 30.4143 27.6859 30.518 27.5433C32.5912 24.8427 33.7361 21.4574 33.934 18.0436H33.9387Z" fill="#00C3DF"/>
</g>
<g style="mix-blend-mode:multiply" opacity="0.33">
<path d="M33.9953 16.9833C34 16.8264 34.0047 16.6695 33.9953 16.5174C33.9623 16.1465 33.8963 15.7709 33.7503 15.3763C33.7361 15.2765 33.7267 15.1766 33.7173 15.0768C33.7032 14.9626 33.689 14.8485 33.6749 14.7344C33.5477 13.774 33.3451 12.8326 33.0671 11.9292C32.9964 11.6963 32.9163 11.468 32.8362 11.2398C32.8079 11.1637 32.7797 11.0877 32.7514 11.0116C32.6901 10.8499 32.6289 10.6883 32.5629 10.5266C32.5347 10.4506 32.5017 10.3792 32.4734 10.3032C32.3792 10.0845 32.2849 9.87049 32.1813 9.65654C32.1577 9.60899 32.1342 9.55669 32.1059 9.50915C32.0211 9.33798 31.9363 9.17157 31.8514 9.00516C31.8138 8.93384 31.7761 8.86252 31.7384 8.79596C32.1153 10.3079 32.4875 11.8389 32.4546 13.3936C32.3839 16.4794 30.6641 19.3797 28.2658 21.2957C27.5873 21.8378 26.8381 22.318 26.0042 22.5605C24.8875 22.879 23.7048 22.7507 22.5457 22.7792C20.8401 22.8267 19.1439 23.2356 17.5984 23.9726C16.0153 24.7286 14.597 25.8269 12.9715 26.4877C9.58842 27.8666 5.69181 27.1772 2.40771 25.5083C2.97784 26.502 3.63748 27.4339 4.39136 28.285C4.85783 28.8175 5.35727 29.3167 5.8897 29.7827C5.90855 29.7969 5.92268 29.8112 5.94153 29.8255C6.20067 30.0537 6.46453 30.2724 6.73781 30.4864C7.30322 30.9238 7.89219 31.3232 8.50943 31.6893C8.51886 31.6893 8.52357 31.6988 8.53299 31.7035C10.5685 32.8969 12.8725 33.6767 15.332 33.9192C15.3697 33.9192 15.4121 33.9239 15.4498 33.9287C15.6807 33.9477 15.9116 33.9715 16.1472 33.981C16.4252 33.9952 16.7032 34.0047 16.9859 34.0047C19.2946 34.0047 21.4903 33.534 23.4928 32.6877C23.7944 32.759 24.1854 32.6259 24.4728 32.488C25.2644 32.1029 26.0419 31.6655 26.7628 31.1615C26.9842 31.0046 27.2009 30.8429 27.4177 30.6765C27.4554 30.648 27.4931 30.6147 27.5355 30.5862C28.5061 29.816 29.406 28.9221 30.1882 27.9712C30.306 27.8285 30.4191 27.6907 30.5227 27.548C32.5959 24.8474 33.7409 21.4622 33.9388 18.0484C33.9576 17.6965 33.9906 17.3447 33.9953 16.9881V16.9833Z" fill="#00C3DF"/>
</g>
<g style="mix-blend-mode:screen" opacity="0.56">
<path d="M33.9859 16.5174C33.9623 16.1465 33.9011 15.7709 33.755 15.3763C33.7409 15.2765 33.7314 15.1766 33.722 15.0768C33.7079 14.9627 33.6938 14.8485 33.6796 14.7344C33.5524 13.774 33.3498 12.8326 33.0718 11.9292C33.0011 11.6963 32.921 11.468 32.8409 11.2398C32.8127 11.1637 32.7844 11.0877 32.7561 11.0116C32.6949 10.8499 32.6336 10.6883 32.5676 10.5266C32.5394 10.4506 32.5064 10.3792 32.4781 10.3032C32.3839 10.0845 32.2896 9.8705 32.186 9.65654C32.1624 9.60899 32.1389 9.55669 32.1106 9.50915C32.0258 9.33798 31.941 9.17157 31.8562 9.00516C31.8138 8.92434 31.7714 8.84351 31.7242 8.76743C31.6441 8.6248 31.564 8.48216 31.4839 8.34428C31.4415 8.27296 31.3991 8.19688 31.3567 8.12557C31.2389 7.93063 31.1164 7.74044 30.9939 7.55502C30.9421 7.47894 30.8903 7.40762 30.8431 7.33155C30.7583 7.20793 30.6735 7.08431 30.584 6.96545C30.5227 6.87987 30.4568 6.79428 30.3955 6.7087C30.3107 6.59459 30.2259 6.48524 30.1364 6.37588C30.0704 6.2903 29.9997 6.20472 29.9291 6.11913C29.8018 5.96223 29.6699 5.81009 29.5333 5.65794C29.4532 5.5676 29.3684 5.47726 29.2836 5.38693C29.2082 5.3061 29.1328 5.22527 29.0527 5.14444C28.9632 5.04935 28.8736 4.95902 28.7794 4.86392C28.7087 4.79261 28.638 4.72604 28.5674 4.65948C28.5155 4.60718 28.459 4.55963 28.4072 4.51208C28.4307 4.53586 28.459 4.56439 28.4826 4.58816C28.5579 4.66899 28.638 4.74981 28.7134 4.83064C28.7982 4.92098 28.8783 5.01132 28.9632 5.10165C29.0998 5.2538 29.2317 5.40595 29.3589 5.56285C29.4296 5.64843 29.4956 5.73401 29.5663 5.81959C29.6558 5.92895 29.7406 6.0383 29.8254 6.15241C29.8914 6.238 29.9526 6.32358 30.0139 6.40916C30.1034 6.52803 30.1882 6.65165 30.273 6.77526C30.3248 6.85134 30.3767 6.92266 30.4238 6.99873C30.551 7.18891 30.6688 7.3791 30.7866 7.56928C30.829 7.6406 30.8714 7.71667 30.9138 7.78799C30.9939 7.92587 31.0787 8.06851 31.1541 8.21115C31.1965 8.29198 31.2389 8.36805 31.286 8.44888C31.3756 8.61529 31.4604 8.7817 31.5405 8.95286C31.564 9.00041 31.5923 9.05271 31.6159 9.10025C31.7195 9.31421 31.8138 9.52817 31.908 9.74688C31.941 9.82295 31.9692 9.89427 31.9975 9.97034C32.0635 10.132 32.1247 10.2937 32.186 10.4553C32.2143 10.5314 32.2425 10.6075 32.2708 10.6835C32.3509 10.9117 32.431 11.14 32.5017 11.3729C32.7797 12.2763 32.9823 13.2177 33.1095 14.1781C33.1236 14.2923 33.1378 14.4064 33.1519 14.5205C33.1613 14.6203 33.1755 14.7202 33.1849 14.82C33.3357 15.2099 33.3969 15.5855 33.4205 15.9564C33.4346 16.1085 33.4346 16.2654 33.4299 16.4223C33.4252 16.7789 33.3922 17.1307 33.3734 17.4826C33.1755 20.8964 32.0352 24.2769 29.9573 26.9822C29.849 27.1201 29.7359 27.2627 29.6228 27.4054C28.8406 28.3611 27.936 29.2502 26.9701 30.0204C26.9324 30.0537 26.89 30.087 26.8523 30.1155C26.6355 30.2819 26.4188 30.4436 26.1974 30.6005C25.4765 31.1045 24.6943 31.5419 23.9074 31.927C23.62 32.0649 23.2337 32.198 22.9274 32.1267C20.9249 32.973 18.7292 33.4437 16.4205 33.4437C16.1378 33.4437 15.8598 33.4342 15.5818 33.4199C15.3462 33.4104 15.1153 33.3866 14.8844 33.3676C14.8467 33.3676 14.8043 33.3629 14.7666 33.3581C12.3071 33.1156 10.0031 32.3359 7.96759 31.1425C7.95816 31.1425 7.95345 31.133 7.94403 31.1282C7.32679 30.7669 6.73782 30.3627 6.17241 29.9301C5.89913 29.7161 5.63527 29.4974 5.37612 29.2692C5.35728 29.2549 5.34314 29.2407 5.32429 29.2264C5.21592 29.1313 5.11226 29.0267 5.00861 28.9269C5.29602 29.2216 5.59286 29.5069 5.89913 29.7779C5.91797 29.7922 5.93211 29.8064 5.95096 29.8207C6.2101 30.0489 6.47396 30.2676 6.74724 30.4816C7.31265 30.919 7.90162 31.3184 8.51886 31.6845C8.52828 31.6845 8.533 31.694 8.54242 31.6988C10.5779 32.8922 12.8819 33.6719 15.3415 33.9144C15.3792 33.9144 15.4216 33.9192 15.4593 33.9239C15.6901 33.9429 15.921 33.9667 16.1566 33.9762C16.4346 33.9905 16.7126 34 16.9953 34C19.3041 34 21.4997 33.5293 23.5022 32.683C23.8038 32.7543 24.1949 32.6212 24.4823 32.4833C25.2738 32.0982 26.0513 31.6607 26.7722 31.1567C26.9936 30.9998 27.2104 30.8382 27.4271 30.6718C27.4648 30.6433 27.5025 30.61 27.5449 30.5814C28.5155 29.8112 29.4155 28.9173 30.1976 27.9664C30.3154 27.8238 30.4285 27.6859 30.5322 27.5433C32.6053 24.8427 33.7503 21.4574 33.9482 18.0436C33.967 17.6918 34 17.3399 34.0047 16.9833C34.0094 16.8264 34.0141 16.6695 34.0047 16.5174C34.0047 16.5174 33.9953 16.5174 33.9906 16.5174H33.9859Z" fill="#00C3DF"/>
</g>
<g style="mix-blend-mode:overlay" opacity="0.41">
<path d="M14.8891 0.133128C14.6488 0.0665641 14.3708 0.0475458 14.0787 0.0618095C13.1222 0.0713187 12.0574 0.432667 11.1621 0.751224C10.8841 0.85107 10.6156 0.960425 10.3423 1.06978C10.2292 1.11733 10.1161 1.16963 9.99834 1.21717C9.87112 1.27423 9.73919 1.33128 9.61198 1.39309C5.43265 3.35673 2.22866 6.86561 0.801001 11.1875C0.74446 11.3492 0.692631 11.5156 0.645513 11.6772C0.631378 11.7248 0.612531 11.7771 0.598396 11.8246C0.358096 12.6662 0.188473 13.5315 0.0942383 14.4111C2.20981 17.5967 5.80959 19.6935 9.89468 19.6935C16.4063 19.6935 21.6882 14.3636 21.6882 7.79275C21.6882 4.86393 20.6375 2.18235 18.8988 0.109355C18.2722 0.0380366 17.6361 0 16.9906 0C16.2791 0 15.5818 0.0475458 14.8938 0.133128H14.8891Z" fill="#98F1FF"/>
</g>
<g style="mix-blend-mode:screen" opacity="0.42">
<path d="M30.1269 6.37112C30.061 6.28554 29.9903 6.19996 29.9196 6.11438C29.7924 5.95748 29.6605 5.80533 29.5238 5.65318C29.4437 5.56285 29.3589 5.47251 29.2741 5.38217C29.1987 5.30134 29.1233 5.22052 29.0432 5.13969C28.9537 5.0446 28.8642 4.95426 28.77 4.85917C28.6993 4.78785 28.6286 4.72129 28.5579 4.65472C28.3742 4.4788 28.1857 4.30288 27.9925 4.13647C27.936 4.08893 27.8841 4.03663 27.8276 3.98908C27.7098 3.88923 27.592 3.79414 27.4742 3.69905C27.4177 3.65151 27.3611 3.60871 27.3046 3.56117C27.1774 3.46132 27.0502 3.36623 26.9229 3.27114C26.612 3.04292 26.3057 2.83372 25.9947 2.63402C25.9712 2.61976 25.9429 2.60074 25.9193 2.58648C25.7686 2.49139 25.6178 2.3963 25.4623 2.30596C25.434 2.28694 25.4058 2.27268 25.3728 2.25366C24.878 1.96363 24.3645 1.70213 23.8415 1.4644C21.7353 0.518237 19.4218 -0.00952148 16.9812 -0.00952148C16.2697 -0.00952148 15.5723 0.0380243 14.8844 0.123607C14.6441 0.0570426 14.3661 0.0380243 14.074 0.0522881C13.1175 0.0617972 12.0527 0.423145 11.1574 0.741702C10.8794 0.841548 10.6109 0.950904 10.3376 1.06026C10.2245 1.1078 10.1114 1.16011 9.99362 1.20765C9.86641 1.26471 9.73448 1.32176 9.60726 1.38357C9.36225 1.49768 9.11724 1.6213 8.87694 1.74492C8.79684 1.78771 8.72145 1.8305 8.64606 1.87329C8.48586 1.95887 8.32566 2.04921 8.17018 2.13955C8.08065 2.19185 7.99113 2.2489 7.90161 2.3012C7.76025 2.38679 7.6189 2.47712 7.48226 2.56746C7.39274 2.62927 7.2985 2.68633 7.20898 2.74814C7.07705 2.83847 6.94512 2.92881 6.81319 3.0239C6.72367 3.08571 6.63886 3.15227 6.54933 3.21884C6.41741 3.31868 6.29019 3.41853 6.16297 3.51838C6.08287 3.58494 5.99806 3.64675 5.91796 3.71331C5.78132 3.82742 5.64939 3.94153 5.51275 4.0604C5.44678 4.11745 5.37611 4.17451 5.31486 4.23632C5.12639 4.40748 4.94263 4.5834 4.76358 4.75932C4.75416 4.76883 4.74473 4.77359 4.74002 4.7831C4.55155 4.96852 4.37251 5.15871 4.19346 5.35364C4.13221 5.42021 4.07566 5.48677 4.01912 5.55334C3.90133 5.68647 3.78825 5.81959 3.67517 5.95272C3.6092 6.03355 3.54324 6.11438 3.48198 6.19521C3.38304 6.31882 3.28409 6.4472 3.18514 6.57557C3.11918 6.66115 3.05793 6.75149 2.99196 6.83707C2.90244 6.96545 2.81292 7.09382 2.72339 7.22219C2.66214 7.31253 2.60089 7.40287 2.54435 7.49796C2.45953 7.63109 2.37472 7.76897 2.28991 7.9021C2.23337 7.99244 2.18154 8.08277 2.125 8.17311C2.04019 8.3205 1.95538 8.47265 1.87528 8.6248C1.83287 8.70562 1.78575 8.78645 1.74335 8.87203C1.63498 9.08599 1.52661 9.3047 1.42766 9.52341C1.18265 10.0559 0.965909 10.6027 0.782151 11.1637C0.72561 11.3254 0.673781 11.4918 0.626663 11.6535C0.612528 11.701 0.593681 11.7533 0.579546 11.8009C2.35043e-07 13.8929 -0.169623 16.0895 0.18847 18.2956C0.197894 18.3859 0.207317 18.4763 0.212029 18.5666C0.221453 18.6712 0.230876 18.7758 0.2403 18.8757C0.245011 18.9327 0.249723 18.9898 0.259147 19.0468C0.263858 19.0944 0.273282 19.1419 0.277994 19.1895C0.282705 19.2418 0.292129 19.2893 0.296841 19.3369C0.310976 19.4415 0.325111 19.5508 0.339246 19.6554C0.353382 19.7553 0.37694 19.8551 0.391076 19.9597C0.405211 20.0358 0.419346 20.1119 0.433481 20.1879C0.442905 20.2307 0.447617 20.2783 0.45704 20.3211C0.485311 20.4685 0.518293 20.6158 0.551275 20.7585C0.570122 20.8488 0.588969 20.9392 0.612528 21.0247C0.61724 21.0533 0.626663 21.0818 0.631375 21.1103C0.664357 21.2387 0.697339 21.3623 0.730322 21.4907C0.749169 21.562 0.772727 21.6381 0.791574 21.7094C1.00831 22.4701 1.27688 23.2071 1.59257 23.9203C1.59257 23.9298 1.602 23.9393 1.60671 23.9536C1.73864 24.2483 1.87999 24.5431 2.02605 24.8284C2.67156 26.0789 3.46314 27.239 4.38193 28.285C4.52799 28.4514 4.68348 28.613 4.83897 28.77C4.19817 27.9474 3.63276 27.0583 3.15216 26.1216C3.0061 25.8364 2.86475 25.5416 2.73282 25.2468C2.73282 25.2373 2.72339 25.2278 2.71868 25.2135C2.40299 24.5003 2.13442 23.7634 1.91768 23.0026C1.89884 22.9313 1.87528 22.8553 1.85643 22.7839C1.82345 22.6556 1.78575 22.5319 1.75748 22.4036C1.75277 22.375 1.74335 22.3465 1.73864 22.318C1.71508 22.2276 1.69623 22.1373 1.67738 22.0517C1.6444 21.9043 1.61142 21.7617 1.58315 21.6143C1.57373 21.5715 1.56901 21.524 1.55959 21.4812C1.54545 21.4051 1.53132 21.329 1.51718 21.253C1.49834 21.1531 1.47949 21.0533 1.46535 20.9487C1.45122 20.8441 1.43708 20.7395 1.42295 20.6301C1.41824 20.5826 1.40881 20.5303 1.4041 20.4827C1.39939 20.4352 1.38997 20.3876 1.38526 20.3401C1.38054 20.283 1.37112 20.226 1.36641 20.1689C1.35698 20.0643 1.34756 19.9645 1.33814 19.8599C1.32871 19.7695 1.31929 19.6792 1.31458 19.5841C0.956486 17.3827 1.12611 15.1861 1.7245 13.1179C1.73392 13.0703 1.75277 13.0228 1.76691 12.9705C1.81402 12.8041 1.87057 12.6424 1.92239 12.4808C2.06375 12.0576 2.22395 11.6487 2.39357 11.2398C3.99557 13.3508 6.51635 14.7202 9.35754 14.7202C14.1965 14.7202 18.1214 10.7596 18.1214 5.87665C18.1214 4.2173 17.6691 2.67206 16.8822 1.34553C17.2874 1.31701 17.6926 1.29799 18.1073 1.29799C20.5432 1.29799 22.8567 1.82575 24.9487 2.7624C25.4906 3.00488 26.0042 3.27114 26.4989 3.55641C26.5272 3.57543 26.5554 3.5897 26.5884 3.60871C26.7439 3.69905 26.8947 3.79414 27.0455 3.88923C27.069 3.9035 27.0973 3.92252 27.1208 3.93678C27.4318 4.13647 27.7381 4.34567 28.0349 4.56438C28.181 4.67374 28.3082 4.76883 28.4307 4.86868C28.4872 4.91147 28.5438 4.95901 28.6003 5.00656C28.7181 5.10165 28.8359 5.19674 28.9537 5.29659C29.0103 5.34414 29.0668 5.39168 29.1186 5.44398C29.3118 5.61039 29.5003 5.78631 29.684 5.96223C29.7547 6.0288 29.8254 6.10011 29.8961 6.16668C29.9903 6.25702 30.0798 6.35211 30.1693 6.4472C30.1741 6.45195 30.1835 6.46146 30.1882 6.46622C30.1646 6.43769 30.1458 6.40916 30.1222 6.38063L30.1269 6.37112Z" fill="#00DF16"/>
</g>
<path style="mix-blend-mode:multiply" opacity="0.63" d="M34 16.5174C33.967 16.1465 33.901 15.7709 33.755 15.3763C33.7408 15.2765 33.7314 15.1766 33.722 15.0768C33.7078 14.9627 33.6937 14.8485 33.6796 14.7344C33.5524 13.774 33.3498 12.8326 33.0718 11.9292C33.0011 11.6963 32.921 11.468 32.8409 11.2398C32.8126 11.1637 32.7843 11.0877 32.7561 11.0116C32.6948 10.8499 32.6336 10.6883 32.5676 10.5266C32.5393 10.4506 32.5063 10.3792 32.4781 10.3032C32.3838 10.0845 32.2896 9.8705 32.1859 9.65655C32.1624 9.609 32.1388 9.5567 32.1106 9.50915C32.0257 9.33799 31.9409 9.17158 31.8561 9.00517C31.8137 8.92434 31.7713 8.84351 31.7242 8.76744C31.6441 8.6248 31.564 8.48216 31.4839 8.34428C31.4415 8.27296 31.3991 8.19689 31.3567 8.12557C31.2389 7.93063 31.1164 7.74045 30.9939 7.55502C30.942 7.47895 30.8902 7.40763 30.8431 7.33156C30.7583 7.20794 30.6735 7.08432 30.584 6.96545C30.5227 6.87987 30.4567 6.79429 30.3955 6.70871C30.3107 6.5946 30.2259 6.48524 30.1363 6.37589C30.0704 6.2903 29.9997 6.20472 29.929 6.11914C29.8018 5.96224 29.6699 5.81009 29.5332 5.65794C29.4531 5.56761 29.3683 5.47727 29.2835 5.38693C29.2081 5.30611 29.1327 5.22528 29.0526 5.14445C28.9631 5.04936 28.8736 4.95902 28.7794 4.86393C28.7087 4.79261 28.638 4.72605 28.5673 4.65948C28.3836 4.48356 28.1951 4.30764 28.0019 4.14123C27.9454 4.09369 27.8935 4.04139 27.837 3.99384C27.7192 3.89399 27.6014 3.7989 27.4836 3.70381C27.4271 3.65627 27.3705 3.61347 27.314 3.56593C27.1868 3.46608 27.0596 3.37099 26.9323 3.2759C26.6214 3.04768 26.3151 2.83848 26.0041 2.63879C25.9806 2.62452 25.9523 2.6055 25.9287 2.59124C25.778 2.49615 25.6272 2.40106 25.4717 2.31072C25.4434 2.2917 25.4152 2.27744 25.3822 2.25842C24.8874 1.96839 24.3739 1.70689 23.8509 1.46916C21.7447 0.522998 19.4312 -0.00476074 16.9905 -0.00476074C16.2791 -0.00476074 15.5817 0.0427851 14.8938 0.128367C14.6535 0.0618034 14.3755 0.0427851 14.0834 0.0570488C13.1269 0.066558 12.0621 0.427906 11.1668 0.746463C10.8888 0.846309 10.6203 0.955664 10.347 1.06502C10.2339 1.11257 10.1208 1.16487 10.003 1.21241C9.8758 1.26947 9.74387 1.32652 9.61666 1.38833C5.43262 3.35673 2.22863 6.86561 0.800969 11.1875C0.744428 11.3492 0.692599 11.5156 0.645482 11.6772C0.631346 11.7248 0.612499 11.7771 0.598364 11.8246C-2.83895e-05 13.8929 -0.169651 16.0895 0.188442 18.2956C0.197865 18.386 0.207289 18.4763 0.212 18.5666C0.221424 18.6712 0.230847 18.7758 0.240271 18.8757C0.244983 18.9327 0.249694 18.9898 0.259118 19.0468C0.26383 19.0944 0.273253 19.1419 0.277965 19.1895C0.282677 19.2418 0.2921 19.2893 0.296812 19.3369C0.310947 19.4415 0.325082 19.5508 0.339218 19.6554C0.353353 19.7553 0.376912 19.8551 0.391047 19.9597C0.405182 20.0358 0.419317 20.1119 0.433453 20.1879C0.442876 20.2307 0.447588 20.2783 0.457011 20.3211C0.485282 20.4685 0.518264 20.6159 0.551247 20.7585C0.570094 20.8488 0.588941 20.9392 0.612499 21.0247C0.617211 21.0533 0.626635 21.0818 0.631346 21.1103C0.664329 21.2387 0.697311 21.3623 0.730293 21.4907C0.74914 21.562 0.772699 21.6381 0.791546 21.7094C1.00829 22.4701 1.27686 23.2071 1.59254 23.9203C1.59254 23.9298 1.60197 23.9393 1.60668 23.9536C1.73861 24.2484 1.87996 24.5431 2.02602 24.8284C2.67153 26.0789 3.46311 27.239 4.3819 28.285C4.84836 28.8175 5.34781 29.3167 5.88024 29.7827C5.89908 29.7969 5.91322 29.8112 5.93207 29.8255C6.19121 30.0537 6.45507 30.2724 6.72835 30.4864C7.29376 30.9238 7.88273 31.3232 8.49997 31.6893C8.5094 31.6893 8.51411 31.6988 8.52353 31.7035C10.559 32.8969 12.8631 33.6767 15.3226 33.9192C15.3603 33.9192 15.4027 33.9239 15.4404 33.9287C15.6713 33.9477 15.9021 33.9715 16.1377 33.981C16.4157 33.9952 16.6937 34.0047 16.9764 34.0047C19.2852 34.0047 21.4808 33.534 23.4833 32.6877C23.7849 32.7591 24.176 32.6259 24.4634 32.488C25.255 32.1029 26.0324 31.6655 26.7533 31.1615C26.9748 31.0046 27.1915 30.843 27.4082 30.6765C27.4459 30.648 27.4836 30.6147 27.526 30.5862C28.4966 29.816 29.3966 28.9221 30.1787 27.9712C30.2965 27.8286 30.4096 27.6907 30.5133 27.548C32.5864 24.8474 33.7314 21.4622 33.9293 18.0484C33.9481 17.6965 33.9811 17.3447 33.9858 16.9881C33.9905 16.8312 33.9953 16.6743 33.9858 16.5222L34 16.5174Z" fill="url(#paint0_linear_1_156)"/>
<path style="mix-blend-mode:overlay" opacity="0.37" d="M18.4181 12.6589C21.0678 9.98517 21.0678 5.65014 18.4181 2.97638C15.7684 0.302622 11.4724 0.302623 8.82275 2.97638C6.17307 5.65015 6.17307 9.98517 8.82275 12.6589C11.4724 15.3327 15.7684 15.3327 18.4181 12.6589Z" fill="url(#paint1_radial_1_156)"/>
</g>
<defs>
<linearGradient id="paint0_linear_1_156" x1="4.82481" y1="4.72605" x2="29.2909" y2="28.9765" gradientUnits="userSpaceOnUse">
<stop stop-color="white"/>
<stop offset="1" stop-color="#1876E7"/>
</linearGradient>
<radialGradient id="paint1_radial_1_156" cx="0" cy="0" r="1" gradientUnits="userSpaceOnUse" gradientTransform="translate(13.6187 7.81755) scale(6.78492 6.84659)">
<stop stop-color="#ECECEC"/>
<stop offset="0.47" stop-color="#F1F1F1"/>
<stop offset="1" stop-color="white"/>
</radialGradient>
<clipPath id="clip0_1_156">
<rect width="34" height="34" fill="white"/>
</clipPath>
</defs>
</svg>
