<svg width="91" height="122" viewBox="0 0 91 122" fill="none" xmlns="http://www.w3.org/2000/svg">
<g clip-path="url(#clip0_1_20)">
<path d="M83.0286 83.1805C83.0286 83.1805 81.82 85.4577 80.2103 84.2228C79.2859 83.5134 79.3875 82.0035 79.1347 80.332C78.9476 79.0934 78.5659 77.7637 77.4219 76.6105C77.4219 76.6105 76.2668 80.328 75.226 80.7402C75.226 80.7402 73.0651 81.4405 73.452 78.6172L73.5111 77.2601C73.5111 77.2601 72.5957 74.3971 73.6804 72.9787L73.5214 72.8426L73.5215 72.8404L72.2873 71.7702C72.2873 71.7702 70.8173 76.6049 68.057 82.2435C68.0478 82.26 68.0408 82.2766 68.0339 82.2891C68.027 82.3015 68.0223 82.3119 68.0177 82.3222C68.013 82.3326 68.0061 82.345 67.999 82.3617C67.9899 82.3782 67.9806 82.3969 67.9668 82.4217C67.9577 82.4382 67.9485 82.4548 67.9391 82.4755C67.0952 84.1903 66.13 85.974 65.0482 87.7145C65.0459 87.7207 65.0414 87.7269 65.0369 87.733C64.2776 88.9601 63.4579 90.1656 62.586 91.3095C62.0099 92.0659 61.1874 92.6083 60.2613 92.8116C58.648 93.1692 55.8562 93.213 51.9808 91.2019C51.9808 91.2019 47.3096 95.3404 46.541 99.6487C45.7724 103.957 45.5083 107.599 45.5083 107.599C45.5083 107.599 42.5449 116.206 37.6721 117.689C32.7994 119.171 29.3988 119.606 29.5714 114.424C29.5823 114.075 29.6032 113.742 29.634 113.421C30.0307 108.965 31.9499 107.115 31.9499 107.115C31.0785 100.764 31.0232 94.8926 32.2601 89.7787C32.3992 89.2044 32.5526 88.6414 32.7247 88.0876C32.7247 88.0876 30.8572 87.873 29.6248 87.0527L26.4073 89.9837C26.4073 89.9837 23.2264 92.9968 23.724 100.022C23.79 100.934 23.4533 101.826 22.804 102.467C21.2225 104.035 18.2339 107.001 16.3919 108.874C13.7936 111.514 8.82705 111.51 8.40092 107.944C8.35126 107.531 8.34882 107.101 8.38684 106.664C8.65437 103.332 11.0892 99.5893 11.0892 99.5893C11.0892 99.5893 7.40872 79.7328 24.072 70.785L24.6829 68.8886C24.6829 68.8886 23.1767 65.858 27.7031 64.4664C27.3788 64.4396 27.0547 64.4086 26.7349 64.3735C19.8572 63.6529 13.8103 61.5156 9.85884 55.8117C6.79586 52.4212 2.39629 48.7586 4.06987 46.3365C4.06987 46.3365 3.48604 41.3912 6.83319 41.0179C7.26868 40.9669 7.77047 40.9951 8.34829 41.1219C8.34829 41.1219 11.7454 44.8002 13.2709 46.1712C13.2709 46.1712 12.7988 42.3024 15.8756 42.6036C16.2524 42.639 16.5476 42.9462 16.5692 43.3242C16.6064 44.0247 16.7181 45.1499 17.0279 45.6547C17.4978 46.4164 17.5606 49.2 17.5606 49.2C17.5606 49.2 19.0378 51.2932 24.1543 51.0582C24.1543 51.0582 28.8597 49.0031 32.6844 48.5341L65.4997 52.8904C65.5564 52.8992 65.6088 52.9099 65.6654 52.9209L65.6675 52.921C73.5358 54.337 82.7912 62.3978 85.2187 72.5274C85.2187 72.5274 88.5895 79.2395 83.0286 83.1805Z" fill="white"/>
<path d="M32.5256 119.303C31.6573 119.265 30.9305 119.047 30.3399 118.592C29.3288 117.815 28.8705 116.444 28.9386 114.403C28.95 114.044 28.9721 113.692 29.0038 113.36C29.3392 109.596 30.728 107.578 31.2834 106.91C30.3695 100.068 30.4877 94.4131 31.6448 89.6295C31.7318 89.2707 31.8212 88.9273 31.9151 88.5933C31.3211 88.4692 30.4646 88.2388 29.706 87.8373L26.834 90.4538C26.8155 90.4721 23.8891 93.3793 24.3566 99.9779C24.4362 101.074 24.0323 102.146 23.2493 102.919C21.3338 104.819 18.5849 107.55 16.8438 109.32C15.1168 111.075 12.3545 111.832 10.2757 111.12C8.8417 110.628 7.95287 109.527 7.77283 108.02C7.71944 107.576 7.71388 107.101 7.75682 106.61C7.99964 103.583 9.89503 100.318 10.4254 99.4562C10.2529 98.358 9.67221 93.8559 10.7108 88.4238C11.7882 82.7871 14.8917 75.0994 23.5482 70.3488L24.011 68.9114C23.8544 68.4611 23.6249 67.4879 24.0722 66.4446C24.3348 65.8317 24.7802 65.3004 25.4036 64.8548C17.8722 63.8461 12.753 61.0803 9.36306 56.2082C8.82382 55.6125 8.23097 54.9954 7.65753 54.3987C4.89835 51.5262 2.04734 48.5587 3.42103 46.1799C3.36755 45.4368 3.30817 43.1087 4.47905 41.6318C5.04931 40.9119 5.81866 40.4934 6.76418 40.388C7.28167 40.3275 7.86164 40.3658 8.4851 40.5027C8.61156 40.5302 8.72662 40.5962 8.81463 40.6915C8.84209 40.7211 11.0512 43.1113 12.6801 44.7286C12.7813 44.0544 13.0234 43.2898 13.5672 42.731C14.1516 42.1313 14.9506 41.8767 15.9386 41.9726C16.6193 42.0365 17.1636 42.6024 17.2027 43.2886C17.2646 44.4502 17.432 45.1005 17.5686 45.3229C18.0421 46.0902 18.1598 48.1544 18.1882 48.9511C18.5909 49.3435 20.1741 50.5814 24.0126 50.4298C24.7641 50.1093 29.0167 48.3453 32.609 47.9052C32.6621 47.8986 32.7162 47.8988 32.7692 47.9058L65.5845 52.2621C65.6542 52.2727 65.7054 52.2826 65.7594 52.293L65.7703 52.2952C65.7741 52.2953 65.7775 52.2963 65.7813 52.2969C69.8199 53.0236 74.2454 55.4666 77.9236 58.9991C81.8485 62.769 84.6513 67.496 85.8209 72.316C86.1744 73.082 88.9711 79.6293 83.511 83.6166C83.2841 83.9931 82.614 84.9581 81.597 85.1798C81.1775 85.2713 80.5301 85.2669 79.827 84.7276C78.9017 84.0172 78.7762 82.8109 78.6432 81.5344C78.606 81.1753 78.5672 80.8038 78.5104 80.4281C78.3909 79.6368 78.1893 78.7516 77.6533 77.907C77.1592 79.2465 76.366 80.9732 75.461 81.3316C75.4485 81.3366 75.4357 81.3411 75.4232 81.3452C75.3053 81.3833 74.25 81.6991 73.465 81.0402C72.8855 80.5537 72.6694 79.72 72.8229 78.5619L72.8759 77.3426C72.7086 76.777 72.159 74.6415 72.8684 73.1124L72.5963 72.8764C72.0307 74.5585 70.6754 78.3418 68.6281 82.5241C68.6235 82.5337 68.6184 82.5432 68.6129 82.5527C68.6082 82.5631 68.6022 82.5755 68.5958 82.5875L68.5813 82.6178C68.5733 82.637 68.565 82.6527 68.555 82.6705L68.5228 82.7305C68.5195 82.7376 68.513 82.75 68.5093 82.757C67.582 84.6406 66.6036 86.4152 65.6 88.0311C65.589 88.0506 65.5781 88.0675 65.5686 88.0823C64.773 89.3672 63.9394 90.5826 63.0917 91.6953C62.4161 92.5825 61.4597 93.1992 60.3992 93.4322C58.7013 93.8086 55.9009 93.8465 52.0924 91.9688C51.0596 92.9633 47.7753 96.3519 47.1672 99.7606C46.4137 103.984 46.1453 107.609 46.1428 107.645C46.1388 107.7 46.128 107.754 46.1101 107.806C45.9847 108.17 42.9825 116.738 37.8591 118.297C35.7005 118.953 33.9305 119.365 32.5285 119.304L32.5256 119.303ZM29.6527 86.4186C29.765 86.4234 29.8767 86.4584 29.9753 86.5241C31.0623 87.2478 32.7805 87.4551 32.7977 87.4571C32.9849 87.4788 33.1532 87.5832 33.2558 87.7418C33.3584 87.9 33.3858 88.0961 33.3298 88.2766C33.1661 88.8036 33.0175 89.344 32.8758 89.9287C31.7404 94.6226 31.643 100.216 32.5776 107.029C32.6052 107.23 32.5351 107.432 32.3891 107.573C32.3745 107.588 30.6322 109.353 30.2651 113.478C30.2352 113.787 30.2152 114.111 30.2049 114.445C30.1516 116.049 30.4481 117.076 31.1115 117.586C32.222 118.44 34.4641 118.002 37.4884 117.082C41.7644 115.781 44.5836 108.294 44.8834 107.466C44.9295 106.882 45.2173 103.463 45.9176 99.5381C46.7159 95.0634 51.364 90.9023 51.5614 90.7275C51.7575 90.5538 52.0401 90.5187 52.2724 90.6393C55.9485 92.5469 58.5714 92.5373 60.1246 92.1932C60.8937 92.0241 61.5887 91.5745 62.0823 90.9258C62.9089 89.8418 63.7218 88.6556 64.4984 87.4C64.4998 87.3979 64.5011 87.3958 64.5025 87.3938L64.5107 87.3806C65.4947 85.7968 66.456 84.0554 67.3671 82.2046C67.3825 82.1709 67.3977 82.1428 67.4133 82.1151L67.4312 82.0815C67.4354 82.0724 67.4396 82.0637 67.4438 82.0558C67.4527 82.0359 67.4643 82.0114 67.4804 81.9824C67.4822 81.9779 67.4869 81.9675 67.4933 81.9559C70.1967 76.4314 71.6671 71.6352 71.6815 71.5871C71.7441 71.3818 71.9057 71.2216 72.1121 71.1623C72.3184 71.1031 72.5403 71.1517 72.702 71.2922L73.9363 72.3625C73.9473 72.3718 73.9578 72.3816 73.968 72.3918L74.0918 72.4976C74.3482 72.7167 74.3882 73.0984 74.1834 73.3665C73.4627 74.309 73.9032 76.4075 74.1146 77.0682C74.1372 77.1395 74.1475 77.2145 74.1442 77.2897L74.0852 78.6468C74.0844 78.6663 74.0827 78.6861 74.0801 78.7055C73.9867 79.3851 74.0577 79.8808 74.2742 80.0656C74.4755 80.2374 74.8591 80.1834 75.0113 80.1438C75.4172 79.9374 76.2695 78.1861 76.8175 76.4237C76.8838 76.2114 77.0557 76.0486 77.2715 75.9957C77.4877 75.9424 77.7148 76.0065 77.8715 76.1646C79.2043 77.5077 79.5816 79.0473 79.7614 80.2386C79.8224 80.6432 79.8627 81.0291 79.9018 81.4032C80.0145 82.4865 80.1036 83.3426 80.5961 83.7203C80.9401 83.9843 81.1765 83.9726 81.3242 83.9409C81.8558 83.8267 82.3426 83.1206 82.4709 82.8822C82.5174 82.7961 82.5836 82.7202 82.6635 82.6636C87.721 79.0794 84.7809 73.0684 84.6533 72.8142C84.6315 72.7705 84.6145 72.7244 84.603 72.6773C82.1755 62.5481 72.8373 54.8657 65.5704 53.55C65.562 53.5488 65.5536 53.5471 65.5452 53.5455L65.5154 53.54C65.4773 53.5324 65.4408 53.5253 65.4018 53.5194L32.6818 49.1757C29.0088 49.6462 24.4532 51.6219 24.4071 51.6419C24.3364 51.6727 24.2604 51.6906 24.1829 51.694C18.7822 51.942 17.1113 49.665 17.0433 49.568C16.9704 49.4649 16.9301 49.3424 16.9271 49.2161C16.8985 47.9597 16.7225 46.3692 16.4888 45.9901C16.1888 45.5013 16.0032 44.6165 15.9361 43.3593C15.9325 43.2965 15.8808 43.243 15.8159 43.2368C15.2191 43.1786 14.7804 43.3023 14.4738 43.6159C13.8395 44.2648 13.8441 45.6264 13.8993 46.0964C13.9302 46.3587 13.7961 46.6134 13.5621 46.7349C13.3281 46.8565 13.0435 46.8212 12.8474 46.645C11.4761 45.4124 8.68617 42.4205 8.02236 41.705C7.61139 41.6295 7.23641 41.6111 6.90629 41.6497C6.29633 41.7176 5.82756 41.97 5.46976 42.4216C4.59537 43.5252 4.61682 45.5686 4.69864 46.263C4.71689 46.4167 4.67844 46.5718 4.59047 46.6993C3.51415 48.257 6.0841 50.9318 8.56909 53.5191C9.15911 54.1331 9.76894 54.7679 10.3283 55.387C10.3465 55.4072 10.3637 55.4287 10.3792 55.451C13.7285 60.2857 18.9468 62.9207 26.8008 63.7435C27.118 63.7785 27.4366 63.8089 27.7551 63.835C28.0579 63.86 28.3004 64.0968 28.3329 64.3994C28.3654 64.7019 28.1793 64.9853 27.8888 65.0747C26.4741 65.5096 25.5811 66.1392 25.2353 66.9459C24.8702 67.7984 25.2458 68.5987 25.2497 68.6065C25.3236 68.755 25.3364 68.9267 25.2856 69.0846L24.6747 70.9811C24.6243 71.1378 24.5155 71.2681 24.371 71.3457C17.6498 74.955 13.4748 80.7671 11.9618 88.621C10.8251 94.5228 11.7028 99.4258 11.7117 99.4749C11.7411 99.635 11.7081 99.8005 11.6197 99.9369C11.5962 99.9731 9.26924 103.588 9.01819 106.716C8.98267 107.125 8.98657 107.511 9.02977 107.869C9.18257 109.147 10.0141 109.689 10.6851 109.919C12.3011 110.473 14.5604 109.832 15.9411 108.43C17.6872 106.654 20.44 103.92 22.3586 102.017C22.878 101.504 23.1447 100.795 23.0921 100.07C22.579 92.8268 25.8336 89.6551 25.972 89.5239L29.1983 86.5843C29.3255 86.4683 29.4894 86.4127 29.6522 86.4198L29.6527 86.4186ZM64.4608 87.4775C64.4608 87.4775 64.4608 87.4784 64.4603 87.4788C64.4603 87.4788 64.4604 87.4779 64.4608 87.4775ZM64.5242 87.3604C64.5242 87.3604 64.5242 87.3604 64.5238 87.3613C64.5238 87.3613 64.5238 87.3608 64.5242 87.3604Z" fill="#371A45"/>
<path d="M25.458 31.3659C25.7272 35.8867 27.1386 40.3673 29.7163 44.3615C30.2422 45.1756 30.8139 45.9684 31.4348 46.7367C31.736 47.1115 32.0522 47.4807 32.3774 47.8468C33.3636 48.9448 34.4191 49.9447 35.5326 50.8466C36.4908 51.6262 37.4936 52.3318 38.5283 52.9643C39.7776 53.729 41.0776 54.3849 42.4123 54.9343C42.8999 55.133 43.391 55.3187 43.8857 55.4906C52.9501 58.6224 63.3791 56.9615 71.0279 50.245C82.2976 40.3532 83.2629 23.241 73.1882 12.0244C71.2464 9.86566 69.0369 8.07736 66.6528 6.67836C66.3755 6.51212 66.0925 6.35325 65.8066 6.20061C65.0447 5.7871 64.2672 5.41145 63.477 5.07422C61.6489 4.2958 59.7497 3.72185 57.8204 3.35414C55.892 2.98435 53.9277 2.82013 51.9699 2.86417C51.3475 2.87777 50.7255 2.91171 50.1034 2.9681C49.171 3.05292 48.2434 3.18244 47.3191 3.36377C42.7161 4.25302 38.2918 6.33013 34.5381 9.62625C28.0549 15.3159 24.9834 23.3943 25.458 31.3659Z" fill="white"/>
<path d="M51.7388 57.0639C49.0905 56.9487 46.4376 56.4543 43.861 55.5641C43.3696 55.3932 42.8727 55.2055 42.3838 55.0064C41.0309 54.4494 39.7206 53.7846 38.4891 53.0308C37.4367 52.3869 36.4258 51.6725 35.4852 50.9068C34.3607 49.9963 33.2963 48.9843 32.3214 47.899C31.964 47.4967 31.6548 47.133 31.3761 46.7858C30.766 46.0307 30.1858 45.2295 29.6527 44.404C27.1345 40.5018 25.6578 35.995 25.3821 31.3711C24.8855 23.0304 28.2045 15.0839 34.4882 9.56901C38.1214 6.37821 42.5537 4.20656 47.3055 3.28862C48.2051 3.11214 49.1446 2.97892 50.0974 2.89201C50.7081 2.83682 51.3377 2.80152 51.9694 2.7879C53.9327 2.74368 55.9063 2.90872 57.8359 3.27899C59.7845 3.6505 61.6931 4.23122 63.5084 5.004C64.2982 5.34036 65.084 5.7206 65.8446 6.13321C66.1495 6.296 66.4276 6.45296 66.6937 6.61236C69.1268 8.04018 71.3318 9.84396 73.2471 11.9727C78.153 17.4351 80.6172 24.4454 80.1862 31.7126C79.7585 38.922 76.5247 45.5243 71.0804 50.3027C65.7151 55.0138 58.7488 57.368 51.7405 57.0632L51.7388 57.0639ZM25.5351 31.3617C25.8091 35.9588 27.2771 40.4398 29.7811 44.3198C30.3114 45.1405 30.888 45.9378 31.4949 46.6885C31.7719 47.0335 32.0796 47.3959 32.4354 47.7955C33.4047 48.8746 34.4633 49.8809 35.5813 50.7864C36.517 51.5481 37.5217 52.2585 38.5684 52.8987C39.7933 53.6488 41.0961 54.3095 42.4416 54.8632C42.928 55.0614 43.4224 55.2481 43.9109 55.418C53.2547 58.6463 63.6259 56.6418 70.9768 50.1872C76.3899 45.4363 79.6051 38.8721 80.0306 31.7037C80.4594 24.4779 78.0091 17.5076 73.1306 12.0761C71.2262 9.95881 69.0335 8.16531 66.6136 6.74484C66.3491 6.58636 66.0735 6.43035 65.7703 6.26849C65.0133 5.85773 64.2321 5.47981 63.4469 5.14534C61.642 4.37683 59.7438 3.79953 57.8061 3.42976C55.887 3.06164 53.9239 2.89748 51.9716 2.94133C51.3433 2.95509 50.717 2.99012 50.1102 3.04506C49.1625 3.13134 48.2285 3.26396 47.3336 3.43937C42.6087 4.35212 38.2014 6.51173 34.5884 9.68435C28.3407 15.1678 25.0407 23.0685 25.5347 31.3612L25.5351 31.3617Z" fill="#371A45"/>
<g opacity="0.2">
<path d="M71.0279 50.2445C63.3794 56.9624 52.9492 58.6232 43.8853 55.4902C43.3902 55.3187 42.8995 55.1334 42.4127 54.9343C41.0772 54.3853 39.778 53.7286 38.5287 52.9648C37.4945 52.331 36.4908 51.6261 35.5334 50.847C34.4187 49.945 33.3644 48.9457 32.3769 47.8472C32.053 47.4803 31.7364 47.112 31.4344 46.7375C30.8135 45.9684 30.2435 45.1748 29.7167 44.3611C27.1391 40.3669 25.7268 35.8871 25.458 31.3651C25.3095 28.8815 25.5059 26.3863 26.0428 23.9567C26.3989 28.2656 27.7975 32.5177 30.2563 36.3285C30.7813 37.1438 31.353 37.9362 31.974 38.7049C32.2743 39.0793 32.5909 39.4476 32.9165 39.8146C33.9039 40.9131 34.9582 41.9124 36.0713 42.8144C37.0303 43.5935 38.0324 44.2983 39.0666 44.9321C40.3159 45.6959 41.6172 46.3527 42.9506 46.9017C43.439 47.1008 43.9298 47.2861 44.4249 47.4576C53.4888 50.5906 63.9169 48.9297 71.5675 42.2119C76.0313 38.2944 78.8764 33.2432 80.0609 27.8767C80.7414 36.0514 77.6799 44.4063 71.0275 50.2445L71.0279 50.2445Z" fill="#371A45"/>
</g>
<path d="M51.7159 57.5801C49.0191 57.4628 46.3167 56.9594 43.6926 56.0528C43.1921 55.8789 42.6864 55.6879 42.1888 55.485C40.8089 54.9167 39.4743 54.2398 38.2193 53.4715C37.1475 52.8157 36.1177 52.0877 35.1591 51.3077C34.0146 50.3807 32.93 49.35 31.9369 48.2444C31.5718 47.8338 31.2574 47.463 30.9731 47.1093C30.3526 46.3414 29.7616 45.5249 29.2187 44.6842C26.6521 40.707 25.1471 36.1139 24.8664 31.4012C24.3599 22.8999 27.7429 14.8004 34.1475 9.17932C37.8493 5.92838 42.3654 3.71547 47.2071 2.78027C48.1225 2.60067 49.0799 2.46483 50.05 2.37656C50.6726 2.32019 51.3141 2.28456 51.9572 2.2706C53.9561 2.22537 55.9667 2.39373 57.932 2.77105C59.9162 3.14962 61.8603 3.74077 63.7092 4.52814C64.5139 4.87109 65.3146 5.25791 66.0893 5.67875C66.3987 5.84385 66.6838 6.00493 66.9573 6.16931C69.4316 7.62137 71.6779 9.45871 73.6286 11.6271C78.6281 17.1931 81.1389 24.3376 80.6997 31.7438C80.2634 39.0926 76.9674 45.8219 71.4185 50.6927C65.9521 55.493 58.8554 57.8911 51.7155 57.5805L51.7159 57.5801ZM26.0505 31.3307C26.319 35.8391 27.759 40.2337 30.2147 44.0388C30.7347 44.8442 31.3005 45.6262 31.8962 46.3628C32.1689 46.7025 32.4709 47.0579 32.8211 47.4514C33.7702 48.508 34.8089 49.4957 35.9061 50.3842C36.8246 51.1319 37.8109 51.8293 38.8378 52.4572C40.0397 53.1931 41.3181 53.8413 42.6382 54.385C43.1146 54.579 43.6008 54.7623 44.0809 54.9298C53.2498 58.0971 63.4257 56.1316 70.6377 49.7985C75.9462 45.1391 79.0993 38.7023 79.5162 31.6733C79.9369 24.5869 77.5331 17.75 72.7482 12.4225C70.8793 10.3448 68.7278 8.5849 66.3536 7.19184C66.092 7.03517 65.8238 6.88373 65.5284 6.7256C64.7826 6.32083 64.0159 5.94989 63.2457 5.622C61.4744 4.86766 59.612 4.30124 57.71 3.93852C55.8261 3.57702 53.8997 3.41572 51.9838 3.45904C51.3669 3.47245 50.7525 3.50673 50.1571 3.56046C49.2272 3.64498 48.3111 3.77541 47.4332 3.94733C42.7965 4.84316 38.4735 6.96111 34.9295 10.0736C28.8027 15.4509 25.5664 23.1989 26.0509 31.3307L26.0505 31.3307Z" fill="#371A45"/>
<path d="M51.7079 57.7526C48.9946 57.6346 46.2762 57.1283 43.6364 56.2159C43.1325 56.0407 42.6243 55.8487 42.1243 55.6448C40.7356 55.0732 39.3923 54.3921 38.1299 53.6188C37.0515 52.9594 36.0152 52.2268 35.0509 51.4419C33.8999 50.5096 32.8087 49.4722 31.8097 48.3601C31.4421 47.9463 31.1257 47.5738 30.8398 47.2178C30.2156 46.4456 29.6211 45.6243 29.075 44.7783C26.4922 40.7763 24.9778 36.1544 24.6955 31.412C24.1858 22.8572 27.5901 14.7065 34.0351 9.0499C37.7602 5.7788 42.3039 3.55227 47.1755 2.61116C48.0964 2.43053 49.0593 2.29366 50.0354 2.2048C50.6618 2.14818 51.3076 2.1123 51.9545 2.09808C53.966 2.05299 55.9885 2.22228 57.9655 2.60138C59.9614 2.98216 61.9172 3.57679 63.7773 4.36888C64.587 4.71373 65.3926 5.10331 66.1719 5.52647C66.4829 5.69249 66.7705 5.85494 67.0465 6.02071C69.5349 7.48058 71.795 9.32911 73.7574 11.5112C78.7879 17.112 81.3145 24.3008 80.872 31.7535C80.4333 39.1487 77.1164 45.9207 71.5324 50.8214C66.0326 55.6507 58.8917 58.0642 51.7083 57.7518L51.7079 57.7526ZM26.222 31.3204C26.4888 35.7995 27.9196 40.1649 30.359 43.9451C30.8759 44.7453 31.4381 45.5224 32.0297 46.2543C32.3012 46.5922 32.6012 46.9454 32.949 47.3367C33.8916 48.3862 34.9239 49.3672 36.0137 50.2499C36.9269 50.9932 37.9067 51.6856 38.927 52.3099C40.121 53.0408 41.3916 53.6852 42.703 54.2252C43.176 54.4181 43.6593 54.6005 44.1365 54.7662C53.2467 57.9135 63.3578 55.9605 70.5237 49.6686C75.797 45.0399 78.9297 38.6454 79.3437 31.6628C79.7615 24.6229 77.3735 17.8307 72.6192 12.5376C70.7624 10.4732 68.6248 8.72445 66.2659 7.3401C66.0055 7.18391 65.7398 7.03384 65.4465 6.87749C64.7044 6.47458 63.9427 6.1064 63.1774 5.78042C61.4177 5.03082 59.567 4.46829 57.6772 4.1078C55.805 3.74851 53.8908 3.58858 51.9872 3.63117C51.3741 3.64474 50.7635 3.67876 50.1723 3.73226C49.2484 3.81618 48.3378 3.94559 47.4659 4.11691C42.8586 5.00682 38.5633 7.11158 35.0425 10.2035C28.9561 15.5453 25.7415 23.243 26.222 31.3208L26.222 31.3204Z" fill="#371A45"/>
<path d="M26.7653 38.1925C36.543 55.0217 59.6873 57.1631 68.9247 40.3764C75.2095 28.9555 68.7158 13.9732 57.2 8.62826C48.8187 4.73827 38.9408 4.55645 29.3716 15.7341C29.3716 15.7341 25.9125 21.3346 25.6706 26.0313C25.4287 30.728 25.9953 35.3413 25.9953 35.3413L26.7653 38.1925Z" fill="#371A45"/>
<path d="M68.9243 40.376C59.6873 57.1627 36.543 55.0209 26.7648 38.1929L26.6095 37.6147C41.258 47.9323 61.6601 45.974 71.3204 29.1752C71.5874 32.9885 70.8635 36.8514 68.9247 40.376L68.9243 40.376Z" fill="#220F2D"/>
<path d="M48.5817 55.4881C43.9884 55.2883 39.3495 53.9395 35.1504 51.5106L35.0519 51.4428C33.8991 50.5095 32.808 49.4722 31.8089 48.36C31.4414 47.9463 31.125 47.5738 30.8391 47.2178C30.2149 46.4456 29.6204 45.6242 29.0743 44.7783C26.4914 40.7762 24.9771 36.1543 24.6947 31.4119C24.1851 22.8572 27.5894 14.7065 34.0344 9.04986C37.7595 5.77876 42.3032 3.55223 47.1748 2.61113L47.2519 2.59627L47.3305 2.59757C50.9546 2.64972 54.7454 3.58255 58.6001 5.37166C65.5386 8.59191 71.1555 15.0251 73.6244 22.5808C75.8485 29.3866 75.3167 36.3267 72.1268 42.1231C68.6552 48.4309 63.3414 52.7359 56.7598 54.5731C54.1235 55.309 51.3608 55.609 48.5817 55.4881ZM35.9677 50.2128C42.3418 53.8825 49.7666 54.9331 56.3494 53.096C62.5257 51.3717 67.5181 47.3217 70.7869 41.3829C73.7694 35.9633 74.2608 29.4556 72.1702 23.0584C69.8308 15.8998 64.5173 9.80806 57.9566 6.76309C54.3257 5.07817 50.7708 4.19415 47.3863 4.13209C42.8108 5.03016 38.5436 7.12851 35.0422 10.2031C28.9554 15.5453 25.7408 23.2421 26.2217 31.3204C26.4885 35.7995 27.9193 40.1648 30.3588 43.9451C30.8756 44.7453 31.4378 45.5224 32.0295 46.2542C32.3009 46.5922 32.6009 46.9454 32.9487 47.3367C33.878 48.3712 34.8939 49.3392 35.9673 50.2123L35.9677 50.2128Z" fill="#371A45"/>
<path d="M48.5477 52.2369C39.656 51.8502 31.2977 46.624 26.4916 38.3525L26.4708 38.316L25.6808 35.3802C25.6752 35.3337 25.114 30.6851 25.3543 26.015C25.5974 21.2912 28.9592 15.7987 29.1024 15.5669L29.1312 15.5275C37.3742 5.89925 46.863 3.48116 57.3334 8.34052C63.4168 11.164 68.3415 16.8059 70.5075 23.4334C72.4545 29.391 71.9913 35.4624 69.2025 40.53C65.1543 47.8864 58.1172 52.1618 49.896 52.2587C49.4456 52.2641 48.9961 52.2569 48.5481 52.2374L48.5477 52.2369ZM27.0602 38.0689C31.9976 46.5392 40.7407 51.7322 49.8885 51.6235C57.8754 51.529 64.7129 47.3737 68.6478 40.2229C71.3503 35.3113 71.7972 29.4188 69.9054 23.6305C67.7932 17.1675 62.9938 11.6666 57.067 8.91602C46.892 4.19404 37.6608 6.55006 29.6285 15.921C29.4022 16.2941 26.2143 21.6277 25.987 26.0472C25.7579 30.4967 26.2655 34.9299 26.3069 35.2803L27.0602 38.0689Z" fill="#371A45"/>
<path d="M80.4301 44.4628C78.4456 49.4171 73.8178 52.3914 70.0923 51.1048C66.3667 49.8182 64.9555 44.759 66.94 39.8047C66.952 39.7734 66.966 39.741 66.9797 39.7098C68.9837 34.8123 73.5786 31.8848 77.2779 33.1623C80.156 34.1558 81.6524 37.4015 81.2704 41.1099C81.1574 42.2016 80.8811 43.3354 80.4301 44.462L80.4301 44.4628Z" fill="white"/>
<g opacity="0.2">
<path d="M80.4301 44.4628C78.4456 49.4171 73.8179 52.3914 70.0923 51.1048C66.3667 49.8181 64.9556 44.7589 66.9401 39.8047C66.952 39.7734 66.9661 39.741 66.9797 39.7098C67.1856 40.3596 67.6226 41.0805 68.5537 41.21C70.1848 41.4359 74.1757 39.1879 74.1757 39.1879C74.1757 39.1879 77.2578 40.0014 81.2705 41.1103C81.1575 42.202 80.8811 43.3358 80.4302 44.4624L80.4301 44.4628Z" fill="#371A45"/>
</g>
<path d="M71.5973 52.1597C71.0007 52.1338 70.4128 52.0256 69.8431 51.8293C68.1852 51.2565 66.888 50.031 66.0919 48.2855C64.9508 45.783 65.0014 42.5876 66.2305 39.5192C68.3611 34.1994 73.4292 31.0235 77.5279 32.4387C79.1862 33.0115 80.4835 34.237 81.2792 35.9828C82.4203 38.4854 82.3696 41.6808 81.1405 44.7492C79.3059 49.3296 75.2932 52.3213 71.5973 52.1606L71.5973 52.1597ZM75.6702 33.632C72.6211 33.4994 69.2405 36.1196 67.6505 40.0897C66.5926 42.7309 66.5305 45.5564 67.4841 47.6476C68.1015 49.0024 69.0901 49.9468 70.3424 50.3795C73.6823 51.5329 77.8896 48.7508 79.7214 44.1774C80.7794 41.5363 80.8418 38.7107 79.8882 36.6196C79.2704 35.2648 78.2822 34.3204 77.03 33.8877C76.5898 33.7355 76.1339 33.6517 75.6711 33.6316L75.6702 33.632Z" fill="#371A45"/>
<path d="M80.4834 45.8489C82.334 41.9032 81.6586 37.6802 78.9747 36.4165C76.2909 35.1529 72.6149 37.3271 70.7642 41.2728C68.9135 45.2185 69.589 49.4416 72.2728 50.7052C74.9567 51.9689 78.6327 49.7946 80.4834 45.8489Z" fill="white"/>
<g opacity="0.2">
<path d="M72.6612 50.8577C75.4833 51.8077 79.0937 49.3085 80.7279 45.2747C80.9063 44.8372 81.0513 44.3984 81.1691 43.9651C79.3186 46.4515 76.6586 47.7607 74.4657 47.0202C71.9895 46.1836 70.9214 43.0043 71.7638 39.535C71.2782 40.2242 70.8523 40.9973 70.5119 41.836C68.8777 45.8699 69.8408 49.9083 72.6612 50.8582L72.6612 50.8577Z" fill="#371A45"/>
</g>
<path d="M73.7232 51.8265C73.2802 51.8072 72.8432 51.7281 72.4183 51.5851C71.1776 51.1673 70.2026 50.2506 69.5992 48.9337C68.6726 46.9119 68.7492 44.1513 69.8037 41.5486C71.6141 37.0793 75.5758 34.4335 78.8224 35.527C80.063 35.9448 81.0381 36.8614 81.6415 38.1788C82.5676 40.2001 82.4911 42.9611 81.4369 45.5635C79.8633 49.4479 76.6648 51.954 73.7233 51.8261L73.7232 51.8265ZM77.4847 36.8251C75.2161 36.7264 72.5118 38.9389 71.2209 42.1253C70.3226 44.3435 70.2358 46.649 70.9894 48.2935C71.4126 49.2163 72.0752 49.8521 72.9055 50.1318C75.3039 50.9388 78.5622 48.5835 80.0189 44.9876C80.9172 42.7694 81.004 40.4638 80.2504 38.8193C79.8277 37.8961 79.165 37.2607 78.3343 36.9811C78.061 36.8891 77.7762 36.8382 77.4843 36.8255L77.4847 36.8251Z" fill="#371A45"/>
<g opacity="0.5">
<path d="M61.062 16.3216C61.062 16.3216 51.052 10.5262 42.0881 13.9575C42.0787 13.9609 42.0692 13.9647 42.0598 13.9681C40.1739 14.6917 37.2359 17.0872 35.9849 18.6572C34.3306 20.7337 33.4999 22.4067 32.8259 23.9073C30.7789 28.473 30.6855 30.9973 30.6855 30.9973C29.1341 27.415 28.8781 24.0173 30.5449 20.1971C30.71 19.821 30.8949 19.4393 31.0968 19.0533C31.143 18.9642 31.1907 18.8769 31.2406 18.7897C31.239 18.788 31.2407 18.7864 31.2442 18.7848C31.7089 18.0324 32.3579 17.0665 33.1821 16.0379C35.6661 12.9348 39.7277 9.46735 45.1411 9.32623C55.2629 9.06162 61.6566 16.0132 61.0616 16.3207L61.062 16.3216Z" fill="white"/>
</g>
<g opacity="0.5">
<path d="M65.8681 31.8423C66.2121 29.5401 64.8697 27.4308 62.8699 27.1311C60.8701 26.8314 58.97 28.4548 58.626 30.757C58.282 33.0592 59.6244 35.1684 61.6242 35.4681C63.6241 35.7678 65.5241 34.1445 65.8681 31.8423Z" fill="white"/>
</g>
<g opacity="0.5">
<path d="M62.9378 39.8049C62.991 38.8449 62.3584 38.0292 61.525 37.983C60.6915 37.9368 59.9728 38.6776 59.9196 39.6377C59.8665 40.5977 60.499 41.4134 61.3325 41.4596C62.1659 41.5058 62.8847 40.765 62.9378 39.8049Z" fill="white"/>
</g>
<path d="M18.1935 49.2275L17.4756 51.1553L16.9278 49.1725C16.8295 48.8175 17.0374 48.4495 17.3917 48.351C17.8995 48.1926 18.3918 48.7405 18.1935 49.2275Z" fill="#371A45"/>
<path d="M4.09827 45.7023C4.08477 45.7018 4.07151 45.7054 4.05868 45.7087C4.05184 45.7105 4.05136 45.7117 4.05942 45.7112C4.09522 45.7141 4.22247 45.7137 4.26133 45.7145C5.76958 45.6844 6.9946 46.792 7.56908 48.1034C7.32636 47.8526 7.08183 47.6048 6.801 47.4041C6.11074 46.8789 5.22362 46.623 4.39801 46.8967C4.35604 46.9093 4.25364 46.9409 4.21176 46.9513C4.17326 46.9619 4.08555 46.9666 4.04311 46.9707C3.2099 46.9137 3.2624 45.6872 4.09827 45.7023Z" fill="#371A45"/>
<path d="M9.81829 49.843C11.3097 49.1403 13.5388 49.6913 14.112 51.3534C12.8531 50.3528 11.3698 50.0807 9.81829 49.843Z" fill="#371A45"/>
<path d="M16.0435 52.4964C15.6261 53.4228 14.8582 54.0608 13.974 54.5243C14.1534 53.5392 15.0999 52.7311 16.0435 52.4964Z" fill="#371A45"/>
<path d="M20.0369 63.6988C19.7901 63.6881 19.5618 63.5324 19.4703 63.2857C17.0882 56.8649 21.8013 51.2003 22.0031 50.9621C22.2295 50.695 22.6295 50.6624 22.8961 50.8891C23.1627 51.1159 23.1951 51.5163 22.9692 51.7835C22.9247 51.8362 18.538 57.1287 20.6579 62.8431C20.7797 63.1716 20.6129 63.5371 20.2847 63.6592C20.203 63.6899 20.1188 63.7024 20.0365 63.6988L20.0369 63.6988Z" fill="#371A45"/>
<path d="M27.3088 63.9689C28.7398 63.0036 29.8252 61.5687 30.6158 60.0396C30.2101 61.7184 29.4708 63.3395 28.3593 64.6758C28.2733 64.7776 28.1822 64.8812 28.0671 64.9914C27.3452 65.6305 26.489 64.478 27.3088 63.9685L27.3088 63.9689Z" fill="#371A45"/>
<path d="M51.833 91.9456C51.6891 91.9393 51.547 91.8844 51.4323 91.7791C51.1747 91.5421 51.1575 91.1402 51.3944 90.8824C53.8165 88.2383 57.1562 84.3337 57.1892 84.2949C57.3157 84.1466 57.5035 84.065 57.698 84.0735C59.3426 84.145 60.4636 83.796 61.0297 83.0353C61.6618 82.1864 61.6514 80.7348 60.9993 78.8376C60.9404 78.666 60.9574 78.4774 61.0463 78.319C63.5946 73.7862 64.5227 68.8706 64.532 68.8219C64.5955 68.4794 64.9212 68.2513 65.2643 68.312C71.2238 69.359 72.6625 71.2002 72.8069 71.4069C73.0075 71.6939 72.9383 72.0899 72.6514 72.2913C72.3684 72.4899 71.9794 72.4247 71.7763 72.1461C71.7366 72.0965 70.5097 70.6254 65.6481 69.6744C65.3191 71.1447 64.3341 74.9654 62.2871 78.6953C62.9981 80.9094 62.9168 82.6239 62.0446 83.7949C61.254 84.8559 59.8786 85.3789 57.9536 85.3511C57.1971 86.2327 54.4231 89.4532 52.3272 91.7413C52.1954 91.8851 52.0131 91.9543 51.8326 91.9464L51.833 91.9456Z" fill="#371A45"/>
<path d="M32.1125 87.9246C32.7533 86.4962 33.7162 85.2513 34.8322 84.1731C34.1105 85.4285 33.5441 86.8186 33.3368 88.2511C33.1877 89.2396 31.7527 88.8586 32.1125 87.9246Z" fill="#371A45"/>
<path d="M29.5975 87.6869C29.4765 87.6816 29.3556 87.6416 29.2503 87.5642C24.3628 83.963 23.0501 79.5371 22.8095 76.4578C22.5494 73.1273 23.44 70.6686 23.4779 70.5652C23.5996 70.2363 23.9632 70.0687 24.2919 70.1901C24.6197 70.3116 24.7873 70.6764 24.6665 71.0049C24.6579 71.0278 23.8257 73.3463 24.0767 76.4104C24.4103 80.4819 26.4034 83.8903 30.0012 86.5413C30.283 86.7488 30.3435 87.1462 30.1363 87.4291C30.0064 87.6064 29.8017 87.6962 29.598 87.6873L29.5975 87.6869Z" fill="#371A45"/>
<path d="M25.1424 90.9504C18.1657 90.6469 12.2236 85.2369 11.9631 84.996C11.7059 84.7586 11.6895 84.3576 11.9264 84.0994C12.1634 83.8416 12.564 83.8247 12.8217 84.0617C12.8847 84.1199 19.2171 89.876 26.0879 89.689C26.4368 89.6741 26.7289 89.9553 26.7382 90.3061C26.7475 90.6563 26.4719 90.9481 26.1223 90.9578C25.7943 90.9669 25.4668 90.9641 25.1428 90.95L25.1424 90.9504Z" fill="#371A45"/>
<path d="M38.362 100.263C33.9564 100.071 31.1353 98.0976 30.9541 97.9673C30.6697 97.7631 30.6045 97.3667 30.8084 97.0816C31.0122 96.7969 31.4078 96.7315 31.6918 96.9354C31.9616 97.1275 38.1827 101.431 46.6925 97.0388C47.0034 96.8783 47.3853 97.0008 47.5455 97.3127C47.7056 97.6247 47.5833 98.0073 47.272 98.1679C43.9156 99.8996 40.8795 100.372 38.3615 100.263L38.362 100.263Z" fill="#371A45"/>
<path d="M43.6347 72.9346C43.0289 72.9082 42.6084 72.8281 42.5568 72.8174C42.5401 72.8141 42.5238 72.81 42.5075 72.8055L35.8205 70.9059C35.3677 70.8693 33.1318 70.6102 31.767 69.0132C30.9421 68.048 30.6026 66.8049 30.7573 65.3189C31.1353 61.6909 33.5952 59.6846 35.0276 58.8121C35.5891 58.4701 36.2248 58.2771 36.8662 58.2537C40.6723 58.1155 46.3369 60.1871 49.142 61.7027C51.8884 63.1869 51.1835 66.4305 50.4268 67.9386C50.2907 68.2101 49.9816 68.3466 49.6893 68.2649C49.1089 68.1011 48.9085 68.2754 48.8426 68.3327C48.3677 68.7458 48.3697 70.0407 48.445 70.6032C48.4658 70.7578 48.4289 70.9155 48.3421 71.0447C47.1612 72.7923 44.9565 72.9921 43.6343 72.9345L43.6347 72.9346ZM42.8243 71.5761C43.0941 71.6229 45.8923 72.0708 47.1624 70.5097C47.1077 69.8431 47.0786 68.1895 48.0105 67.3761C48.2979 67.1251 48.77 66.8737 49.4786 66.938C49.8298 66.007 50.4006 63.8254 48.5409 62.8202C45.8622 61.3724 40.4827 59.3937 36.9124 59.5222C36.4865 59.538 36.0624 59.6674 35.6855 59.8967C34.4537 60.6475 32.3385 62.3671 32.0171 65.4508C31.8997 66.5762 32.1394 67.4974 32.7291 68.1872C33.8702 69.5228 35.941 69.6421 35.9621 69.643C36.0097 69.6451 36.0571 69.6531 36.1031 69.6665L42.8247 71.5757L42.8243 71.5761Z" fill="#371A45"/>
<path d="M44.8521 65.0444C45.2352 64.0931 44.8477 63.0398 43.9867 62.6918C43.1256 62.3437 42.1171 62.8328 41.734 63.7841C41.3509 64.7354 41.7384 65.7888 42.5995 66.1368C43.4605 66.4848 44.4691 65.9957 44.8521 65.0444Z" fill="#6ED9FF"/>
<g opacity="0.61">
<path d="M41.8415 64.7348C42.2244 63.7836 43.2331 63.2946 44.0942 63.6426C44.5134 63.812 44.8195 64.1494 44.9796 64.56C45.0897 63.7591 44.703 62.9811 43.9868 62.6916C43.1257 62.3437 42.117 62.8327 41.734 63.7839C41.5374 64.2718 41.545 64.7863 41.7139 65.219C41.7361 65.0573 41.777 64.8947 41.8415 64.7348Z" fill="white"/>
</g>
<path d="M43.089 66.7634C42.8569 66.7533 42.627 66.7039 42.4064 66.6147C41.2836 66.1609 40.7677 64.8046 41.2563 63.5911C41.4895 63.0121 41.9158 62.549 42.4565 62.2866C43.0144 62.0161 43.6255 61.9901 44.1788 62.2137C45.3016 62.6675 45.8175 64.0238 45.3289 65.2372C45.0958 65.8163 44.6694 66.2798 44.1287 66.5422C43.7932 66.7047 43.4387 66.779 43.0885 66.7638L43.089 66.7634ZM43.4535 63.0962C43.2708 63.0883 43.0839 63.128 42.9047 63.2147C42.5947 63.3651 42.3483 63.6357 42.2109 63.9766C41.9346 64.6627 42.1952 65.4169 42.7921 65.6585C43.0721 65.7715 43.3877 65.7556 43.6809 65.6137C43.9909 65.4633 44.2377 65.1928 44.3747 64.8514C44.651 64.1653 44.39 63.411 43.7935 63.1699C43.6843 63.1258 43.5699 63.1013 43.4535 63.0962Z" fill="#371A45"/>
<path d="M43.331 69.8593C43.1808 69.8528 43.0297 69.8377 42.8786 69.8134C39.4018 69.261 33.3231 67.944 31.6758 65.3288C31.2163 64.5997 31.1048 63.8197 31.3434 63.01C31.4425 62.6738 31.795 62.482 32.1305 62.5809C32.4661 62.6802 32.6574 63.0333 32.5587 63.3692C32.4243 63.8254 32.4844 64.2326 32.7477 64.6507C33.7413 66.2285 37.6035 67.6892 43.0777 68.5593C43.979 68.7027 44.8768 68.3817 45.4792 67.701C46.1465 66.9464 46.754 66.129 47.2846 65.2715C48.5145 63.2829 47.5509 62.2862 47.5408 62.276C47.2924 62.0289 47.2913 61.6273 47.538 61.3784C47.7847 61.1299 48.1855 61.1282 48.4339 61.3754C48.5035 61.4445 50.1159 63.103 48.3613 65.9397C47.7929 66.8587 47.1424 67.7343 46.4271 68.5428C45.6375 69.4352 44.5052 69.9095 43.3314 69.8585L43.331 69.8593Z" fill="#371A45"/>
<path d="M45.0596 72.5459C44.7609 72.5329 44.5044 72.3082 44.4607 72.0009L44.0493 69.0968C44.0002 68.7498 44.2411 68.4282 44.5874 68.3789C44.9327 68.33 45.2541 68.571 45.3036 68.9179L45.715 71.8221C45.7642 72.169 45.5232 72.4906 45.177 72.54C45.1374 72.5454 45.098 72.5475 45.0596 72.5459Z" fill="#371A45"/>
<path d="M34.7955 67.1927C34.6896 67.1881 34.5838 67.1513 34.4935 67.0808C34.2637 66.901 34.2232 66.5684 34.4028 66.3382L36.8237 63.2361L36.4001 62.9945C36.1674 62.8619 36.0074 62.6347 35.9605 62.3705C35.9137 62.1067 35.9862 61.8379 36.1591 61.6336C38.735 58.5828 38.8046 58.5473 38.9304 58.4833C39.1906 58.3514 39.5082 58.4554 39.6402 58.7158C39.7554 58.9431 39.6907 59.2152 39.4989 59.3683C39.3615 59.5063 38.6617 60.3091 37.089 62.1701L37.506 62.408C37.7329 62.5374 37.8915 62.7586 37.942 63.0149C37.9926 63.2713 37.9291 63.5362 37.7684 63.7423L35.2338 66.9898C35.1246 67.1295 34.9592 67.1994 34.7947 67.1922L34.7955 67.1927ZM39.4093 59.4266C39.4093 59.4266 39.4093 59.4266 39.4089 59.4266C39.4089 59.4266 39.4089 59.4266 39.4093 59.4266Z" fill="#371A45"/>
<path d="M61.5712 79.2649C61.3379 79.2547 61.1187 79.1147 61.0183 78.8863C56.8385 69.3633 49.8462 68.2929 49.7764 68.2831C49.4306 68.2354 49.1875 67.9161 49.2343 67.5695C49.2811 67.2225 49.5981 66.98 49.9444 67.0252C50.2588 67.0668 57.6956 68.162 62.178 78.3755C62.3187 78.6963 62.1735 79.0712 61.8533 79.2123C61.7615 79.2528 61.6652 79.2698 61.5712 79.2657L61.5712 79.2649Z" fill="#371A45"/>
<path d="M57.6421 85.3414C57.5147 85.3358 57.3881 85.2918 57.2797 85.2074C57.0042 84.9917 56.9556 84.5927 57.171 84.3161L58.6469 82.4251C56.8368 76.6636 51.6902 72.2633 47.6709 71.3061C47.3308 71.2252 47.1204 70.8827 47.2012 70.5419C47.2824 70.201 47.6241 69.9914 47.9639 70.071C52.407 71.1287 58.1079 76.0217 59.9563 82.3787C60.0133 82.5747 59.9728 82.7865 59.847 82.9475L58.1684 85.0982C58.0372 85.2662 57.8387 85.3499 57.6412 85.3413L57.6421 85.3414Z" fill="#371A45"/>
<path d="M31.4756 65.2659C31.4262 65.2637 31.3763 65.2556 31.3266 65.2412C30.0972 64.8853 27.7843 65.096 27.761 65.0979C27.4129 65.1311 27.1041 64.8741 27.0715 64.5249C27.039 64.1762 27.295 63.8667 27.6431 63.8339C27.7475 63.8241 30.2179 63.5986 31.6785 64.0213C32.0146 64.1185 32.2081 64.4705 32.111 64.8072C32.0283 65.0946 31.7604 65.2778 31.4752 65.2654L31.4756 65.2659Z" fill="#371A45"/>
<path d="M24.6553 69.5227C24.4853 69.5153 24.319 69.4399 24.2 69.2996C23.9737 69.0326 24.0059 68.6316 24.2728 68.4048C24.3882 68.3064 27.1593 66.0075 31.8353 67.183C32.1748 67.268 32.3804 67.6129 32.2955 67.9531C32.2105 68.293 31.8663 68.4995 31.5268 68.414C27.4755 67.3953 25.1163 69.3522 25.093 69.3719C24.9662 69.4799 24.8093 69.529 24.6553 69.5223L24.6553 69.5227Z" fill="#371A45"/>
<path d="M55.6696 87.0452C57.3218 87.9905 58.8101 89.2552 59.8794 90.8325C59.5363 90.5198 59.1878 90.2217 58.8102 89.963C57.7198 89.201 56.4599 88.5943 55.1965 88.2229C54.3067 87.9305 54.8237 86.6386 55.6696 87.0448L55.6696 87.0452Z" fill="#371A45"/>
<path d="M64.0709 82.7872C63.9262 82.7809 63.781 82.7572 63.6374 82.7158L62.1361 82.2833C61.8001 82.1865 61.6057 81.835 61.7024 81.4977C61.799 81.161 62.1499 80.9657 62.4863 81.0634L63.9876 81.4959C64.2122 81.5599 64.4509 81.486 64.5961 81.3055C67.0415 78.2617 68.0914 75.4075 68.4994 73.977C68.5617 73.7586 68.4878 73.5229 68.3108 73.3758C66.6778 72.018 64.565 71.3093 64.5438 71.3025C64.2117 71.1923 64.0311 70.8337 64.1407 70.5009C64.2503 70.1681 64.6077 69.9875 64.9399 70.0964C65.0353 70.1277 67.2965 70.883 69.1197 72.3987C69.683 72.8671 69.9177 73.6236 69.7172 74.3257C69.2828 75.8486 68.1681 78.8834 65.5828 82.1011C65.2105 82.5644 64.6473 82.8119 64.0705 82.7868L64.0709 82.7872Z" fill="#371A45"/>
<path d="M70.7155 71.2782C70.5189 71.2697 70.3296 71.17 70.2131 70.9925C69.3667 69.7023 69.7164 67.6199 71.1485 65.4237C72.8845 62.7612 76.1912 60.1407 79.3517 60.6768C79.6966 60.7354 79.9288 61.0632 79.8702 61.4088C79.8116 61.7544 79.4858 61.9864 79.1396 61.9285C76.6588 61.5089 73.7746 63.7169 72.2089 66.1179C71.0952 67.8256 70.7275 69.4654 71.2718 70.2952C71.4641 70.5877 71.3827 70.9815 71.0903 71.1742C70.975 71.2501 70.8433 71.2838 70.7155 71.2782Z" fill="#371A45"/>
<g opacity="0.2">
<path d="M83.0286 83.1805C83.0286 83.1805 81.82 85.4577 80.2103 84.2228C79.2859 83.5133 79.3875 82.0035 79.1347 80.332C84.6037 79.3775 81.4697 72.8578 81.4697 72.8578C78.6627 64.0392 71.9228 60.1673 67.7329 58.5648C65.9034 57.8651 63.8832 57.7903 62.0311 58.4282C53.6424 61.316 45.8139 56.8354 45.8139 56.8354L59.3391 53.6115C59.3391 53.6115 60.0127 53.4798 60.8875 53.6788C61.3207 53.7781 63.4381 53.3492 65.6653 52.9209L65.6675 52.921C73.5358 54.3369 82.7912 62.3978 85.2187 72.5274C85.2187 72.5274 88.5895 79.2395 83.0286 83.1805Z" fill="#371A45"/>
</g>
<g opacity="0.2">
<path d="M64.1722 65.5011C64.1722 65.5011 60.9683 63.4556 60.8136 67.7906C60.661 72.1256 58.7676 73.2844 58.7676 73.2844L57.6703 71.9807C57.6703 71.9807 58.4408 78.7068 55.8699 75.7147C55.6788 75.4924 54.5329 74.2862 54.5329 74.2862C54.5329 74.2862 44.405 81.4257 42.9092 89.091C41.4134 96.7563 40.7887 106.26 40.7887 106.26C40.7887 106.26 35.8109 117.058 29.7319 113.086C29.701 113.406 29.6802 113.74 29.6692 114.089C29.4967 119.27 32.8972 118.836 37.77 117.353C42.6427 115.871 45.6061 107.263 45.6061 107.263C45.6061 107.263 45.8702 103.622 46.6388 99.3132C47.4074 95.005 52.0787 90.8664 52.0787 90.8664C55.954 92.8776 58.7458 92.8338 60.3592 92.4761C61.2853 92.2729 62.1078 91.7304 62.6839 90.974C63.5558 89.8301 64.3754 88.6247 65.1347 87.3976C65.1392 87.3914 65.1437 87.3852 65.1461 87.379C66.5512 84.8605 67.7171 82.7404 68.037 82.1401C68.0463 82.1193 68.0555 82.1028 68.0647 82.0862C68.0762 82.0634 68.0877 82.0427 68.0969 82.0262C68.1039 82.0096 68.1108 81.9972 68.1155 81.9868C68.1202 81.9764 68.1249 81.966 68.1317 81.9536C68.1386 81.9412 68.1457 81.9245 68.1549 81.908C70.9152 76.2695 72.3851 71.4347 72.3851 71.4347L73.6194 72.505L74.6756 70.4754C74.6756 70.4754 70.8494 65.0502 64.1722 65.5011ZM62.743 81.3528L61.9884 77.7598L65.1101 71.1014L67.916 71.7529L62.743 81.3528Z" fill="#371A45"/>
</g>
<g opacity="0.2">
<path d="M35.5801 83.0801L34.3481 84.8247L33.3578 86.5034L32.2601 89.7787C32.3992 89.2044 32.5526 88.6414 32.7246 88.0876C32.7246 88.0876 30.8572 87.873 29.6247 87.0527L26.4073 89.9837C26.4073 89.9837 23.2264 92.9968 23.724 100.022C23.79 100.934 23.4532 101.826 22.804 102.467C21.2225 104.035 18.2338 107.001 16.3918 108.874C13.7936 111.514 8.82701 111.51 8.40089 107.944C8.35122 107.531 8.34879 107.101 8.38681 106.664C12.284 110.214 18.3512 105.13 18.1973 95.6923C18.0456 86.2547 24.3545 80.4232 24.3545 80.4232C30.9384 86.4914 35.425 83.1962 35.5801 83.0801Z" fill="#371A45"/>
</g>
<g opacity="0.2">
<path d="M45.2529 60.7542C45.2529 60.7542 45.8745 65.707 35.9269 67.7489L35.6112 70.2449C35.6112 70.2449 36.0114 73.1922 41.9617 73.6628C47.9119 74.1334 49.3577 71.8666 49.3577 71.8666C49.3577 71.8666 49.8415 67.526 51.0526 68.0298L50.076 66.9559C50.076 66.9559 50.758 62.1407 46.9895 61.3151" fill="#371A45"/>
</g>
<g opacity="0.2">
<path d="M31.2233 58.6089L30.1934 61.0527L28.6946 63.44L26.7349 64.3735C19.8572 63.6529 13.8103 61.5155 9.85884 55.8117C6.79586 52.4212 2.39628 48.7586 4.06986 46.3365C4.06986 46.3365 3.48604 41.3912 6.83319 41.0179C4.80308 43.6193 6.84859 47.224 6.84859 47.224L5.6145 46.4418C5.68309 46.5655 7.88018 50.5241 10.7631 52.8055C13.6932 55.1207 14.9955 53.8007 14.9955 53.8007C21.2719 59.6502 31.2233 58.6089 31.2233 58.6089Z" fill="#371A45"/>
</g>
</g>
<defs>
<clipPath id="clip0_1_20">
<rect width="85" height="118" fill="white" transform="translate(5.12732) rotate(2.4904)"/>
</clipPath>
</defs>
</svg>
