<svg width="34" height="34" viewBox="0 0 34 34" fill="none" xmlns="http://www.w3.org/2000/svg">
<g clip-path="url(#clip0_1_438)">
<path d="M16.9976 34C26.3851 34 33.9952 26.4159 33.9952 17.0604C33.9952 7.70495 26.3851 0.12085 16.9976 0.12085C7.61007 0.12085 0 7.70495 0 17.0604C0 26.4159 7.61007 34 16.9976 34Z" fill="#FF2424"/>
<path d="M28.9987 5.06157C28.0722 5.12925 27.165 5.46765 26.3452 5.92692C24.7153 6.83577 23.3231 8.2329 22.6052 9.95393C21.8873 11.675 21.9018 13.7247 22.8089 15.3491C23.2698 16.1661 23.9295 16.8526 24.5989 17.5149C25.0889 17.9983 25.6128 18.5107 25.7486 19.1827C25.9232 20.0336 25.4187 20.8941 24.7541 21.4597C23.4541 22.5668 21.4846 22.8181 19.9469 22.0688C18.8215 21.5177 17.9774 20.5218 16.8908 19.8885C15.3628 18.999 13.3836 18.9362 11.8022 19.7242C10.2208 20.5122 9.08572 22.1317 8.88683 23.8817C8.78981 24.7519 8.86743 25.7333 8.27562 26.3811C7.73717 26.966 6.78639 27.082 6.33525 27.7347C5.85987 28.4212 6.14607 29.3348 6.22368 30.1664C9.15363 32.5594 12.9034 33.9952 16.9878 33.9952C26.3743 33.9952 33.9854 26.4101 33.9854 17.0556C33.9854 12.3663 32.0742 8.12655 28.989 5.05673L28.9987 5.06157Z" fill="#E72121"/>
<path d="M29.217 5.28877C28.7076 5.51115 28.2274 5.78187 27.8054 6.0671C25.4866 7.64793 23.6724 10.5921 24.7105 13.1978C25.5206 15.233 27.8054 16.4029 28.6106 18.443C29.2946 20.1737 28.7367 22.209 27.5871 23.6738C26.4423 25.1386 24.7881 26.1248 23.1097 26.937C21.1693 27.8797 18.8458 28.6242 16.9054 27.6815C15.6539 27.0724 14.771 25.8396 13.4807 25.3175C11.7731 24.6262 9.59022 25.535 8.88199 27.2319C8.59579 27.9232 8.52787 28.6967 8.17861 29.359C7.8827 29.9198 7.41702 30.3452 6.86401 30.6594C9.69209 32.7527 13.1993 33.9952 16.9927 33.9952C26.3792 33.9952 33.9903 26.4101 33.9903 17.0556C33.9903 12.4823 32.1663 8.33441 29.2121 5.28394L29.217 5.28877Z" fill="#D80B0B"/>
<path d="M28.0479 8.52779C28.1207 7.76396 27.4027 7.43522 26.5296 8.45527C25.8602 9.24327 25.1374 10.5292 25.996 11.4816C26.2628 11.7765 26.646 11.8635 26.8983 11.4961C27.0535 11.2689 27.0826 10.9643 27.1165 10.6984C27.1699 10.2875 27.2378 10.0071 27.4901 9.66869C27.7035 9.3883 28.0043 8.96288 28.0431 8.52295L28.0479 8.52779Z" fill="#E72121"/>
<path d="M28.1741 12.0037C28.111 11.9022 28.0237 11.8345 27.9218 11.791C27.9073 11.7523 27.883 11.7185 27.8539 11.6894C27.7181 11.5541 27.5338 11.5831 27.3979 11.6894C27.1796 11.8635 27.1069 12.1922 27.233 12.4388C27.3494 12.6757 27.6502 12.7917 27.9024 12.7047C28.1886 12.6031 28.3439 12.2696 28.1741 12.0037Z" fill="#E72121"/>
<path d="M7.30544 19.2842C6.18973 19.1827 5.47665 20.3043 5.05462 21.1793C4.54043 22.2429 4.36579 23.5481 4.9188 24.6407C5.2244 25.245 5.70949 25.506 6.22854 25.4722C6.63117 25.6269 7.092 25.4335 7.31514 24.9694C7.94091 24.4183 7.83904 23.6448 7.78083 22.8858C8.03308 22.3347 8.57638 21.9431 8.77527 21.3872C9.11483 20.4348 8.25137 19.3713 7.30544 19.2891V19.2842Z" fill="#E72121"/>
<path d="M24.7445 18.5784C24.5213 17.9644 23.9004 17.8339 23.3377 18.066C22.5761 18.3802 20.4563 20.1786 21.6447 21.0294C22.2268 21.4452 22.9157 21.0294 23.3814 20.6427C23.5123 20.5315 23.6676 20.4155 23.8179 20.2898C23.9004 20.2994 23.9877 20.2801 24.0702 20.2124C24.5456 19.816 24.9822 19.2262 24.7445 18.5736V18.5784Z" fill="#E72121"/>
<path d="M22.1492 17.4327C22.2899 17.5245 22.4451 17.597 22.6004 17.6647C22.775 17.7372 23.0273 17.6986 23.0709 17.4713C23.0903 17.365 23.0952 17.2635 23.0855 17.1668C23.2019 16.7752 22.7993 16.2531 22.3724 16.0742C22.2996 16.0307 22.2269 15.9969 22.1492 15.9727C21.863 15.8953 21.5914 16.0597 21.4798 16.3208C21.3585 16.6012 21.4362 16.9057 21.6496 17.1184C21.7612 17.2296 21.9455 17.3505 22.1444 17.4327H22.1492Z" fill="#E72121"/>
<path d="M10.1675 18.1965C10.1287 18.1578 10.0948 18.1288 10.0511 18.0998C9.62421 17.7953 9.06636 18.0466 8.90143 18.5494C8.88688 18.5929 8.87718 18.6413 8.87232 18.6896C8.66859 19.1247 8.66374 19.6468 9.11972 19.9514C9.63877 20.2946 10.1578 19.903 10.2936 19.3809C10.4877 19.0087 10.4537 18.4962 10.1675 18.2013V18.1965Z" fill="#E72121"/>
<path d="M8.32417 17.5728C8.27566 17.5245 8.2126 17.4955 8.14954 17.481C8.02342 17.4375 7.88759 17.4375 7.75177 17.481C7.54318 17.5535 7.37825 17.7324 7.32004 17.9451C7.28608 18.066 7.28123 18.2255 7.34914 18.3367C7.42191 18.4575 7.57228 18.5107 7.69841 18.5446C7.89729 18.5977 8.12529 18.5881 8.29507 18.4624C8.4794 18.4624 8.61523 18.3125 8.62008 18.1433C8.62978 17.9064 8.50851 17.6985 8.32417 17.568V17.5728Z" fill="#E72121"/>
<path d="M17.9726 22.5667C17.9726 22.5667 17.9435 22.5232 17.9241 22.4991C17.2789 21.5854 16.2117 20.43 15.7169 21.4403C15.4647 21.9528 15.8042 22.5861 16.1535 22.9583C16.5464 23.3741 17.0752 23.5771 17.6233 23.6786C17.7689 23.7125 17.9144 23.7463 18.0551 23.7705C18.3364 23.8237 18.545 23.5626 18.4189 23.3016C18.351 23.1614 18.186 22.881 17.9677 22.5667H17.9726Z" fill="#FF2424"/>
<path d="M19.098 22.5571C18.9913 22.5474 18.87 22.6248 18.8215 22.7166C18.7342 22.881 18.7294 23.0744 18.8215 23.2387C18.9185 23.4079 19.0738 23.4901 19.263 23.5143C19.2872 23.5143 19.3115 23.5143 19.3357 23.5143C19.3551 23.524 19.3794 23.5336 19.3988 23.5433C19.651 23.6255 19.8354 23.3741 19.7917 23.1517C19.7286 22.8133 19.423 22.5958 19.0932 22.5668L19.098 22.5571Z" fill="#FF2424"/>
<path d="M19.2047 24.2104C19.1417 24.2056 19.0786 24.2008 19.0204 24.1959C18.8506 24.1814 18.6905 24.3555 18.7002 24.515C18.71 24.6987 18.8409 24.8195 19.0204 24.8341C19.0835 24.8389 19.1465 24.8437 19.2047 24.8486C19.3745 24.8631 19.5346 24.689 19.5249 24.5295C19.5152 24.3458 19.3842 24.2249 19.2047 24.2104Z" fill="#FF2424"/>
<path d="M9.91527 23.1179C9.41562 23.3693 9.34286 24.0267 9.66787 24.4425C9.75033 24.544 9.90556 24.5585 10.022 24.5053C10.5022 24.4473 10.4343 23.6545 10.3858 23.3112C10.3518 23.0937 10.0753 23.0357 9.91527 23.1179Z" fill="#FF2424"/>
<path d="M10.1723 22.0978C10.1723 22.0978 10.1335 22.1365 10.1093 22.1607C9.98799 22.2815 9.98799 22.4894 10.1093 22.6151C10.2305 22.7408 10.4391 22.736 10.5653 22.6151C10.5847 22.5958 10.6041 22.5764 10.6283 22.5522C10.7496 22.4314 10.7496 22.2235 10.6283 22.0978C10.507 21.977 10.2984 21.977 10.1723 22.0978Z" fill="#FF2424"/>
<path d="M26.3064 16.8525C26.1609 16.606 25.899 16.4658 25.6904 16.2772C25.4818 16.0839 25.4672 15.789 25.2635 15.5908C25.0549 15.3877 24.7202 15.32 24.4873 15.5134C23.8761 16.021 24.6862 16.6592 25.0452 16.9879C25.3314 17.3166 25.6952 17.5922 26.0542 17.5052C26.3501 17.4327 26.4471 17.0991 26.3016 16.8525H26.3064Z" fill="#FF2424"/>
<path d="M18.5062 27.1594C18.9816 27.3479 19.9323 27.4784 20.2816 26.9853C20.4514 26.7484 20.4029 26.4391 20.2185 26.2263C20.0439 26.0233 19.7965 25.9604 19.5394 25.9459C19.2338 25.8444 18.8942 25.8396 18.5789 25.9459C18.317 26.0378 18.055 26.2118 18.0162 26.5067C17.9774 26.821 18.2297 27.0433 18.4965 27.1497L18.5062 27.1594Z" fill="#D80B0B"/>
<path d="M22.7702 7.34821C23.0176 7.4739 23.2504 7.39655 23.4687 7.26119C23.8374 7.02431 24.1284 6.69074 24.5165 6.46352C24.9676 6.19763 26.0057 5.8834 25.9572 5.19209C25.9136 4.59746 25.0016 4.50561 24.565 4.59263C24.1284 4.67965 23.6821 4.95037 23.3329 5.29361C23.1291 5.44347 22.9399 5.61751 22.775 5.81572C22.4306 6.23631 22.125 7.01947 22.775 7.34337L22.7702 7.34821Z" fill="#D80B0B"/>
<path d="M22.2705 8.99673C22.3772 9.00156 22.4839 8.95322 22.5664 8.84686C22.6586 8.71633 22.7168 8.56163 22.7362 8.4021C22.741 8.36826 22.741 8.33442 22.7362 8.30541C22.7362 8.28124 22.7362 8.25707 22.7362 8.2329C22.7216 8.05403 22.6003 7.91867 22.416 7.91383C22.1929 7.90416 21.9794 8.04436 21.8873 8.2474C21.7805 8.47945 21.7999 8.726 21.9746 8.91938C22.0473 9.00156 22.1638 9.02573 22.2705 9.00156V8.99673Z" fill="#D80B0B"/>
<path d="M26.9225 5.19209C27.0002 5.21143 27.0875 5.2066 27.1651 5.19209C27.2864 5.15825 27.3785 5.04706 27.3931 4.9262C27.3979 4.88269 27.3931 4.84402 27.3834 4.81018C27.4173 4.69899 27.3931 4.56846 27.3058 4.48144C27.1796 4.35575 26.9759 4.36058 26.8498 4.48144C26.8304 4.50078 26.811 4.52012 26.7867 4.53946C26.6994 4.56363 26.6218 4.61197 26.5587 4.67482C26.4375 4.80051 26.4326 5.00355 26.5587 5.12925C26.6509 5.2211 26.7964 5.24527 26.9128 5.19693L26.9225 5.19209Z" fill="#D80B0B"/>
<path d="M5.87446 25.7719C5.60766 25.6994 5.23415 25.7768 4.95279 25.9556C4.84122 26.0136 4.74905 26.0958 4.68114 26.207C4.61323 26.3037 4.56472 26.4101 4.55987 26.5261C4.52591 26.995 5.00615 27.3044 5.44273 27.3044C5.72409 27.3237 6.03454 27.2222 6.21888 27.0337C6.64091 26.6131 6.44202 25.9169 5.86961 25.7671L5.87446 25.7719Z" fill="#D80B0B"/>
<path d="M4.35613 24.7422C4.23485 24.6262 4.03112 24.6262 3.90984 24.747C3.76432 24.8921 3.73036 25.1145 3.81283 25.2982C3.81768 25.3175 3.82738 25.3368 3.84193 25.3562C3.85163 25.3707 3.85648 25.3804 3.86619 25.39C3.87589 25.4045 3.89044 25.4239 3.90499 25.4384C4.10873 25.6462 4.43859 25.6124 4.58412 25.3562C4.71509 25.1241 4.60352 24.8244 4.35613 24.747V24.7422Z" fill="#D80B0B"/>
<path d="M24.565 22.9922C24.4971 23.084 24.434 23.2 24.371 23.3209C24.0023 23.8672 23.8956 24.3699 24.3516 24.5827C24.371 24.5923 24.3855 24.5923 24.4049 24.602C24.4825 24.6648 24.5796 24.718 24.7057 24.7519C25.7729 25.0323 28.8969 22.0495 27.267 21.479C27.2088 21.4597 27.1408 21.45 27.0681 21.4452C27.0002 21.3968 26.9128 21.3727 26.8061 21.4065C25.9039 21.682 25.1083 22.2187 24.5602 22.997L24.565 22.9922Z" fill="#D80B0B"/>
<path d="M26.971 20.4155C27.005 20.459 27.0389 20.5025 27.0729 20.546C27.1651 20.6523 27.2475 20.7297 27.3252 20.7974C27.4707 20.9231 27.7326 20.9279 27.8296 20.7345C27.98 20.4348 28.0382 20.0335 27.8976 19.7193C27.8733 19.6613 27.849 19.6033 27.8199 19.5549C27.6987 19.3616 27.4998 19.1972 27.2621 19.231C27.0341 19.26 26.8595 19.4534 26.8013 19.6661C26.8013 19.6758 26.8013 19.6806 26.8013 19.6903C26.7721 19.7677 26.7527 19.8547 26.7527 19.9465C26.7527 20.1351 26.8449 20.2994 26.9759 20.4155H26.971Z" fill="#D80B0B"/>
<path d="M26.0348 20.9666C26.2482 21.2035 26.6654 21.0391 26.6654 20.72C26.6654 20.401 26.2579 20.2511 26.0348 20.4735C25.9717 20.5363 25.9426 20.6234 25.9426 20.7104C25.9329 20.8022 25.9669 20.8941 26.0299 20.9666H26.0348Z" fill="#D80B0B"/>
<path d="M14.0531 2.13677C13.7766 2.15127 13.5001 2.14644 13.2333 2.06909C13.0781 2.02558 12.8986 2.03041 12.6948 2.0981C11.2444 2.59603 9.91042 3.30668 8.71709 4.27355C7.73721 5.07122 6.345 6.30882 6.37411 7.69144C6.40321 9.04023 7.84878 9.60584 9.013 9.33512C10.5992 8.96287 12.1176 7.64793 13.3788 6.68106C14.3296 5.95591 16.0371 4.79566 16.1438 3.46138C16.236 2.29147 15.0718 2.07392 14.0482 2.13194L14.0531 2.13677Z" fill="#E72121"/>
<path d="M3.42476 9.32062C3.28894 9.48015 3.14826 9.66869 3.02214 9.86206C3.01244 9.87657 3.00274 9.89591 2.98818 9.91041C2.96878 9.93941 2.94938 9.97326 2.92997 10.0023C2.92512 10.0119 2.92027 10.0216 2.91542 10.0313C2.69713 10.3987 2.53705 10.8048 2.53705 11.1963C2.53705 11.5638 2.68258 11.8538 2.90087 12.052C3.0852 12.2889 3.38111 12.4436 3.67701 12.4436C3.77403 12.4436 3.86135 12.4243 3.94381 12.4001C5.30692 12.3131 6.47598 10.2198 5.4767 9.15625C4.85578 8.49394 3.96321 8.66315 3.41991 9.31578L3.42476 9.32062Z" fill="#E72121"/>
<path d="M8.17378 10.3503C8.13012 10.3407 8.09131 10.3358 8.04765 10.3262C7.98944 10.2972 7.93123 10.273 7.87302 10.2585C7.64018 10.1957 7.33457 10.2247 7.13083 10.3552C6.92709 10.4857 6.74276 10.6839 6.6894 10.9305C6.6894 10.9498 6.6894 10.9643 6.68455 10.9788C6.52932 11.2737 6.52932 11.6315 6.6991 11.9215C6.87859 12.2309 7.18419 12.3711 7.53346 12.3953C7.79056 12.4146 8.09616 12.3324 8.3096 12.1874C8.35326 12.1584 8.39207 12.1246 8.43087 12.0956C8.75589 11.8973 8.92082 11.5203 8.87231 11.1529C8.8238 10.7758 8.55215 10.4567 8.18348 10.3552L8.17378 10.3503Z" fill="#E72121"/>
<path d="M18.3461 1.68236C18.0988 1.60985 17.7931 1.61951 17.5749 1.76938C17.2644 1.97726 17.1334 2.27699 17.1916 2.6444C17.2013 2.70241 17.2256 2.75559 17.2547 2.80393C17.2547 3.16651 17.3275 3.52908 17.57 3.77564C17.8756 4.08503 18.3995 4.05119 18.7003 3.7563C18.8797 3.57743 18.9913 3.33571 19.0398 3.08916C19.1465 2.51387 18.9719 1.8709 18.351 1.68719L18.3461 1.68236Z" fill="#E72121"/>
<path d="M16.5222 4.98905C16.202 5.23561 15.683 5.52083 15.6151 5.95109C15.5763 6.04294 15.552 6.13963 15.5617 6.24598C15.5811 6.50221 15.746 6.82127 16.0371 6.86478C16.1729 6.88412 16.299 6.91313 16.4349 6.86478C16.4688 6.85511 16.5076 6.83578 16.5416 6.82127C16.7453 6.77776 16.9248 6.66174 17.08 6.49254C17.1916 6.37168 17.3032 6.25082 17.4148 6.12996C17.6622 5.85924 17.701 5.46765 17.473 5.17276C17.2741 4.91654 16.8181 4.76184 16.527 4.98422L16.5222 4.98905Z" fill="#E72121"/>
<path d="M2.39147 13.2558C1.82391 14.4354 2.42057 15.7503 3.9001 15.1653C4.20085 15.0445 4.7102 14.532 5.04976 14.6529C5.31656 14.7496 5.59792 15.3297 5.86957 15.5086C6.57295 15.9872 7.42186 15.992 8.23681 15.8857C9.86671 15.6778 11.385 14.8898 12.3164 13.512C12.8306 12.753 12.7385 11.7813 13.4661 11.2447C14.2762 10.6452 15.2852 10.2972 15.3385 9.18042C15.3482 8.9532 15.1979 8.64864 14.9796 8.55679C14.2374 8.24256 13.8881 8.38275 13.1896 8.75983C12.559 9.09824 11.7489 9.44147 11.2347 9.96358C10.7496 10.4615 10.7205 11.0465 10.5507 11.6749C10.3809 12.2986 9.98314 12.7868 9.46894 13.1736C8.95474 13.5603 8.30957 13.9761 7.67895 14.1356C6.81549 14.3532 6.5681 13.9036 5.95688 13.4637C5.56881 13.1833 5.11768 13.0527 4.63259 13.1784C4.13779 13.309 3.07059 14.4934 3.05604 13.425C3.05604 13.0866 2.5467 12.9077 2.38176 13.2413L2.39147 13.2558Z" fill="#E72121"/>
<path d="M20.01 2.58637C21.1402 3.97383 19.1805 5.03739 18.4528 5.92207C17.7009 6.83577 17.8853 7.58026 18.2394 8.60514C18.5596 9.543 17.9872 9.92492 17.2595 10.389C16.7696 10.7032 16.2796 11.0272 15.8479 11.4139C14.9165 12.2454 14.1258 13.338 13.9221 14.5852C13.8736 14.8656 13.9463 15.233 14.2422 15.3684C14.2956 15.3926 14.3538 15.4167 14.4072 15.4361C14.6158 15.5134 14.9456 15.4361 15.0863 15.2572C16.1147 13.9664 16.9491 12.811 18.3219 11.8538C19.5103 11.0223 20.5484 9.89591 20.0148 8.34409C19.9227 8.0782 19.6122 7.70112 19.6074 7.42556C19.6074 7.00497 19.9954 6.74875 20.2768 6.5022C20.7716 6.05744 21.2179 5.61268 21.4992 4.99871C22.0425 3.8143 21.6787 2.55737 20.5872 1.84188C20.107 1.52765 19.6995 2.19479 20.0148 2.58154L20.01 2.58637Z" fill="#E72121"/>
<path d="M2.37693 17.4423C2.32842 17.481 2.5176 17.9693 2.58067 18.0708C2.73104 18.3174 2.95904 18.5107 3.21128 18.6413C3.80794 18.9458 4.44826 18.8733 4.95276 18.4479C5.11769 18.3077 5.1856 18.0273 5.11769 17.8243C4.96246 17.3553 4.58409 17.3457 4.16691 17.4327C3.78369 17.51 3.72548 17.3795 3.546 17.0653C3.34711 16.7172 3.03665 16.403 2.60007 16.4223C2.19744 16.4416 1.86758 16.7172 1.78027 17.1039C1.6978 17.4714 2.09557 17.6551 2.36723 17.4423H2.37693Z" fill="#E72121"/>
<path d="M2.01312 19.3567C2.05193 19.6806 2.16835 19.961 2.40605 20.1931C2.73106 20.5073 3.25981 20.5218 3.55086 20.1592C3.71094 19.961 3.72064 19.7338 3.55086 19.5356C3.66728 19.671 3.50235 19.4583 3.4878 19.4389C3.38108 19.2987 3.221 19.2117 3.05607 19.1585C3.04151 19.1585 3.03181 19.1537 3.01726 19.1489C2.96875 19.1295 2.96875 19.1344 3.01726 19.1489C3.06577 19.1682 3.06577 19.1682 3.01726 19.1489C3.00756 19.144 2.99301 19.1344 2.9833 19.1295C2.9445 19.1005 2.93965 19.1005 2.9736 19.1295C3.00756 19.1585 3.00756 19.1537 2.9736 19.1247C2.9639 19.115 2.9542 19.1054 2.9445 19.0957C2.9833 19.1489 2.98815 19.1537 2.9542 19.1054C2.83293 18.9265 2.60978 18.8056 2.38664 18.8733C2.19261 18.9362 1.99372 19.1344 2.01797 19.3567H2.01312Z" fill="#E72121"/>
<g style="mix-blend-mode:multiply" opacity="0.28">
<path d="M24.5456 1.87573C25.6759 4.14304 26.3113 6.69558 26.3113 9.39798C26.3113 18.7525 18.7003 26.3376 9.31376 26.3376C6.6021 26.3376 4.04082 25.6994 1.76575 24.5779C4.54532 30.1615 10.3227 34 16.9976 34C26.3841 34 33.9952 26.4149 33.9952 17.0604C33.9952 10.4084 30.1436 4.65065 24.5408 1.88057L24.5456 1.87573Z" fill="#B70909"/>
</g>
<g style="mix-blend-mode:multiply" opacity="0.28">
<path d="M28.3535 4.45242C29.736 6.90344 30.5267 9.7267 30.5267 12.7385C30.5267 22.093 22.9157 29.6781 13.5292 29.6781C9.16334 29.6781 5.1856 28.0392 2.17804 25.3417C5.08858 30.5047 10.638 34 17.0024 34C26.3889 34 34 26.4149 34 17.0604C34 12.052 31.8171 7.55608 28.3535 4.45242Z" fill="#B70909"/>
</g>
<g style="mix-blend-mode:overlay" opacity="0.92">
<path d="M28.7853 4.85853C25.7292 1.92408 21.5768 0.116028 16.9976 0.116028C15.2901 0.116028 13.6359 0.372249 12.0836 0.836346C11.9623 0.875021 11.8411 0.913696 11.7198 0.952371C11.6228 0.986211 11.5258 1.01522 11.4287 1.04906C11.2444 1.1119 11.0649 1.17959 10.8854 1.24727C10.7933 1.28111 10.7011 1.31978 10.6089 1.35362C10.4537 1.41647 10.2985 1.48415 10.1432 1.55183C10.0268 1.60501 9.9104 1.65335 9.79398 1.70653C9.67756 1.75971 9.56114 1.81772 9.43986 1.87573C9.35255 1.91924 9.27008 1.96275 9.18277 2.00626C9.00328 2.09811 8.8238 2.1948 8.64917 2.29149C8.5764 2.335 8.50364 2.37367 8.42602 2.41718C8.24169 2.52354 8.05735 2.63473 7.87787 2.75075C7.80996 2.79426 7.74205 2.83293 7.67898 2.87644C7.56256 2.95379 7.44614 3.02631 7.33457 3.10849C7.29576 3.13266 7.25696 3.16167 7.21815 3.19068C7.01441 3.33571 6.81067 3.48557 6.61178 3.63544C6.56328 3.67411 6.51477 3.71279 6.46141 3.75146C6.27222 3.90133 6.08789 4.05119 5.90355 4.21072C5.85989 4.24456 5.82109 4.28324 5.77743 4.31708C5.43787 4.61198 5.11286 4.92621 4.79755 5.24528C4.78784 5.25494 4.77329 5.26945 4.76359 5.27912C4.5647 5.48699 4.36582 5.6997 4.17663 5.91725C4.15723 5.94142 4.13782 5.96076 4.11842 5.98493C3.91953 6.21215 3.73035 6.44419 3.54601 6.68108C1.32915 9.56235 0 13.1543 0 17.0604C0 22.3444 2.4303 27.0627 6.23341 30.1712C3.02211 27.0917 1.02354 22.765 1.02354 17.9741C1.02354 15.7648 1.45527 13.6522 2.22657 11.7185C3.43444 12.5693 4.90427 13.0721 6.49536 13.0721C10.5847 13.0721 13.9027 9.7654 13.9027 5.69004C13.9027 4.28324 13.5049 2.9683 12.8161 1.84673C14.4557 1.31978 16.2069 1.03455 18.0211 1.03455C22.1056 1.03455 25.8553 2.47036 28.7853 4.86336V4.85853Z" fill="#FFF2C8"/>
</g>
<g style="mix-blend-mode:overlay">
<path d="M14.6643 5.40962C14.6643 6.79224 15.7897 7.91382 17.1771 7.91382C18.5644 7.91382 19.6898 6.79224 19.6898 5.40962C19.6898 4.027 18.5644 2.90543 17.1771 2.90543C15.7897 2.90543 14.6643 4.027 14.6643 5.40962Z" fill="#FFF2C8"/>
</g>
<g style="mix-blend-mode:overlay">
<path d="M13.99 10.2295C13.99 11.1335 14.7225 11.8635 15.6296 11.8635C16.5367 11.8635 17.2692 11.1335 17.2692 10.2295C17.2692 9.32545 16.5367 8.59546 15.6296 8.59546C14.7225 8.59546 13.99 9.32545 13.99 10.2295Z" fill="#FFF2C8"/>
</g>
<g style="mix-blend-mode:lighten" opacity="0.14">
<path d="M26.355 2.91512C23.6676 1.15058 20.4563 0.116028 16.9976 0.116028C14.6352 0.116028 12.3844 0.599463 10.3373 1.46965C9.68241 1.75004 9.05179 2.06911 8.44058 2.42201C8.37751 2.46069 8.3096 2.49453 8.24654 2.5332C8.09616 2.62506 7.95064 2.71691 7.80511 2.8136C7.72749 2.86194 7.65473 2.91028 7.57712 2.95863C7.43644 3.05048 7.30061 3.14717 7.16479 3.24869C7.08717 3.30187 7.00956 3.35504 6.93195 3.41306C6.79612 3.50974 6.66515 3.61126 6.53902 3.71279C6.46141 3.7708 6.38379 3.82881 6.31103 3.89166C6.18491 3.99318 6.05878 4.10437 5.93266 4.21072C5.85989 4.27357 5.78713 4.33642 5.71437 4.39926C5.58824 4.51045 5.46697 4.62164 5.3457 4.73283C5.27779 4.80052 5.20502 4.86336 5.13711 4.93104C5.01584 5.04707 4.89942 5.16793 4.78299 5.28395C4.71993 5.35163 4.65202 5.41931 4.58896 5.48699C4.47254 5.61269 4.36096 5.73838 4.24454 5.86407C4.18633 5.93175 4.12812 5.99943 4.06506 6.06712C3.95349 6.19764 3.84192 6.333 3.7352 6.46353C3.68184 6.53121 3.62848 6.59889 3.57512 6.66657C3.4684 6.80677 3.35683 6.94697 3.25496 7.092C3.20645 7.15484 3.16279 7.22253 3.11428 7.29021C3.00756 7.44007 2.90569 7.58994 2.80382 7.7398C2.76502 7.80265 2.72621 7.86066 2.6874 7.92351C2.58553 8.08304 2.48366 8.24741 2.38179 8.41178C2.35269 8.46495 2.31873 8.51813 2.28963 8.57131C2.18776 8.74535 2.08589 8.92422 1.98887 9.10309C1.96947 9.14176 1.95006 9.18044 1.93066 9.21428C0.703381 11.5589 0 14.2275 0 17.0604C0 23.2339 3.31317 28.6339 8.26595 31.5925C3.65758 28.5614 0.620916 23.3596 0.620916 17.4472C0.620916 14.8946 1.19332 12.4726 2.20716 10.302C3.26466 11.1093 4.61321 11.5976 6.07819 11.5976C9.49322 11.5976 12.2631 8.96773 12.2631 5.72388C12.2631 4.27841 11.7101 2.95379 10.7981 1.93374C12.8889 1.02005 15.193 0.50761 17.6185 0.50761C20.8152 0.50761 23.7985 1.38746 26.355 2.91512Z" fill="#FFF2C8"/>
</g>
<path style="mix-blend-mode:multiply" d="M32.7549 23.289C36.2715 14.6147 32.0664 4.74181 23.3624 1.23719C14.6585 -2.26743 4.75176 1.92338 1.23514 10.5976C-2.28148 19.2719 1.92367 29.1448 10.6276 32.6494C19.3316 36.154 29.2383 31.9632 32.7549 23.289Z" fill="url(#paint0_linear_1_438)"/>
<g style="mix-blend-mode:overlay" opacity="0.19">
<path d="M8.73164 8.0202C9.77112 8.0202 10.6138 7.1804 10.6138 6.14447C10.6138 5.10853 9.77112 4.26874 8.73164 4.26874C7.69216 4.26874 6.84949 5.10853 6.84949 6.14447C6.84949 7.1804 7.69216 8.0202 8.73164 8.0202Z" fill="white"/>
</g>
<g style="mix-blend-mode:overlay" opacity="0.19">
<path d="M6.8689 7.41106C6.8689 7.69629 7.10174 7.9235 7.38309 7.9235C7.66445 7.9235 7.89729 7.69145 7.89729 7.41106C7.89729 7.13067 7.66445 6.89862 7.38309 6.89862C7.10174 6.89862 6.8689 7.13067 6.8689 7.41106Z" fill="white"/>
</g>
<g style="mix-blend-mode:overlay" opacity="0.19">
<path d="M9.50289 9.10309C10.2182 9.10309 10.7981 8.52519 10.7981 7.81232C10.7981 7.09944 10.2182 6.52155 9.50289 6.52155C8.78758 6.52155 8.2077 7.09944 8.2077 7.81232C8.2077 8.52519 8.78758 9.10309 9.50289 9.10309Z" fill="white"/>
</g>
</g>
<defs>
<linearGradient id="paint0_linear_1_438" x1="4.9735" y1="4.95936" x2="28.9324" y2="29.0003" gradientUnits="userSpaceOnUse">
<stop stop-color="#FF0000"/>
<stop offset="1" stop-color="#930005"/>
</linearGradient>
<clipPath id="clip0_1_438">
<rect width="34" height="34" fill="white"/>
</clipPath>
</defs>
</svg>
