<svg width="226" height="222" viewBox="0 0 226 222" fill="none" xmlns="http://www.w3.org/2000/svg">
<mask id="mask0_91_4" style="mask-type:luminance" maskUnits="userSpaceOnUse" x="26" y="26" width="174" height="170">
<path d="M193.588 142.477C211.489 99.0407 189.92 49.6661 145.412 32.1959C100.905 14.7257 50.3132 35.7756 32.4124 79.2121C14.5115 122.649 36.0803 172.023 80.5877 189.493C125.095 206.964 175.687 185.914 193.588 142.477Z" fill="white"/>
</mask>
<g mask="url(#mask0_91_4)">
<path d="M193.588 142.477C211.489 99.0407 189.92 49.6661 145.412 32.1959C100.905 14.7257 50.3132 35.7756 32.4124 79.2121C14.5115 122.649 36.0803 172.023 80.5877 189.493C125.095 206.964 175.687 185.914 193.588 142.477Z" fill="#EEE9FF"/>
<path opacity="0.71" d="M168.356 55.7168C168.792 60.0283 165.846 63.9147 164.561 68.0642C164.166 69.2989 163.959 70.7361 164.685 71.8089C165.286 72.6995 166.406 73.1246 167.443 73.4687C173.541 75.4726 180.821 77.4158 183.123 83.2859C184.472 86.6864 183.932 91.1194 186.877 93.3662C190.134 95.8559 194.925 93.6091 197.911 90.7955C200.94 87.9617 203.47 84.3587 203.926 80.2901C204.362 76.2823 202.744 72.3756 201.168 68.6512C196.086 56.6884 190.797 44.422 181.589 35.1311C175.325 28.8158 165.224 41.5275 161.035 45.4341C164.374 48.2274 167.941 51.4661 168.356 55.7573V55.7168Z" fill="#C8C6D3"/>
<path opacity="0.71" d="M171.633 96.5239C171.799 96.6453 172.006 96.6858 172.193 96.706C180.904 97.3942 178.498 80.533 172.317 78.2255C168.501 76.8086 165.452 80.0067 165.618 83.6502C165.805 88.2855 170.326 91.4027 171.301 95.7952C171.363 96.0583 171.426 96.3417 171.633 96.5036V96.5239Z" fill="#C8C6D3"/>
<path opacity="0.71" d="M183.974 117.413C184.741 118.263 186.131 118.101 187.209 117.697C190.922 116.259 193.494 112.373 193.307 108.487C192.996 101.766 184.057 95.8356 178.664 101.827C176.735 103.973 176.445 107.495 178.332 109.681C179.369 110.875 180.904 111.604 181.879 112.839C182.667 113.851 183.02 115.126 183.434 116.34C183.559 116.725 183.704 117.11 183.974 117.413Z" fill="#C8C6D3"/>
<path opacity="0.71" d="M171.094 138.363C172.069 139.011 173.624 138.687 174.309 139.618C174.91 140.428 174.495 141.764 175.325 142.371C176.051 142.918 177.088 142.371 177.752 141.723C179.867 139.719 181.153 136.886 181.236 134.011C181.236 133.505 181.236 132.979 181.029 132.513C180.427 131.157 178.457 129.963 178.457 129.963C177.067 129.214 175.263 129.518 173.935 130.408C172.629 131.299 171.716 132.635 170.99 134.011C170.223 135.428 169.746 137.473 171.094 138.363Z" fill="#C8C6D3"/>
<path opacity="0.71" d="M150.312 129.983C152.407 130.894 154.896 130.833 156.928 129.821C158.359 129.113 159.604 127.959 161.201 127.696C161.325 127.676 161.45 127.655 161.574 127.655C163.192 127.534 164.872 128.242 166.448 127.777C168.543 127.149 169.476 124.518 168.688 122.534C166.593 117.13 158.38 117.008 153.859 118.871C150.312 120.328 144.09 127.291 150.312 130.003V129.983Z" fill="#C8C6D3"/>
<path opacity="0.71" d="M160.329 134.173C159.915 134.801 159.645 135.59 159.894 136.299C160.101 136.865 160.62 137.27 161.18 137.493C162.86 138.161 165.037 137.128 165.514 135.408C165.909 133.991 165.079 132.412 163.772 131.744C162.362 132.109 161.097 132.959 160.329 134.173Z" fill="#C8C6D3"/>
<path opacity="0.71" d="M162.901 131.461C163.212 131.501 163.503 131.623 163.772 131.764C163.918 131.724 164.063 131.663 164.208 131.643L162.88 131.461H162.901Z" fill="#C8C6D3"/>
<path opacity="0.71" d="M200.006 124.194C197.891 124.275 195.879 125.145 194.116 126.319C192.457 127.433 190.901 128.931 190.466 130.854C190.113 132.432 190.549 134.072 190.424 135.671C190.009 140.954 183.725 144.982 184.72 150.204C185.156 152.492 186.919 154.273 188.723 155.791C190.569 157.35 192.706 158.868 195.153 159.01C197.497 159.131 199.757 157.957 201.458 156.398C203.698 154.334 205.233 151.561 205.751 148.605C206.166 146.278 205.959 143.889 206.27 141.561C206.602 139.072 207.535 136.663 207.722 134.153C208.095 129.477 205.399 124.032 200.006 124.235V124.194Z" fill="#C8C6D3"/>
<path opacity="0.71" d="M172.691 148.646C169.227 147.33 164.789 147.715 162.445 150.508C161.263 151.905 160.744 153.706 160.246 155.467C159.707 157.35 159.189 159.232 158.649 161.115C158.442 161.864 158.214 162.653 158.401 163.422C158.94 165.77 162.3 165.952 164.27 167.41C165.743 168.503 166.386 170.385 166.469 172.167C166.552 173.968 166.137 175.749 165.888 177.531C165.68 178.948 165.598 180.506 166.489 181.64C167.319 182.712 168.812 183.117 170.181 182.996C171.55 182.874 172.836 182.308 174.08 181.741C176.694 180.567 179.328 179.373 181.485 177.51C183.642 175.648 185.26 173.017 185.197 170.223C185.156 168.604 184.575 167.045 183.974 165.527C181.257 158.504 180.634 151.743 172.691 148.646Z" fill="#C8C6D3"/>
<path opacity="0.71" d="M153.672 146.804C153.174 146.541 152.573 146.581 152.013 146.682C148.715 147.269 145.749 148.99 142.887 150.69L144.11 150.265C143.011 150.771 142.036 151.54 141.435 152.553C140.502 154.111 140.502 156.216 141.642 157.613C142.783 159.01 145.106 159.455 146.558 158.362C147.512 157.653 147.968 156.5 148.694 155.548C149.71 154.233 151.224 153.403 152.469 152.31C153.713 151.217 154.792 149.638 154.46 148.018C154.356 147.512 154.087 147.027 153.63 146.784L153.672 146.804Z" fill="#C8C6D3"/>
<path opacity="0.71" d="M111.008 44.4625C111.61 44.4018 112.232 44.3006 112.813 44.503C114.472 45.0495 114.555 47.3166 115.675 48.6323C116.836 49.9884 119.035 50.0694 120.632 49.28C128.575 45.2721 121.69 35.293 114.887 34.787C108.001 34.281 99.1239 45.677 111.029 44.4827L111.008 44.4625Z" fill="#C8C6D3"/>
<path opacity="0.71" d="M98.0454 85.2088C100.223 83.3061 102.173 81.1605 103.853 78.8124C105.201 76.93 106.404 74.8248 106.425 72.5173C106.466 68.6107 103.189 65.4935 99.912 63.2669C97.0913 61.344 93.8973 59.6639 90.4543 59.6841C88.2143 59.6841 86.0781 60.4331 83.8796 60.8784C80.25 61.6071 76.4959 61.5261 72.8456 62.2143C70.3152 62.6799 67.7434 63.6515 65.8145 65.2506C59.6338 68.2463 54.4902 73.2662 51.5657 79.3792C50.3006 82.0309 49.4502 85.0873 50.4665 87.8402C52.3746 92.9208 59.5301 94.277 62.2056 99.0338C64.5493 103.204 62.8693 109.013 66.1049 112.555C69.2574 115.976 74.9196 115.065 79.3788 113.547C85.6425 111.401 92.4247 107.677 93.5861 101.301C94.3535 97.0501 92.4247 92.2731 94.7061 88.5689C95.5358 87.2329 96.8217 86.2209 98.0246 85.1885L98.0454 85.2088Z" fill="#C8C6D3"/>
<path opacity="0.71" d="M70.8753 50.0896C68.9049 50.96 67.4946 53.0044 67.5568 55.1095C70.0457 55.0286 72.5345 54.9274 75.0234 54.8464C75.7286 54.8262 76.4752 54.7857 77.1182 54.4618C78.57 53.6926 78.736 51.5065 77.6989 50.2718C76.6619 49.0168 74.816 48.6525 73.1775 48.9359C71.5597 49.2192 70.0871 50.0289 68.656 50.8386L70.8753 50.1099V50.0896Z" fill="#C8C6D3"/>
<path opacity="0.71" d="M52.5616 64.1373C52.1882 65.3922 52.9971 67.0318 54.3245 67.0318C55.0504 67.0318 55.6934 66.5663 56.2741 66.1209C57.7674 64.9672 59.24 63.8134 60.7334 62.6596C61.2104 62.2953 61.7082 61.8905 61.8326 61.3237C61.9985 60.5748 61.4178 59.7853 60.6711 59.5222C59.9245 59.259 59.0948 59.4007 58.3482 59.6436C56.2119 60.3926 54.5734 62.0524 53.0179 63.6717L55.0712 61.1618C54.0341 61.9714 52.9349 62.8823 52.5823 64.1373H52.5616Z" fill="#C8C6D3"/>
<path opacity="0.71" d="M162.88 108.689C165.909 108.689 165.909 104.094 162.88 104.094C159.852 104.094 159.852 108.689 162.88 108.689Z" fill="#C8C6D3"/>
<path opacity="0.71" d="M163.212 99.0743C167.111 99.0743 167.111 93.1638 163.212 93.1638C159.313 93.1638 159.313 99.0743 163.212 99.0743Z" fill="#C8C6D3"/>
<path opacity="0.71" d="M148.611 113.183C153.838 110.045 157.716 105.147 156.057 98.5278C155.144 94.8438 152.054 91.4635 147.906 93.184C143.779 94.9045 142.845 99.4386 142.617 103.264C142.41 106.543 141.082 107.272 138.905 109.458C137.66 110.713 136.416 112.13 136.001 113.891C135.234 117.13 137.432 120.652 141.124 120.166C144.38 119.721 146.703 116.158 148.611 113.183Z" fill="#C8C6D3"/>
<path opacity="0.71" d="M155.932 137.574C153.962 136.744 151.245 135.894 148.901 136.197C148.632 136.197 148.341 136.197 148.051 136.197C145.624 136.379 142.804 137.675 142.679 140.408C142.575 142.796 144.649 144.598 147.035 144.598C148.217 144.598 149.171 144.092 150.27 143.687C151.639 143.181 153.008 142.897 154.46 142.837C157.052 142.715 158.774 138.748 155.932 137.553V137.574Z" fill="#C8C6D3"/>
<path opacity="0.71" d="M143.198 133.546C143.758 133.424 144.297 133.121 144.67 132.675C145.873 131.582 145.023 129.295 143.239 129.315C142.098 129.315 140.978 130.003 140.771 131.157C140.501 132.635 141.642 133.829 143.198 133.525V133.546Z" fill="#C8C6D3"/>
<path opacity="0.71" d="M113.622 95.9166C115.882 93.1232 118.89 90.087 117.459 86.2411C116.09 82.5571 111.423 81.707 108.105 83.2251C104.807 84.7432 102.007 88.1236 101.011 91.5242C100.825 92.1516 100.783 92.7791 100.804 93.4066C100.68 93.7305 100.576 94.0544 100.514 94.3782C99.8914 97.3335 101.24 100.653 104.496 101.402C108.748 102.374 111.361 98.7099 113.622 95.9166Z" fill="#C8C6D3"/>
<path opacity="0.71" d="M100.576 110.086C100.845 109.883 101.053 109.64 101.219 109.357C101.26 109.276 101.281 109.236 101.302 109.175C102.214 108.466 102.463 107.292 102.256 106.037C102.007 104.701 100.182 103.73 98.8958 104.175C96.884 104.884 95.204 106.624 95.8262 108.851C96.4277 110.976 98.9995 111.401 100.597 110.086H100.576Z" fill="#C8C6D3"/>
<path opacity="0.71" d="M122.561 101.402C121.586 99.3981 119.097 98.7707 117.127 99.7018C114.783 100.795 113.331 103.183 111.651 105.005C111.402 105.268 111.133 105.511 110.863 105.754C110.822 105.754 110.759 105.754 110.718 105.754C106.881 106.462 101.862 112.393 107.317 114.822C110.075 116.057 112.377 114.255 114.493 112.697C116.671 111.078 119.263 109.559 121.109 107.556C122.644 105.875 123.619 103.568 122.582 101.402H122.561Z" fill="#C8C6D3"/>
<path opacity="0.71" d="M40.1379 55.4942C45.8001 57.7005 52.4993 58.5911 57.9748 55.3322C62.4548 52.6603 67.4532 46.7498 67.7229 41.3453C69.6725 38.5722 70.1495 35.374 67.1007 32.1151C65.6281 30.516 62.3303 30.7185 61.2103 32.7021C59.5926 32.8438 57.8711 33.6333 56.5437 34.7061C51.2548 38.9568 46.3808 43.7743 41.6105 48.612C40.6149 49.1181 39.9512 49.9277 39.6609 50.8791C39.2253 51.79 39.2046 52.802 39.5364 53.6927C39.0801 54.2797 39.2253 55.1703 40.1379 55.5346V55.4942Z" fill="#C8C6D3"/>
<path opacity="0.71" d="M58.763 113.122C58.4933 111.725 58.1822 110.329 58.12 108.912C58.0993 108.102 58.1407 107.252 57.9333 106.462C57.2489 103.993 54.0134 102.9 51.483 103.568C51.1512 103.649 50.8193 103.77 50.5082 103.892C49.326 103.568 48.2682 104.661 47.5838 105.734C46.7334 106.442 45.9453 107.232 45.1986 108.021L47.0653 106.604C46.0282 108.385 45.0327 110.227 44.8253 112.272C44.5971 114.519 45.6134 117.049 47.7497 117.899C47.9156 117.96 48.0816 117.98 48.2475 118.02C48.766 120.874 50.5082 123.769 53.0178 125.004C53.3289 126.259 54.5319 127.291 56.0045 126.805C57.4978 126.299 58.5348 125.469 59.1363 124.356C60.2563 123.384 60.9615 121.988 61.1481 120.449C61.48 117.616 59.9867 115.733 58.8459 113.284C58.8252 113.223 58.8044 113.162 58.7837 113.102L58.763 113.122Z" fill="#C8C6D3"/>
<path opacity="0.71" d="M110.759 72.1328C111.548 74.3189 115.073 75.2905 116.276 72.8412C117.023 71.3231 117.23 69.7443 116.836 68.1452C116.836 68.044 116.816 67.9428 116.816 67.8213C117.23 65.3923 116.525 62.8014 114.14 61.5262C111.672 60.2105 108.934 62.1334 109.079 64.7648C109.142 65.8781 109.722 66.8902 110.241 67.8416C110.365 68.0844 110.531 68.3273 110.656 68.5905C110.614 68.8131 110.614 69.0358 110.593 69.137C110.428 70.1491 110.407 71.1207 110.759 72.1125V72.1328Z" fill="#C8C6D3"/>
<path opacity="0.71" d="M46.1112 124.012C43.4149 122.21 40.3661 123.85 39.2668 126.542C38.0431 129.518 38.1675 132.938 39.1838 136.197C39.5986 141.237 41.7349 146.075 46.7127 147.593C49.5541 148.443 53.163 147.209 54.1793 144.294C55.6104 140.185 51.3378 137.513 49.4919 134.436C47.5216 131.137 49.7615 126.461 46.1112 124.032V124.012Z" fill="#C8C6D3"/>
<path opacity="0.71" d="M38.6861 121.3C41.0712 121.603 43.1245 119.923 43.4771 117.656C43.6431 116.563 43.4357 115.45 42.7927 114.519C42.1912 113.628 41.2164 113.061 41.1749 111.907C41.0712 110.025 38.4994 108.588 37.0476 110.248C35.8446 111.624 34.8491 113.122 34.4135 114.883C34.0194 116.523 34.1231 118.952 35.7824 119.862C35.9068 119.943 36.0313 119.964 36.1765 120.004C36.8402 120.672 37.732 121.158 38.6861 121.279V121.3Z" fill="#C8C6D3"/>
<path opacity="0.71" d="M42.9172 101.422C42.0461 101.544 41.6935 102.191 41.3824 102.9C41.0505 103.689 41.6727 104.661 42.4194 104.965C43.2697 105.309 44.1408 104.985 44.6594 104.256C45.1364 103.568 45.1157 102.88 44.7423 102.151C44.4105 101.463 43.6016 101.341 42.9172 101.422Z" fill="#C8C6D3"/>
<path opacity="0.71" d="M40.511 91.8886C41.4029 84.3789 34.6622 78.7315 29.2904 74.4808C27.8178 73.3068 25.5156 74.7439 26.5526 76.5454C26.5941 76.6264 26.6563 76.7074 26.7185 76.8086C24.8311 76.9098 22.9645 78.2255 23.2341 80.2699C23.3586 81.12 23.4415 81.9499 23.5037 82.7798C21.5749 87.2532 19.9156 91.7671 18.7956 96.5644C18.3601 98.4468 19.3971 99.7018 20.7452 100.107C19.6667 105.208 19.7082 110.308 20.4134 115.49C20.4549 115.834 20.4964 116.158 20.5378 116.462C21.1808 120.672 27.5067 119.296 27.7556 115.51C28.2119 108.851 31.4059 105.471 35.6992 100.734C38.0014 98.1837 40.0755 95.3701 40.4903 91.8886H40.511Z" fill="#C8C6D3"/>
<path opacity="0.71" d="M33.0858 72.4161C36.114 73.8735 38.7895 75.8976 40.7806 78.5898C41.9006 80.0269 43.7258 80.7759 45.4472 79.784C45.4887 79.7638 45.5302 79.7233 45.5717 79.6828C45.9865 79.5614 46.3806 79.3994 46.6917 79.1565C48.0398 78.1242 48.2265 76.5454 47.5213 75.0677C47.1687 74.3188 46.6709 73.6711 46.1317 73.0841C43.0621 68.8333 38.2295 63.024 33.0858 66.708C31.2192 68.0439 30.597 71.2016 33.0858 72.4161Z" fill="#C8C6D3"/>
<path opacity="0.71" d="M46.6297 61.2832C46.4015 61.4249 46.1941 61.5869 45.9867 61.7488C45.9037 61.7893 45.8208 61.8095 45.7586 61.85C45.1571 62.2143 44.8045 62.7406 44.6801 63.3276C44.4519 63.8134 44.3482 64.3599 44.4104 64.9672C44.4312 65.2101 44.4934 65.4328 44.5971 65.6352C44.6178 65.7769 44.6386 65.9186 44.6593 66.04C44.9082 66.8497 45.8623 67.4772 46.7334 67.1938C47.9156 66.8092 49.0356 66.2424 49.4919 65.0279C49.7408 64.3802 49.72 63.6717 49.4919 63.024C49.5333 61.6476 47.9985 60.3521 46.6297 61.2427V61.2832Z" fill="#C8C6D3"/>
<path opacity="0.71" d="M49.7405 98.0419C51.6694 97.4954 52.0842 95.4308 51.4413 93.7912C50.7154 91.929 48.9731 90.2692 47.7495 88.6903C46.3391 86.8483 43.2695 87.8604 43.8295 90.3097C44.0369 91.18 44.2858 91.848 44.991 92.3743C44.8043 95.3498 46.4843 98.9528 49.7613 98.0419H49.7405Z" fill="#C8C6D3"/>
<path opacity="0.71" d="M183.331 121.279C183.331 119.255 181.879 118 180.157 117.15C178.394 116.259 176.901 115.308 175.802 113.648C174.454 111.644 171.405 112.474 171.26 114.842C171.135 117.211 172.276 119.478 174.06 121.057C175.511 122.352 177.544 123.729 179.535 123.303C180.033 123.405 180.551 123.445 181.111 123.425C182.294 123.364 183.31 122.494 183.31 121.279H183.331Z" fill="#C8C6D3"/>
<path opacity="0.71" d="M207.888 107.475C208.323 107.009 208.614 106.402 208.634 105.633C208.697 103.851 208.51 102.131 208.137 100.39C207.95 99.4791 207.369 98.8921 206.643 98.5885C206.56 98.3254 206.498 98.0825 206.415 97.8193C205.917 96.1798 204.486 95.613 203.159 95.8356C202.205 95.3903 201.023 95.4308 200.131 96.281C199.591 96.0583 198.928 96.0785 198.347 96.6251C195.589 99.216 195.9 103.629 196.667 107.029C197.455 110.43 199.695 113.588 203.346 114.357C205.129 114.721 207.037 113.223 206.436 111.341C206.415 111.26 206.374 111.159 206.332 111.078C206.519 110.976 206.685 110.855 206.871 110.754C207.929 110.126 208.344 108.689 207.867 107.636C207.867 107.576 207.888 107.535 207.908 107.475H207.888Z" fill="#C8C6D3"/>
<path opacity="0.71" d="M118.475 158.22C117.044 155.366 115.882 151.905 112.73 150.407C110.51 149.334 107.69 149.617 105.989 151.459C104.413 153.16 104.143 155.326 104.599 157.572C104.06 159.678 104.185 161.965 105.056 164.191C106.839 168.847 111.34 171.883 116.256 172.571C119.699 175.264 124.987 176.761 127.995 173.361C130.069 171.033 128.368 167.552 126.522 165.649C123.805 162.876 120.3 161.864 118.475 158.24V158.22Z" fill="#C8C6D3"/>
<path opacity="0.71" d="M120.694 151.702C117.853 152.472 118.164 156.156 119.989 157.755C120.881 158.544 122.25 159.111 123.453 158.787C124.759 158.443 125.63 157.006 125.63 155.73C125.63 154.111 124.407 152.37 122.81 152.006C122.25 151.621 121.565 151.46 120.694 151.702Z" fill="#C8C6D3"/>
<path opacity="0.71" d="M98.4189 155.305C97.1952 155.569 96.2619 156.641 96.1582 157.896C96.013 159.657 97.2159 161.094 98.8752 161.621C99.5596 161.823 100.576 161.621 101.032 161.054C102.194 159.637 102.629 158.058 102.194 156.277C101.779 154.577 99.6218 154.233 98.3981 155.305H98.4189Z" fill="#C8C6D3"/>
<g style="mix-blend-mode:multiply" opacity="0.43">
<path d="M130.567 89.5C142.161 70.1491 128.327 38.5924 104.579 37.1755C94.6854 36.5885 86.5137 41.0821 78.9433 46.5676C73.6545 49.3002 68.7805 52.883 64.902 56.6277C53.2665 67.8213 41.0296 87.071 44.7214 103.669C49.2013 123.809 73.1567 129.416 90.164 120.713C97.4647 116.988 102.899 110.814 109.328 105.936C116.442 100.532 125.817 97.4752 130.587 89.5H130.567Z" fill="#E2E0E2"/>
<path d="M169.02 91.6253C154.481 91.5848 148.798 102.859 144.691 114.235C140.812 117.879 136.747 121.279 132.496 124.032C122.312 130.651 109.805 136.299 106.964 149.111C103.189 166.135 118.89 176.316 134.507 174.838C148.341 173.543 160.412 165.325 170.679 156.702C180.738 148.261 188.184 136.966 190.279 124.113C192.664 109.58 187.002 91.6658 168.999 91.6051L169.02 91.6253Z" fill="#E2E0E2"/>
</g>
</g>
<g style="mix-blend-mode:multiply" opacity="0.46">
<path d="M158.733 141.399C155.933 145.266 153.008 149.051 150.727 153.301C146.143 161.803 143.343 171.134 138.593 179.555C135.213 185.546 130.816 190.91 124.967 194.776C167.278 189.089 199.861 153.686 199.861 110.835C199.84 64.0159 160.952 26.0629 112.979 26.0629C105.782 26.0629 98.813 26.9333 92.1345 28.5324C90.9523 32.52 90.4338 36.548 90.6412 40.0498C91.3049 51.0815 98.1493 60.676 108.25 65.5745C116.422 69.5621 124.531 68.0844 133.118 69.4608C141.02 70.7158 148.673 73.2865 154.833 78.4279C170.14 91.2003 173.521 111.543 166.012 129.315C164.146 133.728 161.491 137.594 158.733 141.399Z" fill="#E2E0E2"/>
</g>
<g style="mix-blend-mode:multiply" opacity="0.46">
<path d="M86.9701 181.073C77.782 170.952 72.0991 156.803 75.708 143.747C78.8813 132.25 88.7123 123.061 90.4131 111.26C91.6575 102.556 87.8827 93.3256 80.8309 87.8806C75.8947 84.055 69.6103 82.0511 64.9644 77.9015C57.4978 71.2421 55.6933 60.008 58.5555 50.5552C59.4889 47.4987 60.8577 44.6041 62.4962 41.8715C40.4905 57.2551 26.138 82.3952 26.138 110.835C26.138 154.739 60.3392 190.85 104.164 195.161C97.8797 191.092 91.9686 186.579 86.9701 181.073Z" fill="#E2E0E2"/>
</g>
<g style="mix-blend-mode:multiply" opacity="0.14">
<path d="M159.811 39.4628C160.931 44.8876 161.512 50.4743 161.512 56.2229C161.512 103.042 122.623 140.995 74.65 140.995C57.3938 140.995 41.3406 136.076 27.8385 127.615C35.8029 166.398 70.8959 195.627 112.979 195.627C160.952 195.627 199.84 157.674 199.84 110.855C199.84 80.8771 183.87 54.5428 159.811 39.4831V39.4628Z" fill="#E2E0E2"/>
</g>
<g style="mix-blend-mode:multiply" opacity="0.67">
<path d="M177.42 53.9963C182.874 65.0886 185.944 77.517 185.944 90.6335C185.944 137.452 147.055 175.405 99.0825 175.405C73.5301 175.405 50.5496 164.637 34.6415 147.472C48.6414 175.932 78.4664 195.586 112.979 195.586C160.952 195.586 199.84 157.633 199.84 110.814C199.84 88.9535 191.357 69.0155 177.42 53.976V53.9963Z" fill="#E2E0E2"/>
</g>
<g style="mix-blend-mode:overlay" opacity="0.65">
<path d="M112.979 26.0629C108.001 26.0629 103.148 26.488 98.3982 27.2774C98.1286 27.3179 97.8589 27.3786 97.6101 27.4191C96.1375 27.6822 94.6856 27.9656 93.2338 28.2895C92.9849 28.3502 92.736 28.3907 92.5079 28.4514C87.4887 29.6457 82.6354 31.2447 77.9895 33.2487C77.7406 33.3499 77.5124 33.4713 77.2635 33.5725C75.9569 34.1595 74.6502 34.7668 73.3643 35.4145C73.1362 35.536 72.908 35.6372 72.6799 35.7586C69.6725 37.297 66.7688 38.9973 63.9688 40.8595C62.6207 41.7501 61.314 42.7015 60.0281 43.6731C59.8 43.835 59.5926 43.9969 59.3852 44.1791C58.2859 45.0293 57.1867 45.8996 56.1289 46.8105C55.9215 46.9927 55.7141 47.1546 55.5067 47.3368C52.9763 49.5026 50.5912 51.8304 48.3512 54.2594C47.2727 55.4334 46.2356 56.6479 45.2193 57.8827C45.0534 58.1053 44.8668 58.3077 44.7008 58.5304C43.8297 59.6032 43.0001 60.7165 42.1705 61.8298C42.0046 62.0524 41.8594 62.2751 41.6934 62.4775C39.7646 65.1696 37.9809 67.9832 36.3839 70.898C29.8506 82.8 26.1588 96.3821 26.1588 110.835C26.1588 132.797 34.7246 152.795 48.7452 167.855C37.255 153.484 30.4106 135.428 30.4106 115.794C30.4106 100.977 34.3098 87.0508 41.1542 74.9463C48.0193 79.9257 56.5022 82.881 65.711 82.881C88.4635 82.881 106.923 64.866 106.923 42.661C106.923 38.9163 106.383 35.2931 105.409 31.852C109.287 31.3257 113.248 31.0423 117.272 31.0423C142.742 31.0423 165.639 41.7299 181.526 58.7733C165.618 38.8758 140.833 26.0629 112.979 26.0629Z" fill="#F0DDF1"/>
</g>
<g style="mix-blend-mode:screen" opacity="0.22">
<path d="M27.5692 95.5523C38.8728 109.539 56.3778 118.526 76.0399 118.526C110.137 118.526 137.785 91.5444 137.785 58.2673C137.785 47.0534 134.632 36.548 129.157 27.5405C123.909 26.5689 118.517 26.0427 113 26.0427C70.357 26.0629 34.9321 56.0407 27.5692 95.5523Z" fill="#F0DDF1"/>
</g>
<path style="mix-blend-mode:multiply" d="M112.979 195.202C160.951 195.202 199.84 157.248 199.84 110.43C199.84 63.6117 160.951 25.6581 112.979 25.6581C65.0065 25.6581 26.1172 63.6117 26.1172 110.43C26.1172 157.248 65.0065 195.202 112.979 195.202Z" fill="url(#paint0_linear_91_4)"/>
<defs>
<linearGradient id="paint0_linear_91_4" x1="51.5659" y1="50.4945" x2="171.422" y2="173.284" gradientUnits="userSpaceOnUse">
<stop stop-color="white"/>
<stop offset="0.03" stop-color="#F9F9F9"/>
<stop offset="0.25" stop-color="#CDD2D2"/>
<stop offset="0.46" stop-color="#AAB3B3"/>
<stop offset="0.66" stop-color="#929D9D"/>
<stop offset="0.85" stop-color="#838F8F"/>
<stop offset="1" stop-color="#7E8B8B"/>
</linearGradient>
</defs>
</svg>
