<svg width="46" height="45" viewBox="0 0 46 45" fill="none" xmlns="http://www.w3.org/2000/svg">
<mask id="mask0_1_719" style="mask-type:luminance" maskUnits="userSpaceOnUse" x="5" y="5" width="35" height="35">
<path d="M38.7293 28.3914C42.3106 19.7015 37.9955 9.82353 29.0913 6.32843C20.1871 2.83334 10.0657 7.04459 6.48444 15.7345C2.90318 24.4245 7.21826 34.3024 16.1224 37.7975C25.0266 41.2926 35.148 37.0814 38.7293 28.3914Z" fill="white"/>
</mask>
<g mask="url(#mask0_1_719)">
<path d="M38.7293 28.3914C42.3106 19.7015 37.9955 9.82353 29.0913 6.32843C20.1871 2.83334 10.0657 7.04459 6.48444 15.7345C2.90318 24.4245 7.21826 34.3024 16.1224 37.7975C25.0266 41.2926 35.148 37.0814 38.7293 28.3914Z" fill="#EEE9FF"/>
<path opacity="0.71" d="M33.6815 11.0341C33.7686 11.8966 33.1794 12.6741 32.9221 13.5043C32.8433 13.7513 32.8018 14.0388 32.947 14.2535C33.0674 14.4316 33.2914 14.5167 33.4989 14.5855C34.7188 14.9864 36.1752 15.3752 36.6358 16.5495C36.9055 17.2299 36.7976 18.1167 37.3869 18.5662C38.0383 19.0643 38.9968 18.6148 39.5943 18.0519C40.2001 17.485 40.7064 16.7642 40.7976 15.9502C40.8848 15.1484 40.5611 14.3668 40.2458 13.6217C39.2292 11.2284 38.1711 8.77442 36.3288 6.91567C35.0757 5.65221 33.0549 8.19533 32.2167 8.97689C32.8848 9.53573 33.5985 10.1837 33.6815 11.0422V11.0341Z" fill="#C8C6D3"/>
<path opacity="0.71" d="M34.3371 19.1979C34.3703 19.2222 34.4117 19.2303 34.4491 19.2344C36.1918 19.3721 35.7105 15.9988 34.474 15.5372C33.7105 15.2537 33.1005 15.8935 33.1337 16.6224C33.1711 17.5498 34.0756 18.1734 34.2707 19.0522C34.2831 19.1048 34.2956 19.1615 34.3371 19.1939V19.1979Z" fill="#C8C6D3"/>
<path opacity="0.71" d="M36.8059 23.3771C36.9595 23.5472 37.2375 23.5148 37.4532 23.4338C38.196 23.1463 38.7105 22.3687 38.6732 21.5912C38.6109 20.2468 36.8225 19.0603 35.7437 20.2589C35.3578 20.6882 35.2997 21.3928 35.6773 21.8302C35.8848 22.0691 36.1918 22.2149 36.3869 22.4619C36.5445 22.6644 36.6151 22.9195 36.6981 23.1625C36.723 23.2394 36.752 23.3163 36.8059 23.3771Z" fill="#C8C6D3"/>
<path opacity="0.71" d="M34.2292 27.5684C34.4242 27.6979 34.7354 27.6332 34.8723 27.8194C34.9927 27.9814 34.9097 28.2487 35.0757 28.3702C35.2209 28.4795 35.4284 28.3702 35.5611 28.2406C35.9844 27.8397 36.2416 27.2727 36.2582 26.6977C36.2582 26.5965 36.2582 26.4912 36.2167 26.398C36.0964 26.1267 35.7022 25.8878 35.7022 25.8878C35.4242 25.738 35.0632 25.7987 34.7977 25.9769C34.5362 26.1551 34.3537 26.4223 34.2084 26.6977C34.0549 26.9812 33.9595 27.3902 34.2292 27.5684Z" fill="#C8C6D3"/>
<path opacity="0.71" d="M30.0715 25.8918C30.4906 26.0741 30.9885 26.0619 31.3952 25.8594C31.6815 25.7177 31.9304 25.4869 32.2499 25.4342C32.2748 25.4302 32.2997 25.4261 32.3246 25.4261C32.6483 25.4018 32.9844 25.5436 33.2997 25.4504C33.7188 25.3249 33.9055 24.7985 33.7479 24.4016C33.3288 23.3204 31.6856 23.2961 30.7811 23.6686C30.0715 23.9602 28.8267 25.3533 30.0715 25.8959V25.8918Z" fill="#C8C6D3"/>
<path opacity="0.71" d="M32.0756 26.7301C31.9926 26.8556 31.9387 27.0136 31.9885 27.1553C32.03 27.2687 32.1337 27.3497 32.2457 27.3942C32.5818 27.5279 33.0175 27.3213 33.113 26.9771C33.1918 26.6937 33.0258 26.3778 32.7644 26.2442C32.4823 26.317 32.2291 26.4871 32.0756 26.7301Z" fill="#C8C6D3"/>
<path opacity="0.71" d="M32.5901 26.1875C32.6524 26.1956 32.7105 26.2199 32.7644 26.2482C32.7935 26.2401 32.8225 26.228 32.8516 26.2239L32.586 26.1875H32.5901Z" fill="#C8C6D3"/>
<path opacity="0.71" d="M40.0134 24.7337C39.5902 24.7499 39.1877 24.924 38.835 25.1589C38.503 25.3816 38.1918 25.6813 38.1047 26.066C38.0342 26.3818 38.1213 26.7099 38.0964 27.0298C38.0134 28.0867 36.7561 28.8926 36.9553 29.9373C37.0425 30.3949 37.3952 30.7513 37.7561 31.055C38.1254 31.3668 38.5528 31.6705 39.0425 31.6989C39.5113 31.7232 39.9636 31.4883 40.3039 31.1765C40.752 30.7634 41.0591 30.2087 41.1628 29.6174C41.2458 29.1517 41.2043 28.6739 41.2665 28.2082C41.3329 27.7101 41.5196 27.2282 41.557 26.726C41.6317 25.7906 41.0922 24.7013 40.0134 24.7418V24.7337Z" fill="#C8C6D3"/>
<path opacity="0.71" d="M34.5487 29.6255C33.8557 29.3623 32.9677 29.4392 32.4989 29.9981C32.2623 30.2775 32.1586 30.6379 32.059 30.9902C31.9511 31.3668 31.8474 31.7434 31.7395 32.12C31.698 32.2699 31.6524 32.4278 31.6897 32.5817C31.7976 33.0514 32.4698 33.0879 32.864 33.3795C33.1586 33.5981 33.2872 33.9747 33.3038 34.3311C33.3204 34.6915 33.2375 35.0479 33.1877 35.4042C33.1462 35.6877 33.1296 35.9995 33.308 36.2263C33.474 36.4409 33.7727 36.5219 34.0466 36.4976C34.3204 36.4733 34.5777 36.3599 34.8267 36.2465C35.3495 36.0117 35.8765 35.7727 36.308 35.4002C36.7395 35.0276 37.0632 34.5012 37.0507 33.9423C37.0424 33.6184 36.9262 33.3066 36.8059 33.0029C36.2623 31.5977 36.1379 30.2451 34.5487 29.6255Z" fill="#C8C6D3"/>
<path opacity="0.71" d="M30.7437 29.257C30.6441 29.2044 30.5238 29.2125 30.4118 29.2327C29.752 29.3502 29.1587 29.6944 28.586 30.0345L28.8309 29.9495C28.6109 30.0507 28.4159 30.2046 28.2956 30.4071C28.1089 30.7189 28.1089 31.1401 28.3371 31.4195C28.5653 31.6989 29.03 31.788 29.3205 31.5693C29.5114 31.4276 29.6026 31.1968 29.7479 31.0064C29.9512 30.7432 30.2541 30.5772 30.5031 30.3585C30.752 30.1398 30.9678 29.824 30.9014 29.5C30.8806 29.3988 30.8267 29.3016 30.7354 29.253L30.7437 29.257Z" fill="#C8C6D3"/>
<path opacity="0.71" d="M22.2084 8.78251C22.3287 8.77036 22.4532 8.75012 22.5694 8.79061C22.9013 8.89995 22.9179 9.3535 23.142 9.61672C23.3744 9.88804 23.8142 9.90424 24.1337 9.7463C25.7229 8.94449 24.3453 6.94807 22.9843 6.84683C21.6067 6.74559 19.8308 9.02549 22.2125 8.78656L22.2084 8.78251Z" fill="#C8C6D3"/>
<path opacity="0.71" d="M19.615 16.9342C20.0507 16.5536 20.4408 16.1243 20.7769 15.6546C21.0466 15.278 21.2872 14.8568 21.2914 14.3952C21.2997 13.6136 20.6441 12.99 19.9885 12.5445C19.4242 12.1598 18.7852 11.8237 18.0964 11.8278C17.6482 11.8278 17.2208 11.9776 16.781 12.0667C16.0549 12.2125 15.3038 12.1963 14.5735 12.334C14.0673 12.4271 13.5528 12.6215 13.1669 12.9414C11.9304 13.5407 10.9013 14.545 10.3163 15.768C10.0632 16.2985 9.89304 16.9099 10.0964 17.4607C10.4781 18.4771 11.9096 18.7484 12.4449 19.7001C12.9138 20.5343 12.5777 21.6965 13.225 22.4052C13.8557 23.0896 14.9885 22.9073 15.8806 22.6036C17.1337 22.1744 18.4906 21.4292 18.7229 20.1536C18.8764 19.3032 18.4906 18.3475 18.947 17.6065C19.113 17.3392 19.3702 17.1367 19.6109 16.9302L19.615 16.9342Z" fill="#C8C6D3"/>
<path opacity="0.71" d="M14.1794 9.90828C13.7852 10.0824 13.503 10.4914 13.5155 10.9126C14.0134 10.8964 14.5113 10.8761 15.0092 10.8599C15.1503 10.8559 15.2997 10.8478 15.4283 10.783C15.7188 10.6291 15.752 10.1917 15.5445 9.94473C15.337 9.69365 14.9678 9.62076 14.64 9.67746C14.3163 9.73415 14.0217 9.89613 13.7354 10.0581L14.1794 9.91233V9.90828Z" fill="#C8C6D3"/>
<path opacity="0.71" d="M10.5155 12.7187C10.4408 12.9697 10.6026 13.2977 10.8682 13.2977C11.0134 13.2977 11.1421 13.2046 11.2582 13.1155C11.557 12.8847 11.8516 12.6539 12.1504 12.423C12.2458 12.3502 12.3454 12.2692 12.3703 12.1558C12.4035 12.0059 12.2873 11.848 12.1379 11.7954C11.9885 11.7427 11.8226 11.7711 11.6732 11.8197C11.2458 11.9695 10.918 12.3016 10.6068 12.6255L11.0176 12.1234C10.8101 12.2854 10.5902 12.4676 10.5197 12.7187H10.5155Z" fill="#C8C6D3"/>
<path opacity="0.71" d="M32.586 21.6317C33.1918 21.6317 33.1918 20.7125 32.586 20.7125C31.9802 20.7125 31.9802 21.6317 32.586 21.6317Z" fill="#C8C6D3"/>
<path opacity="0.71" d="M32.6524 19.7082C33.4325 19.7082 33.4325 18.5257 32.6524 18.5257C31.8723 18.5257 31.8723 19.7082 32.6524 19.7082Z" fill="#C8C6D3"/>
<path opacity="0.71" d="M29.7313 22.5307C30.7769 21.903 31.5528 20.9231 31.2209 19.5989C31.0383 18.8618 30.4201 18.1856 29.5902 18.5298C28.7645 18.874 28.5777 19.7811 28.5321 20.5464C28.4906 21.2025 28.225 21.3483 27.7894 21.7856C27.5404 22.0367 27.2914 22.3202 27.2084 22.6725C27.0549 23.3204 27.4947 24.025 28.2333 23.9278C28.8848 23.8387 29.3495 23.126 29.7313 22.5307Z" fill="#C8C6D3"/>
<path opacity="0.71" d="M31.196 27.4104C30.8018 27.2444 30.2582 27.0743 29.7893 27.1351C29.7354 27.1351 29.6773 27.1351 29.6192 27.1351C29.1337 27.1715 28.5694 27.4307 28.5445 27.9774C28.5238 28.4552 28.9387 28.8156 29.4159 28.8156C29.6524 28.8156 29.8433 28.7144 30.0632 28.6334C30.337 28.5321 30.6109 28.4755 30.9014 28.4633C31.42 28.439 31.7644 27.6453 31.196 27.4064V27.4104Z" fill="#C8C6D3"/>
<path opacity="0.71" d="M28.6482 26.6046C28.7603 26.5803 28.8682 26.5195 28.9428 26.4304C29.1835 26.2118 29.0134 25.7542 28.6565 25.7582C28.4283 25.7582 28.2043 25.8959 28.1628 26.1267C28.1088 26.4223 28.337 26.6613 28.6482 26.6005V26.6046Z" fill="#C8C6D3"/>
<path opacity="0.71" d="M22.7312 19.0765C23.1835 18.5176 23.7852 17.9102 23.4989 17.1408C23.225 16.4038 22.2914 16.2337 21.6275 16.5374C20.9677 16.8411 20.4076 17.5174 20.2084 18.1977C20.1711 18.3232 20.1628 18.4488 20.1669 18.5743C20.142 18.6391 20.1213 18.7039 20.1088 18.7687C19.9843 19.3599 20.254 20.024 20.9055 20.1739C21.7561 20.3683 22.2789 19.6353 22.7312 19.0765Z" fill="#C8C6D3"/>
<path opacity="0.71" d="M20.1213 21.9111C20.1752 21.8706 20.2167 21.822 20.2499 21.7654C20.2582 21.7492 20.2624 21.7411 20.2665 21.7289C20.4491 21.5872 20.4989 21.3523 20.4574 21.1012C20.4076 20.834 20.0424 20.6396 19.7852 20.7287C19.3827 20.8704 19.0466 21.2187 19.1711 21.6641C19.2914 22.0893 19.8059 22.1744 20.1254 21.9111H20.1213Z" fill="#C8C6D3"/>
<path opacity="0.71" d="M24.5196 20.1739C24.3246 19.773 23.8267 19.6474 23.4325 19.8337C22.9636 20.0524 22.6732 20.5302 22.3371 20.8947C22.2873 20.9473 22.2333 20.9959 22.1794 21.0445C22.1711 21.0445 22.1586 21.0445 22.1503 21.0445C21.3827 21.1863 20.3786 22.3728 21.4698 22.8587C22.0217 23.1058 22.4823 22.7453 22.9055 22.4335C23.3412 22.1096 23.8599 21.8058 24.2292 21.4049C24.5362 21.0688 24.7312 20.6072 24.5238 20.1739H24.5196Z" fill="#C8C6D3"/>
<path opacity="0.71" d="M8.03002 10.9895C9.1628 11.4309 10.5031 11.6091 11.5985 10.9571C12.4948 10.4226 13.4948 9.24011 13.5487 8.15888C13.9387 7.60409 14.0342 6.96426 13.4242 6.31229C13.1296 5.99237 12.4699 6.03287 12.2458 6.42972C11.9221 6.45807 11.5777 6.616 11.3122 6.83063C10.2541 7.68103 9.27899 8.64482 8.32463 9.61267C8.12546 9.71391 7.99268 9.87589 7.93459 10.0662C7.84745 10.2484 7.8433 10.4509 7.90969 10.6291C7.81841 10.7465 7.84745 10.9247 8.03002 10.9976V10.9895Z" fill="#C8C6D3"/>
<path opacity="0.71" d="M11.7562 22.5186C11.7022 22.2392 11.64 21.9597 11.6275 21.6763C11.6234 21.5143 11.6317 21.3442 11.5902 21.1863C11.4533 20.6922 10.806 20.4736 10.2997 20.6072C10.2333 20.6234 10.167 20.6477 10.1047 20.672C9.8682 20.6072 9.65658 20.8259 9.51965 21.0405C9.34952 21.1822 9.19185 21.3402 9.04247 21.4981L9.41591 21.2146C9.20845 21.571 9.00928 21.9395 8.96778 22.3485C8.92214 22.798 9.12546 23.3042 9.55284 23.4743C9.58604 23.4864 9.61923 23.4905 9.65243 23.4986C9.75616 24.0695 10.1047 24.6486 10.6068 24.8957C10.669 25.1467 10.9097 25.3533 11.2043 25.2561C11.5031 25.1548 11.7105 24.9888 11.8309 24.7661C12.0549 24.5717 12.196 24.2923 12.2333 23.9845C12.2997 23.4176 12.001 23.041 11.7728 22.551C11.7686 22.5388 11.7645 22.5267 11.7603 22.5145L11.7562 22.5186Z" fill="#C8C6D3"/>
<path opacity="0.71" d="M22.1586 14.3182C22.3163 14.7556 23.0217 14.95 23.2624 14.46C23.4117 14.1563 23.4532 13.8404 23.3744 13.5205C23.3744 13.5002 23.3702 13.48 23.3702 13.4557C23.4532 12.9697 23.3121 12.4514 22.835 12.1963C22.3412 11.9331 21.7935 12.3178 21.8225 12.8442C21.835 13.0669 21.9511 13.2694 22.0549 13.4597C22.0798 13.5083 22.113 13.5569 22.1379 13.6096C22.1296 13.6541 22.1296 13.6987 22.1254 13.7189C22.0922 13.9214 22.0881 14.1158 22.1586 14.3142V14.3182Z" fill="#C8C6D3"/>
<path opacity="0.71" d="M9.22504 24.6972C8.68562 24.3368 8.07566 24.6648 7.85575 25.2034C7.61093 25.7987 7.63583 26.4831 7.83915 27.1351C7.92214 28.1434 8.34952 29.1112 9.34537 29.415C9.91384 29.585 10.6358 29.338 10.8391 28.7549C11.1255 27.9328 10.2707 27.3983 9.90139 26.7827C9.5072 26.1227 9.95533 25.1872 9.22504 24.7013V24.6972Z" fill="#C8C6D3"/>
<path opacity="0.71" d="M7.73956 24.1546C8.21674 24.2153 8.62753 23.8792 8.69807 23.4257C8.73126 23.207 8.68977 22.9843 8.56114 22.798C8.4408 22.6198 8.24578 22.5064 8.23749 22.2756C8.21674 21.899 7.70222 21.6115 7.41176 21.9435C7.1711 22.2189 6.97193 22.5186 6.88479 22.8709C6.80595 23.1989 6.8267 23.6848 7.15865 23.8671C7.18354 23.8833 7.20844 23.8873 7.23749 23.8954C7.37027 24.0291 7.54869 24.1262 7.73956 24.1505V24.1546Z" fill="#C8C6D3"/>
<path opacity="0.71" d="M8.58604 20.1779C8.41177 20.2022 8.34123 20.3318 8.27899 20.4735C8.2126 20.6315 8.33708 20.8259 8.48646 20.8866C8.65658 20.9554 8.83086 20.8907 8.93459 20.7449C9.03003 20.6072 9.02588 20.4695 8.95119 20.3237C8.8848 20.186 8.72297 20.1617 8.58604 20.1779Z" fill="#C8C6D3"/>
<path opacity="0.71" d="M8.10467 18.2706C8.28309 16.7682 6.93454 15.6384 5.85985 14.788C5.56525 14.5531 5.10467 14.8406 5.31214 15.201C5.32043 15.2172 5.33288 15.2334 5.34533 15.2537C4.96774 15.2739 4.59429 15.5372 4.64824 15.9462C4.67313 16.1162 4.68973 16.2823 4.70218 16.4483C4.31628 17.3433 3.98433 18.2463 3.76027 19.206C3.67313 19.5827 3.8806 19.8337 4.15031 19.9147C3.93454 20.9352 3.94284 21.9557 4.08392 22.9924C4.09222 23.0612 4.10052 23.126 4.10882 23.1867C4.23745 24.0291 5.50301 23.7537 5.5528 22.9964C5.64409 21.6641 6.28309 20.9878 7.14201 20.0403C7.60259 19.53 8.01753 18.9671 8.10052 18.2706H8.10467Z" fill="#C8C6D3"/>
<path opacity="0.71" d="M6.61919 14.3749C7.22499 14.6665 7.76026 15.0715 8.1586 15.61C8.38267 15.8976 8.74782 16.0474 9.09221 15.849C9.10051 15.8449 9.10881 15.8368 9.11711 15.8287C9.2001 15.8044 9.27894 15.772 9.34118 15.7234C9.61089 15.5169 9.64823 15.201 9.50715 14.9054C9.43661 14.7556 9.33703 14.626 9.22914 14.5086C8.61504 13.6582 7.64823 12.4959 6.61919 13.233C6.24574 13.5002 6.12126 14.132 6.61919 14.3749Z" fill="#C8C6D3"/>
<path opacity="0.71" d="M9.32877 12.1477C9.28312 12.176 9.24163 12.2084 9.20014 12.2408C9.18354 12.2489 9.16694 12.253 9.15449 12.2611C9.03416 12.334 8.96362 12.4392 8.93873 12.5567C8.89308 12.6539 8.87234 12.7632 8.88478 12.8847C8.88893 12.9333 8.90138 12.9778 8.92213 13.0183C8.92628 13.0467 8.93043 13.075 8.93458 13.0993C8.98437 13.2613 9.17524 13.3868 9.34951 13.3301C9.58603 13.2532 9.81009 13.1398 9.90138 12.8968C9.95117 12.7673 9.94702 12.6255 9.90138 12.4959C9.90968 12.2206 9.60263 11.9614 9.32877 12.1396V12.1477Z" fill="#C8C6D3"/>
<path opacity="0.71" d="M9.95113 19.5017C10.337 19.3923 10.42 18.9793 10.2914 18.6513C10.1462 18.2787 9.79761 17.9466 9.55279 17.6308C9.27064 17.2623 8.65653 17.4647 8.76856 17.9547C8.81006 18.1289 8.85985 18.2625 9.00093 18.3678C8.96358 18.9631 9.29968 19.6839 9.95528 19.5017H9.95113Z" fill="#C8C6D3"/>
<path opacity="0.71" d="M36.6773 24.1505C36.6773 23.7456 36.3868 23.4945 36.0424 23.3244C35.6897 23.1463 35.391 22.9559 35.1711 22.6239C34.9014 22.223 34.2914 22.389 34.2623 22.8628C34.2375 23.3366 34.4657 23.7901 34.8225 24.106C35.113 24.3652 35.5196 24.6405 35.918 24.5555C36.0175 24.5757 36.1213 24.5838 36.2333 24.5798C36.4698 24.5676 36.6731 24.3935 36.6731 24.1505H36.6773Z" fill="#C8C6D3"/>
<path opacity="0.71" d="M41.5902 21.3887C41.6773 21.2956 41.7354 21.1741 41.7396 21.0202C41.752 20.6639 41.7147 20.3197 41.64 19.9714C41.6026 19.7892 41.4865 19.6717 41.3412 19.611C41.3246 19.5584 41.3122 19.5098 41.2956 19.4571C41.196 19.1291 40.9097 19.0157 40.6441 19.0603C40.4533 18.9712 40.2168 18.9793 40.0383 19.1493C39.9304 19.1048 39.7977 19.1089 39.6815 19.2182C39.1296 19.7365 39.1919 20.6193 39.3454 21.2997C39.5031 21.98 39.9512 22.6117 40.6815 22.7656C41.0383 22.8385 41.4201 22.5388 41.2997 22.1622C41.2956 22.146 41.2873 22.1258 41.279 22.1096C41.3163 22.0893 41.3495 22.065 41.3869 22.0448C41.5985 21.9192 41.6815 21.6317 41.586 21.4211C41.586 21.409 41.5902 21.4009 41.5943 21.3887H41.5902Z" fill="#C8C6D3"/>
<path opacity="0.71" d="M23.7022 31.541C23.4159 30.97 23.1835 30.2775 22.5528 29.9778C22.1088 29.7632 21.5445 29.8199 21.2043 30.1884C20.8889 30.5286 20.835 30.9619 20.9262 31.4114C20.8184 31.8325 20.8433 32.2901 21.0175 32.7356C21.3744 33.667 22.2748 34.2744 23.2582 34.4121C23.947 34.9507 25.0051 35.2503 25.6067 34.57C26.0217 34.1043 25.6814 33.4078 25.3121 33.0271C24.7686 32.4724 24.0673 32.2699 23.7022 31.545V31.541Z" fill="#C8C6D3"/>
<path opacity="0.71" d="M24.1462 30.237C23.5777 30.3909 23.64 31.1279 24.0051 31.4478C24.1835 31.6058 24.4574 31.7191 24.6981 31.6544C24.9595 31.5855 25.1337 31.298 25.1337 31.0429C25.1337 30.7189 24.8889 30.3706 24.5694 30.2978C24.4574 30.2208 24.3205 30.1884 24.1462 30.237Z" fill="#C8C6D3"/>
<path opacity="0.71" d="M19.6898 30.9578C19.445 31.0105 19.2582 31.2251 19.2375 31.4762C19.2084 31.8285 19.4491 32.116 19.7811 32.2213C19.918 32.2618 20.1213 32.2213 20.2126 32.1079C20.445 31.8244 20.5321 31.5086 20.445 31.1522C20.362 30.812 19.9304 30.7432 19.6856 30.9578H19.6898Z" fill="#C8C6D3"/>
<g style="mix-blend-mode:multiply" opacity="0.43">
<path d="M26.1213 17.7928C28.4408 13.9214 25.6731 7.60814 20.9221 7.32467C18.9428 7.20723 17.308 8.10623 15.7935 9.20366C14.7354 9.75035 13.7603 10.4671 12.9843 11.2163C10.6565 13.4557 8.2084 17.3068 8.94699 20.6274C9.84326 24.6567 14.6358 25.7785 18.0383 24.0372C19.4989 23.292 20.586 22.0569 21.8723 21.081C23.2955 19.9998 25.1711 19.3883 26.1254 17.7928H26.1213Z" fill="#E2E0E2"/>
<path d="M33.8142 18.218C30.9055 18.2099 29.7686 20.4655 28.947 22.7413C28.1711 23.4702 27.3578 24.1505 26.5072 24.7013C24.4698 26.0255 21.9677 27.1553 21.3993 29.7187C20.6441 33.1243 23.7852 35.1613 26.9096 34.8656C29.6773 34.6065 32.0922 32.9624 34.1462 31.2372C36.1586 29.5486 37.6482 27.2889 38.0673 24.7175C38.5445 21.8099 37.4117 18.2261 33.8101 18.2139L33.8142 18.218Z" fill="#E2E0E2"/>
</g>
</g>
<g style="mix-blend-mode:multiply" opacity="0.46">
<path d="M31.7562 28.1758C31.196 28.9493 30.6109 29.7065 30.1545 30.5569C29.2375 32.2577 28.6773 34.1246 27.7271 35.8092C27.0508 37.0079 26.1711 38.081 25.001 38.8545C33.4657 37.7165 39.9844 30.6339 39.9844 22.061C39.9802 12.6944 32.2001 5.10147 22.6026 5.10147C21.1628 5.10147 19.7686 5.2756 18.4325 5.59552C18.196 6.39328 18.0923 7.19914 18.1337 7.89971C18.2665 10.1067 19.6358 12.0262 21.6566 13.0062C23.2914 13.8039 24.9138 13.5083 26.6317 13.7837C28.2126 14.0348 29.7437 14.5491 30.9761 15.5776C34.0383 18.1329 34.7147 22.2027 33.2126 25.7582C32.8391 26.641 32.308 27.4145 31.7562 28.1758Z" fill="#E2E0E2"/>
</g>
<g style="mix-blend-mode:multiply" opacity="0.46">
<path d="M17.3993 36.1129C15.5611 34.0881 14.4242 31.2575 15.1462 28.6455C15.7811 26.3454 17.7479 24.5069 18.0881 22.146C18.3371 20.4047 17.5819 18.5581 16.1711 17.4688C15.1835 16.7034 13.9263 16.3025 12.9968 15.4724C11.503 14.1401 11.142 11.8926 11.7147 10.0014C11.9014 9.38993 12.1752 8.81085 12.503 8.26416C8.10056 11.3418 5.22919 16.3714 5.22919 22.061C5.22919 30.8444 12.0715 38.0688 20.8391 38.9314C19.5819 38.1174 18.3993 37.2144 17.3993 36.1129Z" fill="#E2E0E2"/>
</g>
<g style="mix-blend-mode:multiply" opacity="0.14">
<path d="M31.9719 7.78227C32.196 8.86755 32.3121 9.98523 32.3121 11.1353C32.3121 20.5019 24.5321 28.0948 14.9345 28.0948C11.4823 28.0948 8.27064 27.1108 5.5694 25.4181C7.16276 33.177 14.1835 39.0245 22.6026 39.0245C32.2001 39.0245 39.9802 31.4316 39.9802 22.065C39.9802 16.0676 36.7852 10.7992 31.9719 7.78632V7.78227Z" fill="#E2E0E2"/>
</g>
<g style="mix-blend-mode:multiply" opacity="0.67">
<path d="M35.4947 10.6898C36.586 12.909 37.2001 15.3954 37.2001 18.0195C37.2001 27.3861 29.42 34.979 19.8225 34.979C14.7105 34.979 10.113 32.8247 6.93042 29.3907C9.73125 35.0843 15.6981 39.0164 22.6026 39.0164C32.2001 39.0164 39.9802 31.4235 39.9802 22.0569C39.9802 17.6834 38.2831 13.6946 35.4947 10.6858V10.6898Z" fill="#E2E0E2"/>
</g>
<g style="mix-blend-mode:overlay" opacity="0.65">
<path d="M22.6026 5.10147C21.6068 5.10147 20.6358 5.18651 19.6856 5.34444C19.6317 5.35254 19.5777 5.36469 19.5279 5.37279C19.2333 5.42543 18.9429 5.48213 18.6524 5.54692C18.6026 5.55907 18.5528 5.56717 18.5072 5.57932C17.503 5.81824 16.5321 6.13815 15.6026 6.53906C15.5528 6.55931 15.5072 6.58361 15.4574 6.60385C15.196 6.72129 14.9346 6.84278 14.6773 6.97236C14.6317 6.99666 14.586 7.01691 14.5404 7.0412C13.9387 7.34897 13.3578 7.68913 12.7977 8.06169C12.5279 8.23987 12.2665 8.4302 12.0093 8.62458C11.9636 8.65697 11.9221 8.68937 11.8806 8.72582C11.6607 8.8959 11.4408 9.07003 11.2292 9.25226C11.1877 9.2887 11.1462 9.3211 11.1047 9.35755C10.5985 9.79085 10.1213 10.2565 9.67317 10.7425C9.4574 10.9774 9.24993 11.2203 9.04662 11.4674C9.01342 11.5119 8.97608 11.5524 8.94288 11.5969C8.76861 11.8116 8.60263 12.0343 8.43666 12.257C8.40346 12.3016 8.37442 12.3461 8.34122 12.3866C7.95533 12.9252 7.59848 13.4881 7.27898 14.0712C5.97193 16.4524 5.23334 19.1696 5.23334 22.061C5.23334 26.4547 6.94703 30.4557 9.75201 33.4686C7.45325 30.5934 6.08396 26.9812 6.08396 23.0531C6.08396 20.0888 6.86404 17.3028 8.23334 14.8811C9.60678 15.8773 11.3039 16.4685 13.1462 16.4685C17.6981 16.4685 21.391 12.8645 21.391 8.4221C21.391 7.67293 21.2831 6.94806 21.0881 6.25964C21.864 6.15435 22.6566 6.09766 23.4616 6.09766C28.557 6.09766 33.1379 8.23582 36.3163 11.6455C33.1338 7.66483 28.1752 5.10147 22.6026 5.10147Z" fill="#F0DDF1"/>
</g>
<g style="mix-blend-mode:screen" opacity="0.22">
<path d="M5.5155 19.0036C7.77691 21.8018 11.279 23.5998 15.2126 23.5998C22.0342 23.5998 27.5653 18.2018 27.5653 11.5443C27.5653 9.30086 26.9346 7.19914 25.8392 5.39709C24.7894 5.20272 23.7105 5.09743 22.6068 5.09743C14.0757 5.10148 6.98853 11.0989 5.5155 19.0036Z" fill="#F0DDF1"/>
</g>
<path style="mix-blend-mode:multiply" d="M22.6026 38.9395C32.2 38.9395 39.9802 31.3465 39.9802 21.98C39.9802 12.6135 32.2 5.02048 22.6026 5.02048C13.0053 5.02048 5.22504 12.6135 5.22504 21.98C5.22504 31.3465 13.0053 38.9395 22.6026 38.9395Z" fill="url(#paint0_linear_1_719)"/>
<defs>
<linearGradient id="paint0_linear_1_719" x1="10.3163" y1="9.98927" x2="34.2948" y2="34.5547" gradientUnits="userSpaceOnUse">
<stop stop-color="white"/>
<stop offset="0.03" stop-color="#F9F9F9"/>
<stop offset="0.25" stop-color="#CDD2D2"/>
<stop offset="0.46" stop-color="#AAB3B3"/>
<stop offset="0.66" stop-color="#929D9D"/>
<stop offset="0.85" stop-color="#838F8F"/>
<stop offset="1" stop-color="#7E8B8B"/>
</linearGradient>
</defs>
</svg>
