<svg width="57" height="34" viewBox="0 0 57 34" fill="none" xmlns="http://www.w3.org/2000/svg">
<g clip-path="url(#clip0_1_545)">
<path d="M28.2885 31.1834C36.9974 31.1834 44.0574 24.2027 44.0574 15.5917C44.0574 6.98063 36.9974 0 28.2885 0C19.5797 0 12.5197 6.98063 12.5197 15.5917C12.5197 24.2027 19.5797 31.1834 28.2885 31.1834Z" fill="#E7A993"/>
<g style="mix-blend-mode:multiply" opacity="0.66">
<path d="M14.3828 11.6493C15.8904 11.6315 17.1144 11.2488 18.478 10.6748C18.793 10.5413 18.604 10.0963 18.316 10.083C17.0694 10.0296 15.8814 9.94504 14.6303 9.99843C14.2928 10.0118 13.9283 10.0073 13.5637 10.0073C13.3567 10.5368 13.1812 11.0753 13.0327 11.6315C13.4917 11.6715 13.9643 11.6493 14.3828 11.6448V11.6493Z" fill="#B2AFFF"/>
<path d="M32.8068 4.48527C30.9662 6.58107 28.7476 8.3476 26.3175 9.727C23.9548 11.0708 21.4077 12.0631 18.7211 12.5436C17.011 12.8507 14.6933 13.2022 12.7807 12.7617C12.7177 13.0999 12.6637 13.4425 12.6232 13.7896C13.8158 14.0565 15.1479 14.0565 16.0569 14.0387C19.3871 13.9764 22.6678 13.1043 25.6649 11.6938C28.6891 10.2699 31.4702 8.19186 33.7113 5.73563C34.5709 4.79675 35.5924 3.55529 36.38 2.20704C35.912 1.93116 35.4304 1.67753 34.9309 1.45059C34.3549 2.54521 33.6168 3.55529 32.8023 4.48082L32.8068 4.48527Z" fill="#B2AFFF"/>
<path d="M22.2267 4.28949C23.7298 3.68879 26.304 1.98011 26.799 0.0711975C26.25 0.120144 25.7099 0.200238 25.1834 0.302581C25.1384 0.400474 25.0844 0.502816 25.0259 0.59626C24.4229 1.58854 23.4238 2.30494 22.4248 2.8656C21.2592 3.5197 19.1756 4.36069 17.4565 4.26725C17.2135 4.49418 16.9795 4.72556 16.7545 4.96584C18.478 5.47756 20.7642 4.87685 22.2267 4.28949Z" fill="#B2AFFF"/>
<path d="M18.7525 19.1158C22.7578 18.7287 26.4794 17.2336 30.0031 15.3647C33.2163 13.6561 36.1865 11.4891 38.4681 8.65017C39.1971 7.74689 39.9127 6.75461 40.4887 5.70894C39.7101 4.77005 38.8191 3.92017 37.838 3.18152C37.001 4.60542 35.9569 5.93587 34.9399 7.00379C32.8383 9.21083 30.2686 10.9284 27.5685 12.339C24.7334 13.8207 21.7002 15.0622 18.5095 15.5383C16.9479 15.7697 15.3279 15.8275 13.7483 15.743C13.3343 15.7207 12.9247 15.6807 12.5197 15.6362C12.5197 16.7619 12.6502 17.8566 12.8842 18.9156C14.8508 19.2894 16.9389 19.2849 18.757 19.1114L18.7525 19.1158Z" fill="#B2AFFF"/>
<path d="M43.6794 18.9823C43.7469 18.6708 43.8099 18.3594 43.8639 18.0434C41.2988 20.1081 38.4996 21.8924 35.5655 23.4053C32.6853 24.887 29.6701 26.1329 26.5785 27.1163C24.4274 27.8016 22.2133 28.4334 19.9631 28.8339C20.3187 29.0519 20.6832 29.2566 21.0567 29.448C26.214 28.6782 31.3217 26.5868 35.75 24.224C38.5536 22.7289 41.2178 20.9802 43.6839 18.9823H43.6794Z" fill="#B2AFFF"/>
<path d="M27.8205 1.9801C26.5964 3.46184 24.9494 4.55646 23.2033 5.33961C20.7011 6.46538 17.8075 7.30192 15.0353 7.13728C14.8373 7.44431 14.6438 7.75578 14.4638 8.07616C17.506 8.46328 21.0882 7.40426 23.5093 6.40308C25.6154 5.53094 27.5865 4.28058 29.0266 2.50071C29.5261 1.88221 30.0886 1.04567 30.4891 0.155732C30.0076 0.0889866 29.5216 0.0400401 29.0266 0.0177917C28.7251 0.725291 28.302 1.38829 27.816 1.9801H27.8205Z" fill="#B2AFFF"/>
<path d="M34.0399 23.2496C37.6221 21.4341 41.1817 18.8132 44.0529 15.7341C44.0529 15.6851 44.0529 15.6406 44.0529 15.5917C44.0529 15.0844 44.0259 14.5816 43.9764 14.0832C43.0628 15.1422 42.1268 16.1746 41.0782 17.1402C39.0126 19.0446 36.7625 20.7444 34.2964 22.1149C31.6683 23.5744 28.8286 24.6156 25.9259 25.3943C23.2303 26.1152 20.2196 26.9428 17.362 26.836C17.632 27.0941 17.9065 27.3388 18.1945 27.5791C20.3862 27.6102 22.7398 26.925 24.7289 26.4756C27.9376 25.7503 31.0967 24.7358 34.0309 23.2496H34.0399Z" fill="#B2AFFF"/>
<path d="M20.5752 25.47C25.0574 24.896 29.3326 23.343 33.2748 21.1805C36.8255 19.2315 40.1917 16.7708 42.9233 13.7896C43.2203 13.4647 43.5129 13.131 43.7964 12.7973C43.4319 10.8038 42.6848 8.94385 41.6273 7.28857C40.8082 8.55673 39.8722 9.73145 38.8146 10.8216C36.398 13.3312 33.5493 15.3558 30.4847 17.0156C27.303 18.7421 23.8423 20.0325 20.2376 20.5486C18.3115 20.8245 16.3179 20.8734 14.3783 20.7133C14.0363 20.6866 13.6943 20.6421 13.3478 20.5976C13.9913 22.4709 14.9814 24.184 16.2459 25.6613C17.686 25.7191 19.1216 25.6613 20.5752 25.47Z" fill="#B2AFFF"/>
<path d="M28.7836 4.47638C27.726 5.24617 26.952 6.2429 25.7639 6.89255C24.5489 7.55556 23.1133 7.90708 22.0512 8.79702C21.5247 9.23754 22.1007 9.97618 22.6768 9.85604C24.1348 9.55791 25.7054 8.54784 26.997 7.80029C28.0456 7.19068 29.2156 6.19395 29.4136 4.95249C29.4631 4.63657 29.1211 4.23165 28.7836 4.47638Z" fill="#B2AFFF"/>
</g>
<path d="M41.6047 10.1942C41.6362 9.84713 41.2492 9.62464 40.9477 9.70029C39.4671 10.0563 38.198 12.2722 37.2665 13.398C35.9074 15.0399 34.0983 16.1835 32.3477 17.3715C32.1137 17.5273 32.2487 17.9277 32.5457 17.8388C34.6474 17.238 36.2404 15.8542 37.91 14.5104C39.1971 13.4736 41.4427 11.934 41.6047 10.1942Z" fill="#E79174"/>
<path d="M26.457 11.6537C24.4364 12.6638 22.4292 13.3046 20.2106 13.7095C19.0946 13.9097 17.983 14.0521 16.8535 14.15C16.0659 14.2167 15.6429 14.1856 15.0399 14.6573C14.9003 14.764 14.9679 14.9776 15.0939 15.0622C16.4754 15.9477 19.5356 15.1334 21.0657 14.7507C23.1268 14.2345 25.1114 13.3668 26.682 11.9385C26.8395 11.7917 26.637 11.5647 26.4615 11.6537H26.457Z" fill="#E79174"/>
<g style="mix-blend-mode:multiply" opacity="0.63">
<path d="M32.7213 27.3611C32.4738 27.5257 32.2443 27.7171 32.0417 27.9351C31.8257 28.1665 32.1092 28.5758 32.3928 28.3845C32.5998 28.2466 32.8203 28.1264 33.0588 28.0463C33.3153 27.9573 33.4863 27.8016 33.7068 27.6503C33.9138 27.5124 33.8283 27.2187 33.5853 27.2009C33.2658 27.1742 32.9913 27.1786 32.7168 27.3611H32.7213Z" fill="#E79174"/>
<path d="M33.5088 10.1987C32.9643 10.3544 32.5998 10.657 32.1453 10.9863C31.6772 11.32 31.2227 11.6671 30.7637 12.0141C30.5702 12.161 30.4172 12.3924 30.5027 12.646C30.5567 12.8062 30.6287 12.8818 30.7637 12.9797C30.9122 13.0865 31.1867 13.0865 31.3352 12.9797C32.2533 12.3301 33.4008 11.5781 33.8283 10.5146C33.9049 10.3277 33.6843 10.1497 33.5088 10.1987Z" fill="#E79174"/>
<path d="M24.7243 15.8498C26.6234 15.6718 28.6035 14.7151 30.0121 13.4247C30.3271 13.1355 30.0031 12.5437 29.5801 12.6905C27.816 13.3179 25.9889 14.2879 24.5713 15.4849C24.4363 15.6006 24.5398 15.8631 24.7243 15.8453V15.8498Z" fill="#E79174"/>
<path d="M37.838 17.3448C38.0091 17.1268 37.865 16.6863 37.5275 16.8153C35.7769 17.4783 34.2784 18.7153 32.6358 19.6053C30.7142 20.6465 28.7251 21.5987 26.682 22.3819C26.3939 22.4931 26.502 22.9247 26.8125 22.8491C28.8421 22.3418 30.8132 21.71 32.6898 20.7933C34.4809 19.9167 36.578 18.9378 37.838 17.3493V17.3448Z" fill="#E79174"/>
<path d="M32.3027 0.658563C31.5557 1.80658 30.5522 2.73656 29.7601 3.84453C29.5036 4.20496 30.0076 4.67662 30.3676 4.44524C31.6592 3.61315 32.6808 2.30049 33.4188 0.849899C33.0813 0.734207 32.7348 0.627415 32.3838 0.538422C32.3568 0.578469 32.3343 0.622966 32.3072 0.663013L32.3027 0.658563Z" fill="#E79174"/>
<path d="M37.064 6.48764C36.3889 7.36867 35.5204 8.11622 34.8769 9.00616C34.6384 9.33988 35.0974 9.727 35.4214 9.54457C37.2575 8.49889 38.4186 6.20731 39.0981 4.245C38.9721 4.12931 38.8506 4.01362 38.7201 3.90237C38.2475 4.81901 37.694 5.66445 37.064 6.48319V6.48764Z" fill="#E79174"/>
<path d="M40.7407 22.1638C39.2826 23.125 37.4285 23.788 36.1909 25.0161C35.9119 25.292 36.1009 25.8793 36.5375 25.8393C38.4276 25.6791 40.2277 24.3575 41.7532 23.3252C41.8792 23.2407 42.0052 23.1517 42.1313 23.0627C42.6173 22.1861 43.0178 21.2606 43.3238 20.295C42.4823 20.9491 41.6227 21.5809 40.7407 22.1594V22.1638Z" fill="#E79174"/>
<path d="M23.8333 4.67216C25.8449 3.96911 27.7395 2.0958 28.3965 0C28.3605 0 28.3245 0 28.284 0C27.9555 0 27.636 0.013349 27.312 0.0311478C26.997 0.69415 26.5739 1.29931 26.0519 1.84217C25.2554 2.66981 24.2383 3.26161 23.5273 4.1649C23.3608 4.37403 23.5003 4.78341 23.8243 4.66771L23.8333 4.67216Z" fill="#E79174"/>
<path d="M21.4392 8.53448C21.7677 8.30755 21.6912 7.68904 21.2142 7.72019C19.7426 7.81363 18.334 8.41434 16.8444 8.56118C15.9624 8.65017 15.0668 8.66797 14.1713 8.64127C13.9958 8.9839 13.8383 9.33542 13.6898 9.6914C16.3224 10.0251 19.4321 9.93168 21.4392 8.53448Z" fill="#E79174"/>
<path d="M30.5027 28.9274C30.9032 28.5892 30.4532 28.0819 30.0437 28.1442C28.6126 28.3533 27.2535 29.1587 25.8539 29.5637C24.9314 29.8306 23.9998 30.0798 23.0638 30.3023C23.7928 30.5559 24.5489 30.7562 25.3229 30.903C27.2535 30.6138 29.1841 30.0442 30.5027 28.9274Z" fill="#E79174"/>
<path d="M20.2556 22.591C22.0512 22.2796 23.8468 21.9102 25.5884 21.3763C26.9879 20.9491 28.869 20.4819 29.7331 19.236C29.9131 18.9734 29.6746 18.5863 29.3641 18.5997C28.0095 18.6575 26.7719 19.5119 25.4849 19.9257C23.9278 20.424 22.3212 20.7756 20.7146 21.0826C18.3115 21.5409 16.0344 21.6788 13.7032 21.5276C13.9193 22.0482 14.1668 22.5599 14.4368 23.0493C16.3719 23.2006 18.388 22.9114 20.2556 22.591Z" fill="#E79174"/>
<path d="M23.2393 0.823181C21.7857 1.3082 20.4311 1.9979 19.2026 2.85668C20.0531 2.89673 20.9577 2.73654 21.6507 2.37167C22.2177 2.07354 22.8838 1.48618 23.2393 0.823181Z" fill="#E79174"/>
</g>
<g style="mix-blend-mode:multiply" opacity="0.36">
<path d="M28.2976 0C28.8106 0.342625 29.3236 0.654103 29.5441 1.41055C29.7106 1.98011 29.6476 2.58971 29.5036 3.16817C28.9501 5.37521 27.2895 7.14619 26.412 9.25088C26.1644 9.83824 25.9979 10.5546 26.3714 11.0708C26.7135 11.5425 27.375 11.6493 27.9645 11.6626C30.6602 11.7249 33.2748 10.7326 35.9705 10.5902C37.262 10.5235 38.6481 10.6837 39.6426 11.498C40.3897 12.1076 40.8262 13.0064 41.1907 13.8963C41.8388 15.4982 42.3203 17.1713 42.6173 18.8711C42.7478 19.6275 42.8513 20.4018 43.0268 21.1493C43.6929 19.4228 44.0574 17.554 44.0574 15.6006C44.0574 6.986 37.001 0.00444968 28.2976 0Z" fill="#E7A993"/>
</g>
<g style="mix-blend-mode:multiply" opacity="0.36">
<path d="M28.2886 31.1878C31.3622 31.1878 34.2244 30.3157 36.65 28.8117C36.3755 28.7627 36.101 28.7093 35.8265 28.6426C35.2054 28.4913 34.5664 28.2777 34.1074 27.8372C33.1533 26.9161 33.2928 25.332 33.8734 24.1484C34.4539 22.9604 35.3854 21.9636 35.8985 20.7489C36.0335 20.4329 36.137 20.0859 36.0515 19.7521C35.8535 18.9734 34.8229 18.7955 34.0084 18.8311C32.3388 18.9022 30.6782 19.2182 29.0986 19.7566C28.4326 19.9835 27.771 20.2505 27.0735 20.3128C26.3715 20.3706 25.6064 20.1838 25.1654 19.6409C24.6659 19.0224 24.6074 17.999 23.8603 17.7053C23.5228 17.5718 23.1403 17.643 22.7848 17.732C20.1611 18.3994 17.4475 19.9301 14.9184 18.9645C13.8833 18.5685 13.0958 17.7987 12.5602 16.8465C13.2038 24.8737 19.9901 31.1878 28.2751 31.1878H28.2886Z" fill="#E7A993"/>
</g>
<g style="mix-blend-mode:multiply" opacity="0.15">
<path d="M37.055 2.63422C37.2845 3.69324 37.406 4.78786 37.406 5.91363C37.406 14.5238 30.3451 21.5053 21.6372 21.5053C18.3925 21.5053 15.3773 20.5353 12.8662 18.8711C14.3873 25.9105 20.7101 31.1878 28.284 31.1878C36.992 31.1878 44.0529 24.2063 44.0529 15.5961C44.0529 10.1942 41.2717 5.43306 37.0505 2.63422H37.055Z" fill="#E7A993"/>
</g>
<g style="mix-blend-mode:multiply" opacity="0.15">
<path d="M38.7651 3.94241C39.8002 6.01596 40.3807 8.35204 40.3807 10.8216C40.3807 19.4317 33.3198 26.4133 24.6119 26.4133C20.5887 26.4133 16.921 24.9226 14.1353 22.4709C16.705 27.6325 22.0782 31.1833 28.2886 31.1833C36.9965 31.1833 44.0574 24.2018 44.0574 15.5917C44.0574 10.9551 42.0098 6.79911 38.7651 3.94241Z" fill="#E7A993"/>
</g>
<g style="mix-blend-mode:screen" opacity="0.45">
<path d="M38.6661 3.85787C35.8894 1.45949 32.2623 0 28.2885 0C27.357 0 26.4479 0.0845439 25.5659 0.235833C25.5344 0.240283 25.5074 0.244732 25.4759 0.253632C25.1789 0.307028 24.8819 0.369323 24.5893 0.436069C24.5758 0.436069 24.5668 0.440518 24.5533 0.444968C23.6218 0.667452 22.7263 0.97448 21.8712 1.3527C21.8442 1.36605 21.8127 1.3794 21.7857 1.39275C21.5202 1.51289 21.2592 1.63748 21.0027 1.77097C20.9892 1.77987 20.9712 1.78432 20.9577 1.79322C20.1341 2.22039 19.3556 2.71875 18.6265 3.27941C18.5995 3.30166 18.568 3.32391 18.541 3.34616C18.3205 3.51525 18.1045 3.69323 17.8975 3.87567C17.8795 3.89347 17.8615 3.90682 17.8435 3.92462C17.38 4.32954 16.9389 4.76561 16.5249 5.22392C16.3269 5.44641 16.1334 5.66889 15.9489 5.90027C15.9264 5.93142 15.9039 5.95812 15.8769 5.98927C15.7059 6.20285 15.5439 6.42089 15.3819 6.64782C15.3639 6.67007 15.3504 6.69232 15.3324 6.71457C13.5593 9.23753 12.5197 12.2989 12.5197 15.6006C12.5197 20.7933 15.0894 25.3943 19.0406 28.2288C15.7374 25.3721 13.6493 21.176 13.6493 16.495C13.6493 13.8919 14.2973 11.4446 15.4359 9.28648C16.6824 10.2254 18.235 10.786 19.9226 10.786C24.0088 10.786 27.3255 7.51106 27.3255 3.4663C27.3255 2.63866 27.1815 1.84217 26.925 1.09907C27.7395 0.97003 28.5721 0.903285 29.4181 0.903285C32.8743 0.903285 36.0695 2.0068 38.6661 3.87122V3.85787Z" fill="#E7A993"/>
</g>
<g style="mix-blend-mode:screen" opacity="0.25">
<path d="M13.0958 11.4179C15.0579 13.8474 18.073 15.4092 21.4617 15.4092C27.3705 15.4092 32.1633 10.6748 32.1633 4.8279C32.1633 3.19042 31.7852 1.63748 31.1147 0.253632C30.1967 0.0889936 29.2561 0 28.2886 0C21.0432 0 14.9409 4.83235 13.0958 11.4179Z" fill="#E7A993"/>
</g>
<path style="mix-blend-mode:multiply" opacity="0.76" d="M28.2885 31.1834C36.9974 31.1834 44.0574 24.2027 44.0574 15.5917C44.0574 6.98063 36.9974 0 28.2885 0C19.5797 0 12.5197 6.98063 12.5197 15.5917C12.5197 24.2027 19.5797 31.1834 28.2885 31.1834Z" fill="url(#paint0_linear_1_545)"/>
<path style="mix-blend-mode:screen" opacity="0.15" d="M42.7703 9.07736C42.8153 10.9373 42.5273 12.8329 41.8612 14.6884C38.9316 22.858 29.8591 27.1342 21.5967 24.2374C17.335 22.7423 14.1263 19.632 12.4162 15.8498C12.5647 22.1728 16.5969 28.0374 22.9828 30.2756C31.2452 33.1724 40.3177 28.8962 43.2473 20.7266C44.6649 16.7709 44.3814 12.6282 42.7703 9.07291V9.07736Z" fill="url(#paint1_linear_1_545)"/>
<g opacity="0.72">
<path d="M14.2118 22.6578C14.1263 22.4931 14.0543 22.3241 13.9778 22.155C7.49293 26.133 4.65328 28.6782 4.32026 29.8173C4.29326 29.9108 4.28876 29.9864 4.30676 30.022L4.32926 30.062C4.35176 30.111 4.45977 30.151 4.50477 30.1644C5.32381 30.4314 9.55404 30.4981 29.5081 20.1304C41.5192 13.8919 49.7096 7.90264 51.9328 5.43752C52.2073 5.13494 51.9418 4.65883 51.5367 4.72557C49.8897 4.99255 46.6405 5.97593 41.9422 7.88929C42.0142 8.00943 42.0862 8.12513 42.1537 8.24972C46.0285 6.69233 48.5666 6.00263 48.8591 6.54994C49.4441 7.64901 40.7497 13.309 29.4361 19.1959C18.127 25.0829 8.48298 28.963 7.89795 27.8639C7.57843 27.2632 10.0491 25.2875 14.2118 22.6578Z" fill="url(#paint2_linear_1_545)"/>
<path d="M41.0332 6.4921C41.1007 6.58554 41.1637 6.68788 41.2312 6.78578C47.2165 4.3162 51.6538 3.0169 53.0443 3.47076C53.5079 3.62205 53.7959 3.96023 53.8319 4.4052C53.8679 4.85461 53.9849 6.22957 46.798 11.2889C42.1673 14.546 36.2405 18.0969 30.1111 21.2784C27.528 22.6177 24.7694 24.0149 22.0467 25.3231C14.1803 29.1054 6.56589 32.1979 4.09526 31.3925C3.55524 31.219 3.28972 30.8941 3.16372 30.6494C3.02871 30.4047 2.9072 30.0086 3.06471 29.4613C3.65874 27.4323 8.28049 24.1217 13.4693 20.9536C13.4423 20.8779 13.4108 20.8067 13.3838 20.7355C4.68029 26.1597 -0.773992 30.7962 0.0900537 32.4159C1.32762 34.7387 15.0488 29.9998 30.7367 21.839C46.429 13.6739 58.1476 5.17054 56.91 2.85226C56.091 1.31267 49.7727 2.87896 41.0332 6.4921Z" fill="url(#paint3_linear_1_545)"/>
<path d="M45.1329 8.06284C45.2589 8.04504 44.5794 8.83263 44.5569 8.85488C44.2734 9.12186 43.9269 9.35324 43.6163 9.58463C42.7613 10.2209 41.8658 10.8127 40.9612 11.3778C39.6831 12.1743 38.2746 12.824 37.1135 13.7896C36.983 13.9008 37.127 14.0699 37.2665 14.021C40.0027 13.091 43.0493 11.0352 45.1509 9.07736C45.4524 8.79703 45.9565 8.40101 45.7225 7.9338C45.5695 7.62677 45.3129 7.57337 45.0159 7.72021C44.8224 7.81366 44.9259 8.09398 45.1329 8.06729V8.06284Z" fill="url(#paint4_linear_1_545)"/>
<path d="M55.3934 6.32302C51.3747 10.8305 45.8439 13.3357 41.1682 17.0379C41.0377 17.1402 41.1817 17.3582 41.3302 17.2826C44.1878 15.8186 46.87 13.8474 49.5251 12.0453C51.5817 10.6481 54.7634 8.95723 55.695 6.52326C55.758 6.35862 55.5194 6.18063 55.3934 6.32302Z" fill="url(#paint5_linear_1_545)"/>
<path d="M38.459 18.5374C36.4744 19.6231 34.1118 20.5709 32.3477 21.9814C32.2532 22.0571 32.3342 22.2306 32.4557 22.1995C34.6293 21.6299 36.776 20.1037 38.6345 18.8889C38.8416 18.7554 38.6931 18.4083 38.459 18.5374Z" fill="url(#paint6_linear_1_545)"/>
<path d="M24.6479 25.6747C21.4347 27.3611 17.9875 28.6782 14.8283 30.4269C14.6573 30.5204 14.7293 30.8185 14.9408 30.7695C18.4375 29.9553 21.7047 27.7037 24.7874 25.9594C24.9629 25.8571 24.8324 25.5768 24.6479 25.6747Z" fill="url(#paint7_linear_1_545)"/>
<path d="M10.6746 25.7325C10.1481 25.7859 9.47307 26.7292 10.0311 27.1386C10.3146 27.3477 10.7466 27.1608 11.0347 27.0719C11.5657 26.9028 12.1822 26.7248 12.5737 26.3199C12.6727 26.2175 12.5962 26.0618 12.4567 26.0796C12.0022 26.1241 11.5927 26.3466 11.1652 26.4934C10.9987 26.5512 10.4991 26.8271 10.3731 26.5824C10.2921 26.4266 10.6611 26.0173 10.7691 25.9283C10.8636 25.8526 10.7781 25.7191 10.6746 25.7325Z" fill="url(#paint8_linear_1_545)"/>
<path d="M0.481571 33.5328C1.30511 34.1113 2.78119 34.2047 3.58673 33.5328C3.66324 33.4705 3.62274 33.3192 3.51473 33.3237C3.05121 33.3237 2.62818 33.5506 2.16916 33.604C1.62913 33.6707 1.0846 33.6174 0.598577 33.3593C0.481571 33.297 0.364565 33.4527 0.481571 33.5373V33.5328Z" fill="url(#paint9_linear_1_545)"/>
<path d="M3.75773 30.2801C4.32476 31.1122 5.54433 31.1878 6.35437 30.6717C6.43537 30.6183 6.40387 30.4937 6.30037 30.507C5.42732 30.6272 4.57677 30.8096 3.82074 30.2133C3.77573 30.1777 3.73523 30.24 3.76223 30.2801H3.75773Z" fill="url(#paint10_linear_1_545)"/>
<path d="M7.33543 30.6895C8.78001 30.3958 10.5711 30.1332 11.8312 29.3368C11.9437 29.2656 11.9437 29.0475 11.7772 29.052C10.2696 29.0698 8.6135 29.8262 7.22742 30.3735C7.04741 30.4447 7.14642 30.7295 7.33543 30.6939V30.6895Z" fill="url(#paint11_linear_1_545)"/>
<path d="M12.5422 20.2817C11.1921 20.7489 9.77905 21.6655 8.699 22.5955C8.55499 22.7201 8.7125 22.9693 8.88801 22.8758C10.1661 22.1995 11.5521 21.3807 12.6502 20.4463C12.7402 20.3706 12.6412 20.2505 12.5422 20.2861V20.2817Z" fill="url(#paint12_linear_1_545)"/>
<path d="M49.0436 4.54758C49.7142 4.44079 50.4162 4.2984 51.0957 4.28505C51.3883 4.27615 51.7348 4.2806 52.0093 4.39629C52.3963 4.55648 52.4458 4.88131 52.6393 5.18834C52.6843 5.25953 52.7788 5.29068 52.8463 5.22838C53.4629 4.68107 52.5223 3.96467 52.0048 3.82673C50.9607 3.5553 49.9167 3.93353 48.9716 4.334C48.8501 4.38294 48.9176 4.56538 49.0436 4.54758Z" fill="url(#paint13_linear_1_545)"/>
<path d="M52.3288 5.78905C52.1803 5.84689 52.0813 5.95368 51.9913 6.08273C51.9103 6.19397 51.8247 6.34526 51.8067 6.4832C51.7977 6.56774 51.8923 6.66563 51.9823 6.63894C52.2838 6.54549 52.5403 6.20287 52.5223 5.88694C52.5178 5.78905 52.4008 5.76235 52.3288 5.78905Z" fill="url(#paint14_linear_1_545)"/>
</g>
</g>
<defs>
<linearGradient id="paint0_linear_1_545" x1="17.137" y1="4.56537" x2="39.1882" y2="26.8671" gradientUnits="userSpaceOnUse">
<stop stop-color="#FF0000"/>
<stop offset="0.11" stop-color="#F20006"/>
<stop offset="0.3" stop-color="#D20118"/>
<stop offset="0.56" stop-color="#9D0236"/>
<stop offset="0.87" stop-color="#54045D"/>
<stop offset="1" stop-color="#340570"/>
</linearGradient>
<linearGradient id="paint1_linear_1_545" x1="26.7928" y1="9.32234" x2="31.8971" y2="30.8536" gradientUnits="userSpaceOnUse">
<stop offset="0.24" stop-color="white"/>
<stop offset="0.92" stop-color="white"/>
<stop offset="1" stop-color="white"/>
</linearGradient>
<linearGradient id="paint2_linear_1_545" x1="3.9826" y1="29.3555" x2="52.3096" y2="5.60145" gradientUnits="userSpaceOnUse">
<stop stop-color="#FFB6A0"/>
<stop offset="0.15" stop-color="#F2ACA1"/>
<stop offset="0.42" stop-color="#D293A5"/>
<stop offset="0.77" stop-color="#9D6AAA"/>
<stop offset="0.99" stop-color="#7A4FAF"/>
</linearGradient>
<linearGradient id="paint3_linear_1_545" x1="-0.304028" y1="31.6183" x2="57.1669" y2="3.36972" gradientUnits="userSpaceOnUse">
<stop stop-color="#FFB6A0"/>
<stop offset="0.15" stop-color="#F2ACA1"/>
<stop offset="0.42" stop-color="#D293A5"/>
<stop offset="0.77" stop-color="#9D6AAA"/>
<stop offset="0.99" stop-color="#7A4FAF"/>
</linearGradient>
<linearGradient id="paint4_linear_1_545" x1="36.7782" y1="13.0318" x2="45.8375" y2="8.57887" gradientUnits="userSpaceOnUse">
<stop stop-color="#FFB6A0"/>
<stop offset="0.15" stop-color="#F2ACA1"/>
<stop offset="0.42" stop-color="#D293A5"/>
<stop offset="0.77" stop-color="#9D6AAA"/>
<stop offset="0.99" stop-color="#7A4FAF"/>
</linearGradient>
<linearGradient id="paint5_linear_1_545" x1="40.4927" y1="15.5806" x2="56.2256" y2="7.84749" gradientUnits="userSpaceOnUse">
<stop stop-color="#FFB6A0"/>
<stop offset="0.15" stop-color="#F2ACA1"/>
<stop offset="0.42" stop-color="#D293A5"/>
<stop offset="0.77" stop-color="#9D6AAA"/>
<stop offset="0.99" stop-color="#7A4FAF"/>
</linearGradient>
<linearGradient id="paint6_linear_1_545" x1="32.3674" y1="21.954" x2="38.6299" y2="18.8758" gradientUnits="userSpaceOnUse">
<stop stop-color="#FFB6A0"/>
<stop offset="0.15" stop-color="#F2ACA1"/>
<stop offset="0.42" stop-color="#D293A5"/>
<stop offset="0.77" stop-color="#9D6AAA"/>
<stop offset="0.99" stop-color="#7A4FAF"/>
</linearGradient>
<linearGradient id="paint7_linear_1_545" x1="14.9704" y1="30.7296" x2="24.7672" y2="25.9142" gradientUnits="userSpaceOnUse">
<stop stop-color="#FFB6A0"/>
<stop offset="0.15" stop-color="#F2ACA1"/>
<stop offset="0.42" stop-color="#D293A5"/>
<stop offset="0.77" stop-color="#9D6AAA"/>
<stop offset="0.99" stop-color="#7A4FAF"/>
</linearGradient>
<linearGradient id="paint8_linear_1_545" x1="10.0455" y1="26.8279" x2="12.2539" y2="25.7424" gradientUnits="userSpaceOnUse">
<stop stop-color="#FFB6A0"/>
<stop offset="0.15" stop-color="#F2ACA1"/>
<stop offset="0.42" stop-color="#D293A5"/>
<stop offset="0.77" stop-color="#9D6AAA"/>
<stop offset="0.99" stop-color="#7A4FAF"/>
</linearGradient>
<linearGradient id="paint9_linear_1_545" x1="0.80929" y1="34.0665" x2="3.23128" y2="32.8761" gradientUnits="userSpaceOnUse">
<stop stop-color="#FFB6A0"/>
<stop offset="0.15" stop-color="#F2ACA1"/>
<stop offset="0.42" stop-color="#D293A5"/>
<stop offset="0.77" stop-color="#9D6AAA"/>
<stop offset="0.99" stop-color="#7A4FAF"/>
</linearGradient>
<linearGradient id="paint10_linear_1_545" x1="4.08151" y1="30.9208" x2="6.01588" y2="29.97" gradientUnits="userSpaceOnUse">
<stop stop-color="#FFB6A0"/>
<stop offset="0.15" stop-color="#F2ACA1"/>
<stop offset="0.42" stop-color="#D293A5"/>
<stop offset="0.77" stop-color="#9D6AAA"/>
<stop offset="0.99" stop-color="#7A4FAF"/>
</linearGradient>
<linearGradient id="paint11_linear_1_545" x1="7.46344" y1="30.8689" x2="11.5941" y2="28.8386" gradientUnits="userSpaceOnUse">
<stop stop-color="#FFB6A0"/>
<stop offset="0.15" stop-color="#F2ACA1"/>
<stop offset="0.42" stop-color="#D293A5"/>
<stop offset="0.77" stop-color="#9D6AAA"/>
<stop offset="0.99" stop-color="#7A4FAF"/>
</linearGradient>
<linearGradient id="paint12_linear_1_545" x1="8.7058" y1="22.5144" x2="12.6833" y2="20.5594" gradientUnits="userSpaceOnUse">
<stop stop-color="#FFB6A0"/>
<stop offset="0.15" stop-color="#F2ACA1"/>
<stop offset="0.42" stop-color="#D293A5"/>
<stop offset="0.77" stop-color="#9D6AAA"/>
<stop offset="0.99" stop-color="#7A4FAF"/>
</linearGradient>
<linearGradient id="paint13_linear_1_545" x1="49.5182" y1="5.46002" x2="52.4439" y2="4.02194" gradientUnits="userSpaceOnUse">
<stop stop-color="#FFB6A0"/>
<stop offset="0.15" stop-color="#F2ACA1"/>
<stop offset="0.42" stop-color="#D293A5"/>
<stop offset="0.77" stop-color="#9D6AAA"/>
<stop offset="0.99" stop-color="#7A4FAF"/>
</linearGradient>
<linearGradient id="paint14_linear_1_545" x1="51.8708" y1="6.35787" x2="52.4834" y2="6.05678" gradientUnits="userSpaceOnUse">
<stop stop-color="#FFB6A0"/>
<stop offset="0.15" stop-color="#F2ACA1"/>
<stop offset="0.42" stop-color="#D293A5"/>
<stop offset="0.77" stop-color="#9D6AAA"/>
<stop offset="0.99" stop-color="#7A4FAF"/>
</linearGradient>
<clipPath id="clip0_1_545">
<rect width="57" height="34" fill="white"/>
</clipPath>
</defs>
</svg>
