<svg width="34" height="34" viewBox="0 0 34 34" fill="none" xmlns="http://www.w3.org/2000/svg">
<g clip-path="url(#clip0_1_662)">
<path d="M19.6937 33.7898C28.9655 32.3047 35.2778 23.5845 33.7927 14.3127C32.3076 5.04094 23.5875 -1.27141 14.3157 0.213687C5.04391 1.69878 -1.26844 10.419 0.216657 19.6907C1.70176 28.9625 10.4219 35.2749 19.6937 33.7898Z" fill="#FFB817"/>
<path d="M17.002 0C15.4756 0 13.9979 0.202985 12.5932 0.580537C12.6379 0.580537 12.6866 0.584597 12.7312 0.588657C15.6014 0.844418 18.4148 1.85528 20.7288 3.58878C21.3743 4.07188 22.0076 4.64024 22.2878 5.39534C22.9089 7.06388 21.622 8.78519 20.4244 10.1005C19.1577 11.493 17.8911 12.8896 16.6245 14.282C15.7841 15.2076 14.895 16.251 14.8869 17.5014C14.8747 18.8411 15.8897 19.9616 16.9452 20.7857C18.0007 21.6139 19.2024 22.3405 19.8641 23.5057C20.7329 25.0402 20.4365 27.0457 19.4541 28.5072C18.4716 29.9728 16.9127 30.9593 15.2888 31.6413C13.8436 32.2503 12.3131 32.6359 10.7542 32.8105C12.6906 33.5778 14.7976 34 17.0061 34C26.3962 34 34.0081 26.3881 34.0081 16.998C34.0081 7.60788 26.3881 0 17.002 0Z" fill="#FFA917"/>
<path d="M15.029 5.34258C13.8355 5.85004 12.719 6.55643 11.4646 6.88526C10.949 7.01923 10.3076 7.05171 9.97875 6.63356C9.62961 6.19511 9.84478 5.5415 10.133 5.06246C10.4213 4.58341 10.7907 4.07595 10.7095 3.51977C10.5836 2.65912 9.57278 2.43177 8.80549 2.10294C3.5563 4.9975 0 10.5837 0 17.002C0 23.4204 3.2234 28.4666 8.06257 31.4627C8.1803 31.4262 8.29803 31.3856 8.41576 31.3531C10.47 30.7238 12.6338 30.2285 14.347 28.9335C15.0168 28.426 15.6136 27.7887 15.9181 27.0051C16.2226 26.2216 16.2023 25.2838 15.7232 24.5937C15.1386 23.7574 13.941 23.2946 13.803 22.2837C13.6974 21.4961 14.3226 20.7613 14.2699 19.9656C14.1765 18.5894 12.3334 18.1672 11.4849 17.0792C10.8678 16.2875 10.8475 15.1386 11.2616 14.2252C11.6757 13.3118 12.4755 12.6176 13.3524 12.1345C14.3389 11.5864 15.439 11.2779 16.4824 10.8475C17.5257 10.4172 18.5569 9.83261 19.1943 8.90294C19.8316 7.9692 19.9697 6.62138 19.2633 5.74043C18.3093 4.55094 16.4337 4.75392 15.029 5.34664V5.34258Z" fill="#FFA917"/>
<path d="M30.7117 6.95021C29.8388 7.26281 28.9944 7.68908 28.3489 8.05039C27.2244 8.67964 26.1323 9.60932 25.909 10.8759C25.8482 11.2251 25.8644 11.6107 26.0755 11.8949C26.4084 12.3415 27.0579 12.3537 27.6141 12.4024C28.5844 12.4876 29.5303 12.8165 30.3463 13.3442C30.4681 13.4254 30.598 13.5188 30.6467 13.6568C30.7279 13.8923 30.5574 14.1359 30.3828 14.3145C29.3963 15.3294 27.9957 15.9262 26.583 15.9384C25.6736 15.9465 24.7399 15.7273 23.8751 16.0074C23.1687 16.2347 22.6045 16.7747 22.1538 17.3633C21.5652 18.1266 21.1145 19.0725 21.2445 20.0306C21.415 21.2891 22.5395 22.2066 23.6925 22.7425C24.1715 22.9657 24.679 23.1484 25.2067 23.1484C25.8887 23.1484 26.5302 22.848 27.131 22.5273C27.8212 22.1579 28.491 21.7478 29.1365 21.3053C29.7414 20.8912 30.3463 20.4365 31.0567 20.2579C31.9093 20.0427 32.7984 20.2498 33.6753 20.335C33.8904 19.2552 34.0041 18.1387 34.0041 16.998C34.0041 13.2387 32.7821 9.76358 30.7157 6.95021H30.7117Z" fill="#FFB817"/>
<path d="M33.9878 16.4783C32.1772 17.27 30.1839 17.5907 28.2068 17.7044C27.3908 17.7531 26.5545 17.7734 25.7994 18.09C25.0443 18.4067 24.3866 19.1009 24.3826 19.9169C24.3826 20.1483 24.4353 20.3838 24.5693 20.5705C24.9672 21.1307 25.8278 21.0414 26.4611 20.7816C27.407 20.4 28.2474 19.791 29.173 19.3526C30.6507 18.6503 32.2909 18.4026 33.9391 18.4026C33.9756 17.9398 34 17.473 34 16.998C34 16.8234 33.9919 16.6488 33.9878 16.4743V16.4783Z" fill="#FFA917"/>
<path d="M28.6493 11.2738C28.7874 11.7569 29.2339 12.0979 29.7048 12.2562C30.1798 12.4186 30.6873 12.4308 31.1866 12.4714C31.962 12.5323 32.7334 12.6703 33.4885 12.8611C33.0622 11.1561 32.3802 9.55248 31.483 8.09911C30.8416 8.42388 30.2367 8.80955 29.6764 9.25612C29.0512 9.75546 28.4301 10.5024 28.6493 11.2738Z" fill="#FFA917"/>
<g style="mix-blend-mode:overlay" opacity="0.66">
<path opacity="0.43" d="M24.6952 7.40896C24.9185 8.60657 27.5695 7.30746 28.0282 6.72693C28.4869 6.15045 28.3367 5.42782 27.6344 5.1477C26.6317 4.74985 25.771 5.52525 25.1336 6.2357C24.9388 6.45493 24.752 6.70257 24.7033 6.99081C24.6749 7.15725 24.6749 7.29528 24.6952 7.41302V7.40896Z" fill="#FFCB24"/>
<path opacity="0.43" d="M24.6465 9.28047C24.5491 9.11402 24.338 8.96787 24.139 8.98817C24.0538 8.99629 23.9685 9.00441 23.8833 9.02877C23.6275 9.10185 23.4002 9.36573 23.4164 9.64179C23.4164 9.65396 23.4164 9.66208 23.4164 9.67426C23.4164 9.74328 23.4326 9.80823 23.4529 9.86507C23.4529 9.88131 23.4448 9.89755 23.4448 9.91785C23.4286 10.2467 23.7574 10.4212 24.0375 10.3725C24.2486 10.336 24.4273 10.202 24.5531 10.0315C24.5694 10.0112 24.5897 9.98686 24.6018 9.9625C24.614 9.9422 24.6221 9.91785 24.6303 9.89755C24.6343 9.88943 24.6424 9.88131 24.6465 9.87319C24.6546 9.86101 24.6546 9.84477 24.6627 9.83259C24.6749 9.80011 24.6952 9.76764 24.7074 9.73516C24.7399 9.58495 24.7358 9.43068 24.6465 9.28047Z" fill="#FFCB24"/>
<path d="M24.9509 13.1007C24.9144 12.2522 24.3095 11.3347 23.3433 11.5052C21.8331 11.7731 22.3852 14.2496 23.6803 14.3916C24.6018 14.4931 24.9794 13.8233 24.9469 13.0966L24.9509 13.1007Z" fill="#FFCB24"/>
<path d="M23.5706 7.77027C24.0578 7.77027 24.0578 7.01111 23.5706 7.01111C23.0835 7.01111 23.0835 7.77027 23.5706 7.77027Z" fill="#FFCB24"/>
<path d="M23.8386 6.30471C24.1106 6.36561 24.5003 6.21946 24.549 5.9028C24.549 5.88656 24.5531 5.87032 24.5571 5.85408C24.6871 5.70793 24.8048 5.54555 24.9063 5.38316C25.1336 5.01373 24.7561 4.53468 24.346 4.65241C23.9279 4.7742 23.5057 5.14364 23.4407 5.59832C23.3961 5.89468 23.5138 6.23164 23.8426 6.30877L23.8386 6.30471Z" fill="#FFCB24"/>
<path opacity="0.43" d="M25.499 5.01373C25.8603 5.01373 25.8603 4.45349 25.499 4.45349C25.1377 4.45349 25.1377 5.01373 25.499 5.01373Z" fill="#FFCB24"/>
<path d="M26.4287 4.64835C26.9158 4.64835 26.9158 3.88919 26.4287 3.88919C25.9415 3.88919 25.9415 4.64835 26.4287 4.64835Z" fill="#FFCB24"/>
<path d="M31.0527 22.7181C30.9999 22.6288 30.9147 22.5557 30.7969 22.5151C29.6765 22.1335 28.3124 22.8886 27.5532 23.7046C27.0742 24.2202 26.8631 24.9915 27.2528 25.6289C27.675 26.3272 28.487 26.3962 29.1974 26.177C30.257 25.8481 31.6535 24.9915 31.6332 23.7208C31.6251 23.2702 31.3897 22.9292 31.0568 22.714L31.0527 22.7181Z" fill="#FFCB24"/>
<path d="M24.7561 24.7845C24.7764 25.2229 25.1093 25.5924 25.564 25.5924C25.9862 25.5924 26.3922 25.2229 26.3719 24.7845C26.3516 24.346 26.0187 23.9766 25.564 23.9766C25.1418 23.9766 24.7358 24.346 24.7561 24.7845Z" fill="#FFCB24"/>
<path opacity="0.43" d="M26.2297 26.5098C25.9659 26.3393 25.5883 26.2541 25.2798 26.2906C24.5977 26.3678 23.4732 27.3421 24.2242 28.0241C24.8819 28.6249 25.9253 28.0769 26.3799 27.4882C26.7088 27.062 26.5545 26.7169 26.2297 26.5098Z" fill="#FFCB24"/>
<path d="M27.9551 26.8468C27.2772 26.8468 27.2772 27.9023 27.9551 27.9023C28.6331 27.9023 28.6331 26.8468 27.9551 26.8468Z" fill="#FFCB24"/>
<path d="M26.8265 28.6046C26.5302 28.6046 26.5302 29.0675 26.8265 29.0675C27.1229 29.0675 27.1229 28.6046 26.8265 28.6046Z" fill="#FFCB24"/>
<path d="M29.4816 26.4814C28.9295 26.4814 28.9295 27.338 29.4816 27.338C30.0337 27.338 30.0337 26.4814 29.4816 26.4814Z" fill="#FFCB24"/>
</g>
<g style="mix-blend-mode:overlay" opacity="0.39">
<path d="M0 17.002C0 21.0739 1.43307 24.8129 3.82018 27.7399C3.79582 27.1635 3.84454 26.587 3.98257 26.0227C4.36012 24.5003 5.35881 23.2134 6.44275 22.0807C6.67821 21.8331 6.92585 21.5814 7.02328 21.2525C7.22221 20.5746 6.67009 19.8885 6.0449 19.5637C5.4197 19.2389 4.69302 19.1334 4.07594 18.7924C2.68346 18.0251 2.18412 15.9993 3.0529 14.6677C3.18687 14.4607 3.35331 14.2699 3.5766 14.1643C4.16525 13.8923 4.81481 14.3389 5.3994 14.619C6.62137 15.1955 8.16406 15.0128 9.21552 14.1602C10.2629 13.3118 10.7663 11.8381 10.4537 10.5227C10.2913 9.82854 9.84478 9.13433 9.15463 8.96382C8.1803 8.72024 7.29122 9.58902 6.30472 9.78388C6.08955 9.82448 5.85409 9.8326 5.65516 9.73111C5.44 9.6215 5.30603 9.40227 5.20048 9.18711C4.49003 7.77433 4.51439 6.28036 5.02185 4.9366C1.92024 8.01791 0 12.2847 0 17.002Z" fill="#FFCB24"/>
</g>
<g style="mix-blend-mode:overlay" opacity="0.64">
<path d="M9.00442 21.1307C8.60657 21.1307 8.22902 21.4799 8.24526 21.8899C8.26556 22.2999 8.57815 22.6491 9.00442 22.6491C9.40227 22.6491 9.77982 22.2999 9.76358 21.8899C9.74329 21.4799 9.43069 21.1307 9.00442 21.1307Z" fill="#FFCB24"/>
<path opacity="0.63" d="M11.3103 18.9953C11.1926 18.565 10.9043 18.1631 10.4983 17.9642C10.0924 17.7653 9.58491 17.6719 9.14647 17.8383C8.82575 17.9601 8.50909 18.1387 8.34265 18.4595C8.16808 18.7883 8.12748 19.1293 8.20867 19.4987C8.23303 19.6043 8.27363 19.6977 8.32641 19.787C8.37512 20.0265 8.50503 20.2417 8.68772 20.4122C8.67148 20.4 8.65524 20.3878 8.639 20.3716C8.73238 20.4528 8.82575 20.538 8.93536 20.603C9.08963 20.6923 9.21954 20.7248 9.36569 20.7491C9.34133 20.7491 9.31291 20.741 9.28856 20.737C9.65393 20.7978 9.97059 20.8547 10.336 20.737C11.0545 20.5055 11.5255 19.7423 11.3143 18.9953H11.3103Z" fill="#FFCB24"/>
<path d="M7.6119 18.5488C8.05847 18.5488 8.05847 17.8586 7.6119 17.8586C7.16534 17.8586 7.16534 18.5488 7.6119 18.5488Z" fill="#FFCB24"/>
<path d="M6.01643 17.7531C6.7147 17.7531 6.71876 16.6651 6.01643 16.6651C5.3141 16.6651 5.3141 17.7531 6.01643 17.7531Z" fill="#FFCB24"/>
<path d="M6.16665 24.3988C5.61453 24.3988 5.61453 25.2554 6.16665 25.2554C6.71877 25.2554 6.71877 24.3988 6.16665 24.3988Z" fill="#FFCB24"/>
<path d="M6.34529 26.522C6.32905 26.1282 6.02864 25.7994 5.62267 25.7994C5.24511 25.7994 4.87974 26.1323 4.90004 26.522C4.91628 26.9158 5.2167 27.2446 5.62267 27.2446C6.00022 27.2446 6.36559 26.9118 6.34529 26.522Z" fill="#FFCB24"/>
<path opacity="0.63" d="M6.31689 27.2568C5.53337 27.2568 5.53337 28.4747 6.31689 28.4747C7.10041 28.4747 7.10041 27.2568 6.31689 27.2568Z" fill="#FFCB24"/>
<path opacity="0.63" d="M9.2236 25.2595C9.2236 25.2595 9.23172 25.2473 9.2439 25.2107C9.28855 25.0849 9.29667 24.9266 9.28855 24.7966C9.26825 24.4678 9.11805 24.143 8.81357 24.005C8.52533 23.6518 8.00975 23.7533 7.67279 23.9401C7.32772 24.1309 7.07602 24.4232 6.95017 24.8007C6.82432 25.1783 6.84867 25.6126 7.06384 25.9537C7.34396 26.3962 7.90014 26.656 8.41572 26.5017C8.9516 26.3393 9.15052 25.8765 9.21142 25.3731C9.21142 25.3366 9.21548 25.3001 9.21954 25.2635L9.2236 25.2595Z" fill="#FFCB24"/>
<path d="M10.0518 24.7073C10.7947 24.7073 10.7947 23.5544 10.0518 23.5544C9.3089 23.5544 9.3089 24.7073 10.0518 24.7073Z" fill="#FFCB24"/>
<path d="M9.89345 25.3488C9.89345 25.3488 9.86503 25.3609 9.84879 25.365C9.30479 25.5558 9.30073 26.2866 9.84879 26.4774C9.86503 26.4814 9.87721 26.4895 9.89345 26.4936C10.2629 26.6235 10.6445 26.2866 10.6445 25.9212C10.6445 25.5558 10.2629 25.2189 9.89345 25.3488Z" fill="#FFCB24"/>
<path d="M9.30482 26.7209C8.92321 26.7209 8.92321 27.3137 9.30482 27.3137C9.68644 27.3137 9.68644 26.7209 9.30482 26.7209Z" fill="#FFCB24"/>
<path d="M8.0585 27.3827C7.8271 27.3827 7.82304 27.744 8.0585 27.744C8.29396 27.744 8.29396 27.3827 8.0585 27.3827Z" fill="#FFCB24"/>
</g>
<g style="mix-blend-mode:overlay" opacity="0.36">
<path d="M6.34534 6.67009C5.79322 6.67009 5.26545 7.15319 5.28981 7.72561C5.31417 8.29803 5.75262 8.78113 6.34534 8.78113C6.89746 8.78113 7.42522 8.29803 7.40086 7.72561C7.3765 7.15319 6.93805 6.67009 6.34534 6.67009Z" fill="#FFCB24"/>
<path d="M5.8744 6.25601C6.03679 6.39809 6.2479 6.45087 6.45088 6.36562C6.63763 6.28848 6.78378 6.09362 6.77566 5.88251C6.75536 5.41565 6.22354 5.20454 5.8744 5.50902C5.86628 5.51714 5.85816 5.52526 5.84599 5.53338C5.65518 5.69983 5.65518 6.0652 5.84599 6.23165C5.8541 6.23977 5.86222 6.24789 5.8744 6.25601Z" fill="#FFCB24"/>
<path d="M7.68913 5.45218C7.39277 5.45218 7.39277 5.91498 7.68913 5.91498C7.98548 5.91498 7.98548 5.45218 7.68913 5.45218Z" fill="#FFCB24"/>
<path d="M8.5376 6.73505C7.90023 6.73505 7.90023 7.72155 8.5376 7.72155C9.17497 7.72155 9.17497 6.73505 8.5376 6.73505Z" fill="#FFCB24"/>
<path d="M8.73649 5.78508C8.22903 5.78508 8.22903 6.57672 8.73649 6.57672C9.24396 6.57672 9.24396 5.78508 8.73649 5.78508Z" fill="#FFCB24"/>
<path d="M8.53756 2.91893C7.09636 2.91893 7.0923 5.15989 8.53756 5.15989C9.98281 5.15989 9.98281 2.91893 8.53756 2.91893Z" fill="#FFCB24"/>
<path d="M6.79189 4.96909C7.0233 4.96909 7.02736 4.60777 6.79189 4.60777C6.55643 4.60777 6.55643 4.96909 6.79189 4.96909Z" fill="#FFCB24"/>
</g>
<g style="mix-blend-mode:multiply" opacity="0.42">
<path d="M23.6194 30.7928C21.7438 32.2706 19.5759 33.2936 17.2903 33.9919C26.5464 33.8376 34 26.2906 34 16.998C34 9.17493 28.7143 2.59416 21.5246 0.613022C21.7073 0.690156 21.8899 0.77947 22.0645 0.880962C22.9414 1.38437 23.6559 2.15165 24.1674 3.02448C24.6465 3.8486 24.955 4.78233 24.9713 5.73636C24.9997 7.23845 24.3055 8.67559 23.3961 9.86914C21.6179 12.2035 19.036 13.7786 16.8965 15.7882C16.2307 16.4134 15.5649 17.1847 15.5812 18.0982C15.5974 18.8898 16.1455 19.5881 16.8031 20.0265C17.4649 20.465 18.2321 20.6964 18.9751 20.9805C20.6396 21.6139 22.1985 22.5313 23.5625 23.6762C24.7764 24.6952 25.909 26.1039 25.7385 27.675C25.6005 28.9579 24.6302 29.989 23.6153 30.7888L23.6194 30.7928Z" fill="#FFB817"/>
<path d="M17.2416 0.0081194C17.1604 0.0081194 17.0832 0 17.002 0C16.6854 0 16.3687 0.0121791 16.0521 0.0284179C16.4662 0.0324776 16.8843 0.0202985 17.2416 0.0081194Z" fill="#FFB817"/>
</g>
<g style="mix-blend-mode:multiply" opacity="0.35">
<path d="M29.7617 5.77696C30.9512 8.09911 31.6291 10.7298 31.6291 13.5148C31.6291 22.9048 24.0172 30.5168 14.6271 30.5168C9.5403 30.5168 4.98125 28.2799 1.8634 24.7398C4.68084 30.2367 10.3969 34 16.998 34C26.3881 34 34 26.3881 34 16.998C34 12.6947 32.3964 8.76896 29.7617 5.7729V5.77696Z" fill="#FFCD5C"/>
</g>
<g style="mix-blend-mode:multiply" opacity="0.39">
<path d="M27.947 3.99881C28.2149 5.19642 28.3611 6.44275 28.3611 7.72156C28.3611 17.1116 20.7491 24.7236 11.359 24.7236C7.18974 24.7236 3.36956 23.2174 0.410034 20.7248C2.10699 28.3205 8.88669 34 16.998 34C26.3881 34 34 26.3881 34 16.998C34 11.7813 31.6454 7.1126 27.947 3.99475V3.99881Z" fill="#FFB817"/>
</g>
<g style="mix-blend-mode:overlay" opacity="0.61">
<path d="M29.7738 5.78507C26.656 2.24096 22.0929 0 17.002 0C14.7936 0 12.6866 0.426269 10.7541 1.18949C10.7379 1.19761 10.7176 1.20167 10.7014 1.20979C10.5106 1.28693 10.3238 1.36406 10.133 1.44931C10.1168 1.45743 10.1005 1.46555 10.0802 1.47367C9.52 1.72537 8.976 2.00549 8.44824 2.30997C8.41576 2.32621 8.38734 2.34651 8.35487 2.36275C8.20872 2.448 8.06257 2.54137 7.92048 2.63069C7.85958 2.67128 7.79463 2.71188 7.73373 2.75248C7.59976 2.83773 7.46579 2.92704 7.33588 3.02042C7.26687 3.06913 7.20191 3.11379 7.13696 3.16251C6.72693 3.45481 6.32907 3.7674 5.94746 4.09624C5.86221 4.16931 5.77696 4.23833 5.69576 4.31546C5.59833 4.40072 5.50496 4.49003 5.40752 4.57934C5.32227 4.66054 5.23701 4.74173 5.15176 4.82293C5.06245 4.91224 4.97313 4.99749 4.88382 5.08681C4.79451 5.18018 4.70519 5.27355 4.61994 5.36693C1.75379 8.40358 0 12.4958 0 17.002C0 21.5083 1.87964 25.8928 4.92442 28.966C2.29373 25.9699 0.698269 22.0482 0.698269 17.7531C0.698269 13.4579 2.30591 9.50376 4.9569 6.5077C5.89875 7.6769 7.344 8.42388 8.96382 8.42388C11.8097 8.42388 14.1196 6.11797 14.1196 3.26806C14.1196 2.54137 13.9654 1.85528 13.6974 1.23009C14.9844 0.917493 16.3241 0.751045 17.7044 0.751045C22.4258 0.751045 26.6966 2.6794 29.7779 5.78507H29.7738Z" fill="#FFC747"/>
</g>
<g style="mix-blend-mode:screen" opacity="0.2">
<path d="M0.958069 11.3753C2.61037 14.9519 6.22756 17.4364 10.4253 17.4364C16.1819 17.4364 20.8506 12.7678 20.8506 7.0111C20.8506 4.3317 19.8397 1.89182 18.1793 0.0446567C17.7896 0.0162388 17.3958 0 17.002 0C9.58493 0 3.28022 4.74985 0.958069 11.3753Z" fill="#FFB817"/>
</g>
<path style="mix-blend-mode:multiply" opacity="0.91" d="M19.6937 33.7898C28.9655 32.3047 35.2778 23.5845 33.7927 14.3127C32.3076 5.04094 23.5875 -1.27141 14.3157 0.213687C5.04391 1.69878 -1.26844 10.419 0.216657 19.6907C1.70176 28.9625 10.4219 35.2749 19.6937 33.7898Z" fill="url(#paint0_linear_1_662)"/>
</g>
<defs>
<linearGradient id="paint0_linear_1_662" x1="4.98403" y1="4.98362" x2="29.0256" y2="29.0252" gradientUnits="userSpaceOnUse">
<stop stop-color="white"/>
<stop offset="1" stop-color="#DD3D02"/>
</linearGradient>
<clipPath id="clip0_1_662">
<rect width="34" height="34" fill="white"/>
</clipPath>
</defs>
</svg>
