<svg width="1917" height="107" viewBox="0 0 1917 107" fill="none" xmlns="http://www.w3.org/2000/svg">
<path d="M3 104L42 3" stroke="white" stroke-width="5" stroke-linecap="round"/>
<path d="M81 104L120 3" stroke="white" stroke-width="5" stroke-linecap="round"/>
<path d="M159 104L198 3" stroke="white" stroke-width="5" stroke-linecap="round"/>
<path d="M237 104L276 3" stroke="white" stroke-width="5" stroke-linecap="round"/>
<path d="M315 104L354 3" stroke="white" stroke-width="5" stroke-linecap="round"/>
<path d="M393 104L432 3" stroke="white" stroke-width="5" stroke-linecap="round"/>
<path d="M471 104L510 3" stroke="white" stroke-width="5" stroke-linecap="round"/>
<path d="M42 3L80.9938 104.002" stroke="white" stroke-width="5" stroke-linecap="round"/>
<path d="M120 3L158.994 104.002" stroke="white" stroke-width="5" stroke-linecap="round"/>
<path d="M198 3L236.994 104.002" stroke="white" stroke-width="5" stroke-linecap="round"/>
<path d="M276 3L314.994 104.002" stroke="white" stroke-width="5" stroke-linecap="round"/>
<path d="M354 3L392.994 104.002" stroke="white" stroke-width="5" stroke-linecap="round"/>
<path d="M432 3L470.994 104.002" stroke="white" stroke-width="5" stroke-linecap="round"/>
<path d="M1017 104L1056 3" stroke="white" stroke-width="5" stroke-linecap="round"/>
<path d="M1095 104L1134 3" stroke="white" stroke-width="5" stroke-linecap="round"/>
<path d="M1173 104L1212 3" stroke="white" stroke-width="5" stroke-linecap="round"/>
<path d="M1251 104L1290 3" stroke="white" stroke-width="5" stroke-linecap="round"/>
<path d="M1329 104L1368 3" stroke="white" stroke-width="5" stroke-linecap="round"/>
<path d="M1407 104L1446 3" stroke="white" stroke-width="5" stroke-linecap="round"/>
<path d="M978 3L1016.99 104.002" stroke="white" stroke-width="5" stroke-linecap="round"/>
<path d="M1056 3L1094.99 104.002" stroke="white" stroke-width="5" stroke-linecap="round"/>
<path d="M1134 3L1172.99 104.002" stroke="white" stroke-width="5" stroke-linecap="round"/>
<path d="M1212 3L1250.99 104.002" stroke="white" stroke-width="5" stroke-linecap="round"/>
<path d="M1290 3L1328.99 104.002" stroke="white" stroke-width="5" stroke-linecap="round"/>
<path d="M1368 3L1406.99 104.002" stroke="white" stroke-width="5" stroke-linecap="round"/>
<path d="M549 104L588 3" stroke="white" stroke-width="5" stroke-linecap="round"/>
<path d="M627 104L666 3" stroke="white" stroke-width="5" stroke-linecap="round"/>
<path d="M705 104L744 3" stroke="white" stroke-width="5" stroke-linecap="round"/>
<path d="M783 104L822 3" stroke="white" stroke-width="5" stroke-linecap="round"/>
<path d="M861 104L900 3" stroke="white" stroke-width="5" stroke-linecap="round"/>
<path d="M939 104L978 3" stroke="white" stroke-width="5" stroke-linecap="round"/>
<path d="M510 3L548.994 104.002" stroke="white" stroke-width="5" stroke-linecap="round"/>
<path d="M588 3L626.994 104.002" stroke="white" stroke-width="5" stroke-linecap="round"/>
<path d="M666 3L704.994 104.002" stroke="white" stroke-width="5" stroke-linecap="round"/>
<path d="M744 3L782.994 104.002" stroke="white" stroke-width="5" stroke-linecap="round"/>
<path d="M822 3L860.994 104.002" stroke="white" stroke-width="5" stroke-linecap="round"/>
<path d="M900 3L938.994 104.002" stroke="white" stroke-width="5" stroke-linecap="round"/>
<path d="M1485 104L1524 3" stroke="white" stroke-width="5" stroke-linecap="round"/>
<path d="M1563 104L1602 3" stroke="white" stroke-width="5" stroke-linecap="round"/>
<path d="M1641 104L1680 3" stroke="white" stroke-width="5" stroke-linecap="round"/>
<path d="M1719 104L1758 3" stroke="white" stroke-width="5" stroke-linecap="round"/>
<path d="M1797 104L1836 3" stroke="white" stroke-width="5" stroke-linecap="round"/>
<path d="M1875 104L1914 3" stroke="white" stroke-width="5" stroke-linecap="round"/>
<path d="M1446 3L1484.99 104.002" stroke="white" stroke-width="5" stroke-linecap="round"/>
<path d="M1524 3L1562.99 104.002" stroke="white" stroke-width="5" stroke-linecap="round"/>
<path d="M1602 3L1640.99 104.002" stroke="white" stroke-width="5" stroke-linecap="round"/>
<path d="M1680 3L1718.99 104.002" stroke="white" stroke-width="5" stroke-linecap="round"/>
<path d="M1758 3L1796.99 104.002" stroke="white" stroke-width="5" stroke-linecap="round"/>
<path d="M1836 3L1874.99 104.002" stroke="white" stroke-width="5" stroke-linecap="round"/>
</svg>
